<svg xmlns="http://www.w3.org/2000/svg" xmlns:xlink="http://www.w3.org/1999/xlink" xmlns:lucid="lucid" width="941" height="513.77"><g transform="translate(-360 677)" lucid:page-tab-id="0_0"><path d="M717.6-258v-341" stroke="#3a4551" stroke-width="2" fill="none"/><path d="M718.6-257h-2v-1.03h2zM718.6-598.97h-2V-600h2z" stroke="#3a4551" stroke-width=".05" fill="#3a4551"/><path d="M1070-299h140v41h-140z" stroke="#6ba873" stroke-width="2" fill="#7ac083"/><use xlink:href="#a" transform="matrix(1,0,0,1,1077.9999999999998,-291) translate(22.549999999999997 16.1)"/><path d="M1272-566.5h18v288h-48.25" stroke="#3a4551" stroke-width="2" fill="none"/><path d="M1272.03-565.5H1271v-2h1.03z" stroke="#3a4551" stroke-width=".05" fill="#3a4551"/><path d="M1212.4-278.5l14.86-14.85 15.15 14.85-15.14 14.85z" stroke="#3a4551" stroke-width="2" fill="#fff"/><path d="M830-299h140v41H830z" stroke="#6ba873" stroke-width="2" fill="#7ac083"/><use xlink:href="#b" transform="matrix(1,0,0,1,838.0000000000002,-291) translate(17.049999999999997 16.1)"/><path d="M1068-278.5h-66.25" stroke="#3a4551" stroke-width="2" fill="none"/><path d="M1069-277.5h-1.03v-2h1.03z" stroke="#3a4551" stroke-width=".05" fill="#3a4551"/><path d="M972.4-278.5l14.86-14.85 15.15 14.85-15.14 14.85z" stroke="#3a4551" stroke-width="2" fill="#fff"/><path d="M830-459h140v41H830z" stroke="#d45063" stroke-width="2" fill="#ed586f"/><use xlink:href="#c" transform="matrix(1,0,0,1,838.0000000000002,-451) translate(29.574999999999996 16.1)"/><path d="M900-301v-85.25" stroke="#3a4551" stroke-width="2" fill="none"/><path d="M901-300h-2v-1.03h2z" stroke="#3a4551" stroke-width=".05" fill="#3a4551"/><path d="M900-415.6l14.85 14.86L900-385.6l-14.85-15.14z" stroke="#3a4551" stroke-width="2" fill="#3a4551"/><path d="M380-355h380v41H380z" stroke="#de7e55" stroke-width="2" fill="#f98f60"/><use xlink:href="#d" transform="matrix(1,0,0,1,388,-347) translate(8.924999999999983 16.1)"/><use xlink:href="#e" transform="matrix(1,0,0,1,388,-347) translate(127.175 16.1)"/><use xlink:href="#f" transform="matrix(1,0,0,1,388,-347) translate(205.475 16.1)"/><use xlink:href="#g" transform="matrix(1,0,0,1,388,-347) translate(281.775 16.1)"/><path d="M480-299h280v41H480z" stroke="#de7e55" stroke-width="2" fill="#f98f60"/><use xlink:href="#h" transform="matrix(1,0,0,1,487.99999999999994,-291) translate(4.324999999999989 16.1)"/><use xlink:href="#i" transform="matrix(1,0,0,1,487.99999999999994,-291) translate(111.075 16.1)"/><use xlink:href="#j" transform="matrix(1,0,0,1,487.99999999999994,-291) translate(187.375 16.1)"/><path d="M460-419h300v41H460z" stroke="#de7e55" stroke-width="2" fill="#f98f60"/><use xlink:href="#k" transform="matrix(1,0,0,1,468.00000000000006,-411) translate(2.3999999999999773 16.1)"/><use xlink:href="#i" transform="matrix(1,0,0,1,468.00000000000006,-411) translate(133 16.1)"/><use xlink:href="#j" transform="matrix(1,0,0,1,468.00000000000006,-411) translate(209.3 16.1)"/><path d="M520-599h240v41H520z" stroke="#de7e55" stroke-width="2" fill="#f98f60"/><use xlink:href="#l" transform="matrix(1,0,0,1,528,-591) translate(7.4750000000000085 16.1)"/><use xlink:href="#m" transform="matrix(1,0,0,1,528,-591) translate(200.625 16.1)"/><path d="M500-539h260v41H500z" stroke="#de7e55" stroke-width="2" fill="#f98f60"/><use xlink:href="#n" transform="matrix(1,0,0,1,508.00000000000006,-531) translate(3.000000000000014 16.1)"/><use xlink:href="#o" transform="matrix(1,0,0,1,508.00000000000006,-531) translate(204.45 16.1)"/><use xlink:href="#p" transform="matrix(1,0,0,1,508.00000000000006,-531) translate(224.05 16.1)"/><path d="M460-479h300v41H460z" stroke="#de7e55" stroke-width="2" fill="#f98f60"/><use xlink:href="#q" transform="matrix(1,0,0,1,468.0000000000001,-471) translate(2.2250000000000227 16.1)"/><use xlink:href="#m" transform="matrix(1,0,0,1,468.0000000000001,-471) translate(264.875 16.1)"/><path d="M762-578.5h33v140h33" stroke="#3a4551" stroke-width="2" fill="none"/><path d="M762.03-577.5H761v-2h1.03zM829-437.5h-1.03v-2H829z" stroke="#3a4551" stroke-width=".05" fill="#3a4551"/><path d="M762-518.5h33v80h33" stroke="#3a4551" stroke-width="2" fill="none"/><path d="M762.03-517.5H761v-2h1.03zM829-437.5h-1.03v-2H829z" stroke="#3a4551" stroke-width=".05" fill="#3a4551"/><path d="M762-458.5h33v20h33" stroke="#3a4551" stroke-width="2" fill="none"/><path d="M762.03-457.5H761v-2h1.03zM829-437.5h-1.03v-2H829z" stroke="#3a4551" stroke-width=".05" fill="#3a4551"/><path d="M762-398.5h33v-40h33" stroke="#3a4551" stroke-width="2" fill="none"/><path d="M762.03-397.5H761v-2h1.03zM829-437.5h-1.03v-2H829z" stroke="#3a4551" stroke-width=".05" fill="#3a4551"/><path d="M762-334.5h33v-104h33" stroke="#3a4551" stroke-width="2" fill="none"/><path d="M762.03-333.5H761v-2h1.03zM829-437.5h-1.03v-2H829z" stroke="#3a4551" stroke-width=".05" fill="#3a4551"/><path d="M762-278.5h33v-160h33" stroke="#3a4551" stroke-width="2" fill="none"/><path d="M762.03-277.5H761v-2h1.03zM829-437.5h-1.03v-2H829z" stroke="#3a4551" stroke-width=".05" fill="#3a4551"/><path d="M830-599h140v41H830z" stroke="#d45063" stroke-width="2" fill="#ed586f"/><use xlink:href="#r" transform="matrix(1,0,0,1,838.0000000000002,-591) translate(32.025 16.1)"/><path d="M900-526.25V-461" stroke="#3a4551" stroke-width="2" fill="none"/><path d="M900-555.6l14.85 14.86L900-525.6l-14.85-15.14z" stroke="#3a4551" stroke-width="2" fill="#3a4551"/><path d="M901-460h-2v-1.03h2z" stroke="#3a4551" stroke-width=".05" fill="#3a4551"/><path d="M925-373h75v41h-75z" stroke="#d45063" stroke-width="2" fill="#ed586f"/><use xlink:href="#s" transform="matrix(1,0,0,1,933,-365) translate(-2.4250000000000043 16.1)"/><path d="M923-352.5h-23v-33.75" stroke="#3a4551" stroke-width="2" fill="none"/><path d="M924-351.5h-1.03v-2H924z" stroke="#3a4551" stroke-width=".05" fill="#3a4551"/><path d="M900-415.6l14.85 14.86L900-385.6l-14.85-15.14z" stroke="#3a4551" stroke-width="2" fill="#3a4551"/><path d="M1000-471h280v65h-280z" stroke="#55a8b5" stroke-width="2" fill="#60c1cf"/><use xlink:href="#t" transform="matrix(1,0,0,1,1008,-463) translate(21.250000000000014 17.299999999999997)"/><use xlink:href="#u" transform="matrix(1,0,0,1,1008,-463) translate(226.84999999999997 17.299999999999997)"/><use xlink:href="#v" transform="matrix(1,0,0,1,1008,-463) translate(4.925000000000026 38.9)"/><use xlink:href="#o" transform="matrix(1,0,0,1,1008,-463) translate(222.52499999999998 38.9)"/><use xlink:href="#p" transform="matrix(1,0,0,1,1008,-463) translate(242.125 38.9)"/><path d="M1140-404v73.25" stroke="#3a4551" stroke-width="2" fill="none"/><path d="M1141-403.97h-2V-405h2z" stroke="#3a4551" stroke-width=".05" fill="#3a4551"/><path d="M1140-301.42l-14.85-14.84 14.85-15.16 14.85 15.16z" stroke="#3a4551" stroke-width="2" fill="#fff"/><path d="M1140-532v29.25" stroke="#3a4551" stroke-width="2" fill="none"/><path d="M1141-531.97h-2V-533h2z" stroke="#3a4551" stroke-width=".05" fill="#3a4551"/><path d="M1140-473.42l-14.85-14.84 14.85-15.16 14.85 15.16z" stroke="#3a4551" stroke-width="2" fill="#fff"/><path d="M762-278.5h66" stroke="#3a4551" stroke-width="2" fill="none"/><path d="M762.03-277.5H761v-2h1.03zM829-277.5h-1.03v-2H829z" stroke="#3a4551" stroke-width=".05" fill="#3a4551"/><path d="M762-578.5h66" stroke="#3a4551" stroke-width="2" fill="none"/><path d="M762.03-577.5H761v-2h1.03zM829-577.5h-1.03v-2H829z" stroke="#3a4551" stroke-width=".05" fill="#3a4551"/><path d="M961-211.15h48.25" stroke="#3a4551" stroke-width="2" fill="none"/><path d="M961.03-210.15H960v-2h1.03z" stroke="#3a4551" stroke-width=".05" fill="#3a4551"/><path d="M1038.58-211.15l-14.84 14.85-15.16-14.85 15.16-14.85z" stroke="#3a4551" stroke-width="2" fill="#fff"/><path d="M830-241.6h130v58.37H830z" stroke="#000" stroke-opacity="0" stroke-width="4" fill-opacity="0"/><use xlink:href="#w" transform="matrix(1,0,0,1,835.0000000000002,-236.61250000000007) translate(0.6851851851851833 30.02777777777778)"/><path d="M540-243h140v58.4H540z" stroke="#000" stroke-opacity="0" stroke-width="4" fill-opacity="0"/><use xlink:href="#x" transform="matrix(1,0,0,1,545,-238) translate(3.3950617283950564 30.02777777777778)"/><path d="M681-213.8h48.25" stroke="#3a4551" stroke-width="2" fill="none"/><path d="M681.03-212.8H680v-2h1.03z" stroke="#3a4551" stroke-width=".05" fill="#3a4551"/><path d="M758.58-213.8l-14.84 14.84-15.16-14.85 15.16-14.86z" stroke="#3a4551" stroke-width="2" fill="#3a4551"/><path d="M1080-237.23h140v49.62h-140z" stroke="#000" stroke-opacity="0" stroke-width="4" fill-opacity="0"/><g><use xlink:href="#y" transform="matrix(1,0,0,1,1085,-232.23125000000016) translate(4.012345679012334 25.27777777777778)"/></g><path d="M1221-212.42h58" stroke="#3a4551" stroke-width="2" fill="none"/><path d="M1221.03-211.42H1220v-2h1.03z" stroke="#3a4551" stroke-width=".05" fill="#3a4551"/><path d="M1278.97-212.42h1.03" stroke="#3a4551" stroke-width="2" fill="none"/><path d="M1010-599h260v65h-260z" stroke="#55a8b5" stroke-width="2" fill="#60c1cf"/><g><use xlink:href="#z" transform="matrix(1,0,0,1,1017.9999999999998,-591) translate(22.325000000000017 17.299999999999997)"/><use xlink:href="#A" transform="matrix(1,0,0,1,1017.9999999999998,-591) translate(6.000000000000014 38.9)"/><use xlink:href="#B" transform="matrix(1,0,0,1,1017.9999999999998,-591) translate(221.05 38.9)"/></g><path d="M495-657h290v39H495z" fill="none"/><g><use xlink:href="#C" transform="matrix(1,0,0,1,495,-657) translate(59.61728395061729 25.72222222222222)"/></g><path d="M1165-364.5h90v60h-90z" fill="none"/><g><use xlink:href="#D" transform="matrix(1,0,0,1,1165,-364.5) translate(11.882716049382722 36.22222222222222)"/></g><path d="M795-657h210v39H795z" fill="none"/><g><use xlink:href="#E" transform="matrix(1,0,0,1,795.0000000000003,-657) translate(40.31481481481484 25.72222222222222)"/></g><path d="M1050-657h180v39h-180z" fill="none"/><g><use xlink:href="#F" transform="matrix(1,0,0,1,1050,-657) translate(13.216049382716065 25.72222222222222)"/></g><defs><path fill="#fff" d="M67-125c0 53 21 87 73 88 37 1 54-22 65-47l45 17C233-25 199 4 140 4 58 4 20-42 15-125 8-235 124-281 211-232c18 10 29 29 36 50l-46 12c-8-25-30-41-62-41-52 0-71 34-72 86" id="G"/><path fill="#fff" d="M114-157C55-157 80-60 75 0H25v-261h50l-1 109c12-26 28-41 61-42 86-1 58 113 63 194h-50c-7-57 23-157-34-157" id="H"/><path fill="#fff" d="M185-48c-13 30-37 53-82 52C43 2 14-33 14-96s30-98 90-98c62 0 83 45 84 108H66c0 31 8 55 39 56 18 0 30-7 34-22zm-45-69c5-46-57-63-70-21-2 6-4 13-4 21h74" id="I"/><path fill="#fff" d="M220-157c-53 9-28 100-34 157h-49v-107c1-27-5-49-29-50C55-147 81-57 75 0H25l-1-190h47c2 12-1 28 3 38 10-53 101-56 108 0 13-22 24-43 59-42 82 1 51 116 57 194h-49v-107c-1-25-5-48-29-50" id="J"/><path fill="#fff" d="M25-224v-37h50v37H25zM25 0v-190h50V0H25" id="K"/><path fill="#fff" d="M190-63c-7 42-38 67-86 67-59 0-84-38-90-98-12-110 154-137 174-36l-49 2c-2-19-15-32-35-32-30 0-35 28-38 64-6 74 65 87 74 30" id="L"/><path fill="#fff" d="M133-34C117-15 103 5 69 4 32 3 11-16 11-54c-1-60 55-63 116-61 1-26-3-47-28-47-18 1-26 9-28 27l-52-2c7-38 36-58 82-57s74 22 75 68l1 82c-1 14 12 18 25 15v27c-30 8-71 5-69-32zm-48 3c29 0 43-24 42-57-32 0-66-3-65 30 0 17 8 27 23 27" id="M"/><path fill="#fff" d="M25 0v-261h50V0H25" id="N"/><g id="a"><use transform="matrix(0.05,0,0,0.05,0,0)" xlink:href="#G"/><use transform="matrix(0.05,0,0,0.05,12.950000000000001,0)" xlink:href="#H"/><use transform="matrix(0.05,0,0,0.05,23.900000000000002,0)" xlink:href="#I"/><use transform="matrix(0.05,0,0,0.05,33.900000000000006,0)" xlink:href="#J"/><use transform="matrix(0.05,0,0,0.05,49.900000000000006,0)" xlink:href="#K"/><use transform="matrix(0.05,0,0,0.05,54.900000000000006,0)" xlink:href="#L"/><use transform="matrix(0.05,0,0,0.05,64.9,0)" xlink:href="#M"/><use transform="matrix(0.05,0,0,0.05,74.9,0)" xlink:href="#N"/></g><path fill="#fff" d="M137-138c1-29-70-34-71-4 15 46 118 7 119 86 1 83-164 76-172 9l43-7c4 19 20 25 44 25 33 8 57-30 24-41C81-84 22-81 20-136c-2-80 154-74 161-7" id="O"/><g id="b"><use transform="matrix(0.05,0,0,0.05,0,0)" xlink:href="#G"/><use transform="matrix(0.05,0,0,0.05,12.950000000000001,0)" xlink:href="#H"/><use transform="matrix(0.05,0,0,0.05,23.900000000000002,0)" xlink:href="#I"/><use transform="matrix(0.05,0,0,0.05,33.900000000000006,0)" xlink:href="#J"/><use transform="matrix(0.05,0,0,0.05,49.900000000000006,0)" xlink:href="#K"/><use transform="matrix(0.05,0,0,0.05,54.900000000000006,0)" xlink:href="#L"/><use transform="matrix(0.05,0,0,0.05,64.9,0)" xlink:href="#M"/><use transform="matrix(0.05,0,0,0.05,74.9,0)" xlink:href="#N"/><use transform="matrix(0.05,0,0,0.05,79.9,0)" xlink:href="#O"/></g><path fill="#fff" d="M136-208V0H84v-208H4v-40h212v40h-80" id="P"/><path fill="#fff" d="M135-150c-39-12-60 13-60 57V0H25l-1-190h47c2 13-1 29 3 40 6-28 27-53 61-41v41" id="Q"/><path fill="#fff" d="M110-194c64 0 96 36 96 99 0 64-35 99-97 99-61 0-95-36-95-99 0-62 34-99 96-99zm-1 164c35 0 45-28 45-65 0-40-10-65-43-65-34 0-45 26-45 65 0 36 10 65 43 65" id="R"/><g id="c"><use transform="matrix(0.05,0,0,0.05,0,0)" xlink:href="#P"/><use transform="matrix(0.05,0,0,0.05,10.950000000000001,0)" xlink:href="#H"/><use transform="matrix(0.05,0,0,0.05,21.900000000000002,0)" xlink:href="#I"/><use transform="matrix(0.05,0,0,0.05,31.900000000000002,0)" xlink:href="#Q"/><use transform="matrix(0.05,0,0,0.05,38.900000000000006,0)" xlink:href="#J"/><use transform="matrix(0.05,0,0,0.05,54.900000000000006,0)" xlink:href="#R"/></g><path fill="#fff" d="M147 0H94L2-248h55l64 206c17-72 42-137 63-206h54" id="S"/><path fill="#fff" d="M24 0v-248h52v208h133V0H24" id="T"/><path fill="#fff" d="M24 0v-248h195v40H76v63h132v40H76v65h150V0H24" id="U"/><path fill="#fff" d="M67-93c0 74 22 123 53 168H70C40 30 18-18 18-93s22-123 52-168h50c-32 44-53 94-53 168" id="V"/><path fill="#fff" d="M24-248c93 1 206-16 204 79-1 75-69 88-152 82V0H24v-248zm52 121c47 0 100 7 100-41 0-47-54-39-100-39v80" id="W"/><path fill="#fff" d="M15-148v-39h180v39H15zm0 97v-39h180v39H15" id="X"/><path fill="#fff" d="M175 0L67-191c6 58 2 128 3 191H24v-248h59L193-55c-6-58-2-129-3-193h46V0h-61" id="Y"/><path fill="#fff" d="M135-194c87-1 58 113 63 194h-50c-7-57 23-157-34-157-59 0-34 97-39 157H25l-1-190h47c2 12-1 28 3 38 12-26 28-41 61-42" id="Z"/><path fill="#fff" d="M76-54c-1 42 2 86-19 110H24C36 42 46 24 48 0H25v-54h51" id="aa"/><g id="d"><use transform="matrix(0.05,0,0,0.05,0,0)" xlink:href="#S"/><use transform="matrix(0.05,0,0,0.05,12,0)" xlink:href="#T"/><use transform="matrix(0.05,0,0,0.05,22.950000000000003,0)" xlink:href="#U"/><use transform="matrix(0.05,0,0,0.05,34.95,0)" xlink:href="#V"/><use transform="matrix(0.05,0,0,0.05,40.900000000000006,0)" xlink:href="#W"/><use transform="matrix(0.05,0,0,0.05,52.900000000000006,0)" xlink:href="#X"/><use transform="matrix(0.05,0,0,0.05,63.400000000000006,0)" xlink:href="#Y"/><use transform="matrix(0.05,0,0,0.05,76.35000000000001,0)" xlink:href="#R"/><use transform="matrix(0.05,0,0,0.05,87.30000000000001,0)" xlink:href="#Z"/><use transform="matrix(0.05,0,0,0.05,98.25000000000001,0)" xlink:href="#I"/><use transform="matrix(0.05,0,0,0.05,108.25,0)" xlink:href="#aa"/></g><path fill="#fff" d="M186 0v-106H76V0H24v-248h52v99h110v-99h50V0h-50" id="ab"/><g id="e"><use transform="matrix(0.05,0,0,0.05,0,0)" xlink:href="#ab"/><use transform="matrix(0.05,0,0,0.05,12.950000000000001,0)" xlink:href="#X"/><use transform="matrix(0.05,0,0,0.05,23.450000000000003,0)" xlink:href="#Y"/><use transform="matrix(0.05,0,0,0.05,36.400000000000006,0)" xlink:href="#R"/><use transform="matrix(0.05,0,0,0.05,47.35000000000001,0)" xlink:href="#Z"/><use transform="matrix(0.05,0,0,0.05,58.30000000000001,0)" xlink:href="#I"/><use transform="matrix(0.05,0,0,0.05,68.30000000000001,0)" xlink:href="#aa"/></g><g id="f"><use transform="matrix(0.05,0,0,0.05,0,0)" xlink:href="#P"/><use transform="matrix(0.05,0,0,0.05,10.950000000000001,0)" xlink:href="#X"/><use transform="matrix(0.05,0,0,0.05,21.450000000000003,0)" xlink:href="#Y"/><use transform="matrix(0.05,0,0,0.05,34.400000000000006,0)" xlink:href="#R"/><use transform="matrix(0.05,0,0,0.05,45.35000000000001,0)" xlink:href="#Z"/><use transform="matrix(0.05,0,0,0.05,56.30000000000001,0)" xlink:href="#I"/><use transform="matrix(0.05,0,0,0.05,66.30000000000001,0)" xlink:href="#aa"/></g><path fill="#fff" d="M102-93c0 74-22 123-52 168H0C30 29 54-18 53-93c0-74-22-123-53-168h50c30 45 52 94 52 168" id="ac"/><g id="g"><use transform="matrix(0.05,0,0,0.05,0,0)" xlink:href="#S"/><use transform="matrix(0.05,0,0,0.05,12,0)" xlink:href="#X"/><use transform="matrix(0.05,0,0,0.05,22.5,0)" xlink:href="#Y"/><use transform="matrix(0.05,0,0,0.05,35.45,0)" xlink:href="#R"/><use transform="matrix(0.05,0,0,0.05,46.400000000000006,0)" xlink:href="#Z"/><use transform="matrix(0.05,0,0,0.05,57.35,0)" xlink:href="#I"/><use transform="matrix(0.05,0,0,0.05,67.35000000000001,0)" xlink:href="#ac"/></g><path fill="#fff" d="M24-248c120-7 223 5 221 122C244-46 201 0 124 0H24v-248zM76-40c74 7 117-18 117-86 0-67-45-88-117-82v168" id="ad"/><path fill="#fff" d="M231 0h-52l-39-155L100 0H48L-1-190h46L77-45c9-52 24-97 36-145h53l37 145 32-145h46" id="ae"/><path fill="#fff" d="M115-3C79 11 28 4 28-45v-112H4v-33h27l15-45h31v45h36v33H77v99c-1 23 16 31 38 25v30" id="af"/><path fill="#fff" d="M12 0v-35l95-120H19v-35h142v35L67-36h103V0H12" id="ag"/><g id="h"><use transform="matrix(0.05,0,0,0.05,0,0)" xlink:href="#ad"/><use transform="matrix(0.05,0,0,0.05,12.950000000000001,0)" xlink:href="#I"/><use transform="matrix(0.05,0,0,0.05,22.950000000000003,0)" xlink:href="#ae"/><use transform="matrix(0.05,0,0,0.05,36.95,0)" xlink:href="#W"/><use transform="matrix(0.05,0,0,0.05,48.95,0)" xlink:href="#R"/><use transform="matrix(0.05,0,0,0.05,59.900000000000006,0)" xlink:href="#K"/><use transform="matrix(0.05,0,0,0.05,64.9,0)" xlink:href="#Z"/><use transform="matrix(0.05,0,0,0.05,75.85000000000001,0)" xlink:href="#af"/><use transform="matrix(0.05,0,0,0.05,81.80000000000001,0)" xlink:href="#V"/><use transform="matrix(0.05,0,0,0.05,87.75000000000001,0)" xlink:href="#ag"/><use transform="matrix(0.05,0,0,0.05,96.75000000000001,0)" xlink:href="#aa"/></g><g id="i"><use transform="matrix(0.05,0,0,0.05,0,0)" xlink:href="#P"/><use transform="matrix(0.05,0,0,0.05,10.950000000000001,0)" xlink:href="#X"/><use transform="matrix(0.05,0,0,0.05,21.450000000000003,0)" xlink:href="#Y"/><use transform="matrix(0.05,0,0,0.05,34.400000000000006,0)" xlink:href="#R"/><use transform="matrix(0.05,0,0,0.05,45.35000000000001,0)" xlink:href="#Z"/><use transform="matrix(0.05,0,0,0.05,56.30000000000001,0)" xlink:href="#I"/><use transform="matrix(0.05,0,0,0.05,66.30000000000001,0)" xlink:href="#aa"/></g><g id="j"><use transform="matrix(0.05,0,0,0.05,0,0)" xlink:href="#W"/><use transform="matrix(0.05,0,0,0.05,12,0)" xlink:href="#X"/><use transform="matrix(0.05,0,0,0.05,22.5,0)" xlink:href="#Y"/><use transform="matrix(0.05,0,0,0.05,35.45,0)" xlink:href="#R"/><use transform="matrix(0.05,0,0,0.05,46.400000000000006,0)" xlink:href="#Z"/><use transform="matrix(0.05,0,0,0.05,57.35,0)" xlink:href="#I"/><use transform="matrix(0.05,0,0,0.05,67.35000000000001,0)" xlink:href="#ac"/></g><path fill="#fff" d="M182-130c37 4 62 22 62 59C244 23 116-4 24 0v-248c84 5 203-23 205 63 0 31-19 50-47 55zM76-148c40-3 101 13 101-30 0-44-60-28-101-31v61zm0 110c48-3 116 14 116-37 0-48-69-32-116-35v72" id="ah"/><path fill="#fff" d="M85 4C-2 5 27-109 22-190h50c7 57-23 150 33 157 60-5 35-97 40-157h50l1 190h-47c-2-12 1-28-3-38-12 25-28 42-61 42" id="ai"/><path fill="#fff" d="M135-194c52 0 70 43 70 98 0 56-19 99-73 100-30 1-46-15-58-35L72 0H24l1-261h50v104c11-23 29-37 60-37zM114-30c31 0 40-27 40-66 0-37-7-63-39-63s-41 28-41 65c0 36 8 64 40 64" id="aj"/><g id="k"><use transform="matrix(0.05,0,0,0.05,0,0)" xlink:href="#ah"/><use transform="matrix(0.05,0,0,0.05,12.950000000000001,0)" xlink:href="#ai"/><use transform="matrix(0.05,0,0,0.05,23.900000000000002,0)" xlink:href="#aj"/><use transform="matrix(0.05,0,0,0.05,34.85,0)" xlink:href="#aj"/><use transform="matrix(0.05,0,0,0.05,45.800000000000004,0)" xlink:href="#N"/><use transform="matrix(0.05,0,0,0.05,50.800000000000004,0)" xlink:href="#I"/><use transform="matrix(0.05,0,0,0.05,60.800000000000004,0)" xlink:href="#W"/><use transform="matrix(0.05,0,0,0.05,72.80000000000001,0)" xlink:href="#R"/><use transform="matrix(0.05,0,0,0.05,83.75000000000001,0)" xlink:href="#K"/><use transform="matrix(0.05,0,0,0.05,88.75000000000001,0)" xlink:href="#Z"/><use transform="matrix(0.05,0,0,0.05,99.70000000000002,0)" xlink:href="#af"/><use transform="matrix(0.05,0,0,0.05,105.65000000000003,0)" xlink:href="#V"/><use transform="matrix(0.05,0,0,0.05,111.60000000000002,0)" xlink:href="#ag"/><use transform="matrix(0.05,0,0,0.05,120.60000000000002,0)" xlink:href="#aa"/></g><path fill="#fff" d="M183 0l-10-63H79L44 0H-7l138-248h61L234 0h-51zm-14-102l-15-108c-16 38-36 73-55 108h70" id="ak"/><path fill="#fff" d="M67-101c-8 29-7 73 27 71 23-2 32-16 39-37l48 9C170-19 141 4 91 4 36 4 7-28 12-86c6-75 61-124 140-103 26 7 40 29 43 59l-50 4c-1-20-9-34-29-34-35 0-41 29-49 59" id="al"/><path fill="#fff" d="M72-63c-8 23 5 39 32 30L98-1C54 14 12-6 23-64l18-93H15l7-33h28l24-45h31l-8 45h35l-6 33H90" id="am"/><path fill="#fff" d="M50-224l7-37h49l-7 37H50zM6 0l37-190h49L55 0H6" id="an"/><path fill="#fff" d="M109 0H50L19-190h51L86-37l77-153h54" id="ao"/><path fill="#fff" d="M100 10C77 47 50 87-15 72l7-35c37 9 51-18 65-41L20-190h51L89-44l73-146h53" id="ap"/><path fill="#fff" d="M161-211c-63 0-91 46-91 110 0 39 17 65 58 64 38-1 60-20 74-45l40 20C220-23 184 0 125 4 9 13-10-144 57-208c33-50 166-62 196-1 4 8 9 18 11 27l-48 12c-6-24-25-41-55-41" id="aq"/><path fill="#fff" d="M124-194c51 0 84 22 84 74C207-44 167 4 94 4 43 4 11-23 11-74c0-74 41-120 113-120zM99-30c46 0 58-42 58-86 0-27-11-44-37-44-44 0-55 40-57 84-1 27 10 45 36 46" id="ar"/><path fill="#fff" d="M114-194c63-2 87 48 72 110H63c-3 28 1 55 31 54 21-1 32-13 37-29l44 13C160-14 137 4 91 4 41 4 11-22 11-73c0-71 33-119 103-121zm30 77c14-47-50-61-67-22-3 6-6 13-8 22h75" id="as"/><path fill="#fff" d="M93-157L62 0H13l31-157H16l6-33h28c2-54 40-81 100-68l-6 32c-29-8-44 9-45 36h38l-7 33H93" id="at"/><path fill="#fff" d="M151-194c95 0 34 128 28 194h-49l25-134c0-29-45-25-59-9C67-111 69-48 56 0H6l36-190h47l-4 32c15-20 33-36 66-36" id="au"/><path fill="#fff" d="M144-137c-1-29-70-35-71-2 16 41 103 10 103 80C176 9 79 16 32-9 18-17 9-31 4-48l44-6c3 32 80 36 82 1-15-42-103-11-103-82 0-77 157-79 161-8" id="av"/><path fill="#fff" d="M13-52c0-97 37-163 91-209h50c-53 52-92 115-92 212 0 48 8 90 25 124H39C22 40 13-2 13-52" id="aw"/><path fill="#fff" d="M127 0L95-67 37 0h-53l89-99-49-91h52l30 61 52-61h54l-85 92 52 98h-52" id="ax"/><path fill="#fff" d="M69-54C61-12 54 32 29 56H-4C11 41 25 23 31 0H8l10-54h51" id="ay"/><g id="l"><use transform="matrix(0.05,0,0,0.05,0,0)" xlink:href="#ak"/><use transform="matrix(0.05,0,0,0.05,12.950000000000001,0)" xlink:href="#al"/><use transform="matrix(0.05,0,0,0.05,22.950000000000003,0)" xlink:href="#am"/><use transform="matrix(0.05,0,0,0.05,28.900000000000002,0)" xlink:href="#an"/><use transform="matrix(0.05,0,0,0.05,33.900000000000006,0)" xlink:href="#ao"/><use transform="matrix(0.05,0,0,0.05,43.900000000000006,0)" xlink:href="#an"/><use transform="matrix(0.05,0,0,0.05,48.900000000000006,0)" xlink:href="#am"/><use transform="matrix(0.05,0,0,0.05,54.85,0)" xlink:href="#ap"/><use transform="matrix(0.05,0,0,0.05,64.85000000000001,0)" xlink:href="#aq"/><use transform="matrix(0.05,0,0,0.05,77.80000000000001,0)" xlink:href="#ar"/><use transform="matrix(0.05,0,0,0.05,88.75000000000001,0)" xlink:href="#as"/><use transform="matrix(0.05,0,0,0.05,98.75000000000001,0)" xlink:href="#at"/><use transform="matrix(0.05,0,0,0.05,104.35000000000002,0)" xlink:href="#at"/><use transform="matrix(0.05,0,0,0.05,110.30000000000003,0)" xlink:href="#an"/><use transform="matrix(0.05,0,0,0.05,115.30000000000003,0)" xlink:href="#al"/><use transform="matrix(0.05,0,0,0.05,125.30000000000003,0)" xlink:href="#an"/><use transform="matrix(0.05,0,0,0.05,130.3,0)" xlink:href="#as"/><use transform="matrix(0.05,0,0,0.05,140.3,0)" xlink:href="#au"/><use transform="matrix(0.05,0,0,0.05,151.25,0)" xlink:href="#am"/><use transform="matrix(0.05,0,0,0.05,157.2,0)" xlink:href="#av"/><use transform="matrix(0.05,0,0,0.05,167.2,0)" xlink:href="#aw"/><use transform="matrix(0.05,0,0,0.05,173.14999999999998,0)" xlink:href="#ax"/><use transform="matrix(0.05,0,0,0.05,183.14999999999998,0)" xlink:href="#ay"/></g><path fill="#fff" d="M157-208L117 0H65l40-208H25l8-40h212l-8 40h-80" id="az"/><path fill="#fff" d="M109-139C109-39 71 27 18 75h-50C22 21 61-44 61-142c0-46-11-87-27-119h47c17 31 28 75 28 122" id="aA"/><g id="m"><use transform="matrix(0.05,0,0,0.05,0,0)" xlink:href="#az"/><use transform="matrix(0.05,0,0,0.05,10.950000000000001,0)" xlink:href="#aA"/></g><path fill="#fff" d="M98-208l-15 77h118l-8 40H76L58 0H6l48-248h174l-8 40H98" id="aB"/><path fill="#fff" d="M69 3c-96 0-34-126-28-193h49L65-57c6 42 62 18 71-6 14-38 17-86 28-127h50L178 0h-47c0-11 4-26 3-33-14 20-30 37-65 36" id="aC"/><path fill="#fff" d="M45-171c29-32 103-29 114 14 2-11 5-23 8-33h47L176-2c-3 70-92 96-155 64C9 56 1 42-1 25l50-5c2 28 48 27 63 11 13-13 20-45 21-66-13 20-30 35-62 36-87 3-60-134-26-172zM94-35c41-3 55-43 55-86 0-24-12-39-35-39-43 0-51 48-51 90 0 22 9 37 31 35" id="aD"/><path fill="#fff" d="M166-52c-4 17 5 29 24 23l-3 27c-30 11-74 1-67-34C105-15 91 4 56 4 23 4 3-15 2-49c0-64 63-67 128-67 10-22 3-53-29-45-13 3-22 10-25 24l-46-5c5-64 156-77 153 0-1 33-11 60-17 90zM97-88c-44-9-64 57-19 57 31 0 42-28 47-57H97" id="aE"/><g id="n"><use transform="matrix(0.05,0,0,0.05,0,0)" xlink:href="#aB"/><use transform="matrix(0.05,0,0,0.05,10.950000000000001,0)" xlink:href="#aC"/><use transform="matrix(0.05,0,0,0.05,21.900000000000002,0)" xlink:href="#aD"/><use transform="matrix(0.05,0,0,0.05,32.85,0)" xlink:href="#aE"/><use transform="matrix(0.05,0,0,0.05,42.85,0)" xlink:href="#al"/><use transform="matrix(0.05,0,0,0.05,52.85,0)" xlink:href="#an"/><use transform="matrix(0.05,0,0,0.05,57.85,0)" xlink:href="#am"/><use transform="matrix(0.05,0,0,0.05,63.800000000000004,0)" xlink:href="#ap"/><use transform="matrix(0.05,0,0,0.05,73.80000000000001,0)" xlink:href="#aq"/><use transform="matrix(0.05,0,0,0.05,86.75000000000001,0)" xlink:href="#ar"/><use transform="matrix(0.05,0,0,0.05,97.70000000000002,0)" xlink:href="#as"/><use transform="matrix(0.05,0,0,0.05,107.7,0)" xlink:href="#at"/><use transform="matrix(0.05,0,0,0.05,113.30000000000003,0)" xlink:href="#at"/><use transform="matrix(0.05,0,0,0.05,119.25000000000003,0)" xlink:href="#an"/><use transform="matrix(0.05,0,0,0.05,124.25000000000003,0)" xlink:href="#al"/><use transform="matrix(0.05,0,0,0.05,134.25000000000003,0)" xlink:href="#an"/><use transform="matrix(0.05,0,0,0.05,139.25000000000003,0)" xlink:href="#as"/><use transform="matrix(0.05,0,0,0.05,149.25000000000003,0)" xlink:href="#au"/><use transform="matrix(0.05,0,0,0.05,160.20000000000002,0)" xlink:href="#am"/><use transform="matrix(0.05,0,0,0.05,166.15,0)" xlink:href="#av"/><use transform="matrix(0.05,0,0,0.05,176.15,0)" xlink:href="#aw"/><use transform="matrix(0.05,0,0,0.05,182.1,0)" xlink:href="#ap"/><use transform="matrix(0.05,0,0,0.05,191.45,0)" xlink:href="#ay"/></g><g id="o"><use transform="matrix(0.05,0,0,0.05,0,0)" xlink:href="#az"/><use transform="matrix(0.05,0,0,0.05,9.600000000000001,0)" xlink:href="#ay"/></g><path fill="#fff" d="M241-173c-1 82-78 91-166 86L58 0H6l48-248c87 0 188-12 187 75zm-53 2c0-43-48-36-90-36l-15 80c50 0 105 7 105-44" id="aF"/><g id="p"><use transform="matrix(0.05,0,0,0.05,0,0)" xlink:href="#aF"/><use transform="matrix(0.05,0,0,0.05,12,0)" xlink:href="#aA"/></g><path fill="#fff" d="M84-151c13-25 34-51 72-40l-8 41C67-170 71-64 56 0H6l36-190h47" id="aG"/><g id="q"><use transform="matrix(0.05,0,0,0.05,0,0)" xlink:href="#aF"/><use transform="matrix(0.05,0,0,0.05,12,0)" xlink:href="#ar"/><use transform="matrix(0.05,0,0,0.05,22.950000000000003,0)" xlink:href="#ap"/><use transform="matrix(0.05,0,0,0.05,32.95,0)" xlink:href="#an"/><use transform="matrix(0.05,0,0,0.05,37.95,0)" xlink:href="#au"/><use transform="matrix(0.05,0,0,0.05,48.900000000000006,0)" xlink:href="#am"/><use transform="matrix(0.05,0,0,0.05,54.85,0)" xlink:href="#an"/><use transform="matrix(0.05,0,0,0.05,59.85,0)" xlink:href="#au"/><use transform="matrix(0.05,0,0,0.05,70.80000000000001,0)" xlink:href="#aD"/><use transform="matrix(0.05,0,0,0.05,81.75000000000001,0)" xlink:href="#aq"/><use transform="matrix(0.05,0,0,0.05,94.70000000000002,0)" xlink:href="#ar"/><use transform="matrix(0.05,0,0,0.05,105.65000000000003,0)" xlink:href="#aG"/><use transform="matrix(0.05,0,0,0.05,112.65000000000003,0)" xlink:href="#aG"/><use transform="matrix(0.05,0,0,0.05,119.65000000000003,0)" xlink:href="#as"/><use transform="matrix(0.05,0,0,0.05,129.65000000000003,0)" xlink:href="#al"/><use transform="matrix(0.05,0,0,0.05,139.65000000000003,0)" xlink:href="#am"/><use transform="matrix(0.05,0,0,0.05,145.60000000000002,0)" xlink:href="#an"/><use transform="matrix(0.05,0,0,0.05,150.60000000000002,0)" xlink:href="#ar"/><use transform="matrix(0.05,0,0,0.05,161.55,0)" xlink:href="#au"/><use transform="matrix(0.05,0,0,0.05,172.5,0)" xlink:href="#aB"/><use transform="matrix(0.05,0,0,0.05,183.45,0)" xlink:href="#aE"/><use transform="matrix(0.05,0,0,0.05,193.45,0)" xlink:href="#al"/><use transform="matrix(0.05,0,0,0.05,203.45,0)" xlink:href="#am"/><use transform="matrix(0.05,0,0,0.05,209.39999999999998,0)" xlink:href="#ar"/><use transform="matrix(0.05,0,0,0.05,220.34999999999997,0)" xlink:href="#aG"/><use transform="matrix(0.05,0,0,0.05,227.34999999999997,0)" xlink:href="#av"/><use transform="matrix(0.05,0,0,0.05,237.34999999999997,0)" xlink:href="#aw"/><use transform="matrix(0.05,0,0,0.05,243.29999999999995,0)" xlink:href="#ap"/><use transform="matrix(0.05,0,0,0.05,252.64999999999998,0)" xlink:href="#ay"/></g><path fill="#fff" d="M169-182c-1-43-94-46-97-3 18 66 151 10 154 114 3 95-165 93-204 36-6-8-10-19-12-30l50-8c3 46 112 56 116 5-17-69-150-10-154-114-4-87 153-88 188-35 5 8 8 18 10 28" id="aH"/><g id="r"><use transform="matrix(0.05,0,0,0.05,0,0)" xlink:href="#aH"/><use transform="matrix(0.05,0,0,0.05,12,0)" xlink:href="#af"/><use transform="matrix(0.05,0,0,0.05,17.95,0)" xlink:href="#Q"/><use transform="matrix(0.05,0,0,0.05,24.95,0)" xlink:href="#I"/><use transform="matrix(0.05,0,0,0.05,34.95,0)" xlink:href="#M"/><use transform="matrix(0.05,0,0,0.05,44.95,0)" xlink:href="#J"/></g><path fill="#fff" d="M230 0l2-204L168 0h-37L68-204 70 0H24v-248h70l56 185 57-185h69V0h-46" id="aI"/><path fill="#fff" d="M144 0l-44-69L55 0H2l70-98-66-92h53l41 62 40-62h54l-67 91 71 99h-54" id="aJ"/><g id="s"><use transform="matrix(0.05,0,0,0.05,0,0)" xlink:href="#aI"/><use transform="matrix(0.05,0,0,0.05,14.950000000000001,0)" xlink:href="#K"/><use transform="matrix(0.05,0,0,0.05,19.950000000000003,0)" xlink:href="#aJ"/><use transform="matrix(0.05,0,0,0.05,29.950000000000003,0)" xlink:href="#af"/><use transform="matrix(0.05,0,0,0.05,35.900000000000006,0)" xlink:href="#ai"/><use transform="matrix(0.05,0,0,0.05,46.85000000000001,0)" xlink:href="#Q"/><use transform="matrix(0.05,0,0,0.05,53.85,0)" xlink:href="#I"/></g><path fill="#fff" d="M150-105c8-23 8-54-22-51-68 7-54 98-72 156H6l50-261h50L85-158c15-20 33-36 66-36 95 0 34 128 28 194h-49" id="aK"/><path fill="#fff" d="M156-122c2-23-7-37-28-37-47 0-58 44-58 89 0 24 12 40 36 40 43 0 47-49 50-92zM-8 75l50-265h48c0 10-3 24-3 30 22-50 127-45 121 29-6 73-21 135-92 135-29 0-46-14-55-35L41 75H-8" id="aL"/><g id="t"><use transform="matrix(0.05,0,0,0.05,0,0)" xlink:href="#aF"/><use transform="matrix(0.05,0,0,0.05,12,0)" xlink:href="#aK"/><use transform="matrix(0.05,0,0,0.05,22.950000000000003,0)" xlink:href="#aE"/><use transform="matrix(0.05,0,0,0.05,32.95,0)" xlink:href="#av"/><use transform="matrix(0.05,0,0,0.05,42.95,0)" xlink:href="#as"/><use transform="matrix(0.05,0,0,0.05,52.95,0)" xlink:href="#az"/><use transform="matrix(0.05,0,0,0.05,63.900000000000006,0)" xlink:href="#aF"/><use transform="matrix(0.05,0,0,0.05,75.9,0)" xlink:href="#aG"/><use transform="matrix(0.05,0,0,0.05,82.9,0)" xlink:href="#ar"/><use transform="matrix(0.05,0,0,0.05,93.85000000000001,0)" xlink:href="#aL"/><use transform="matrix(0.05,0,0,0.05,104.80000000000001,0)" xlink:href="#as"/><use transform="matrix(0.05,0,0,0.05,114.80000000000001,0)" xlink:href="#aG"/><use transform="matrix(0.05,0,0,0.05,121.80000000000001,0)" xlink:href="#am"/><use transform="matrix(0.05,0,0,0.05,127.75,0)" xlink:href="#ap"/><use transform="matrix(0.05,0,0,0.05,137.75,0)" xlink:href="#aw"/><use transform="matrix(0.05,0,0,0.05,143.7,0)" xlink:href="#aL"/><use transform="matrix(0.05,0,0,0.05,154.64999999999998,0)" xlink:href="#aK"/><use transform="matrix(0.05,0,0,0.05,165.59999999999997,0)" xlink:href="#aE"/><use transform="matrix(0.05,0,0,0.05,175.59999999999997,0)" xlink:href="#av"/><use transform="matrix(0.05,0,0,0.05,185.59999999999997,0)" xlink:href="#as"/><use transform="matrix(0.05,0,0,0.05,195.59999999999997,0)" xlink:href="#ay"/></g><g id="u"><use transform="matrix(0.05,0,0,0.05,0,0)" xlink:href="#az"/><use transform="matrix(0.05,0,0,0.05,10.950000000000001,0)" xlink:href="#aA"/></g><g id="v"><use transform="matrix(0.05,0,0,0.05,0,0)" xlink:href="#aF"/><use transform="matrix(0.05,0,0,0.05,12,0)" xlink:href="#aK"/><use transform="matrix(0.05,0,0,0.05,22.950000000000003,0)" xlink:href="#aE"/><use transform="matrix(0.05,0,0,0.05,32.95,0)" xlink:href="#av"/><use transform="matrix(0.05,0,0,0.05,42.95,0)" xlink:href="#as"/><use transform="matrix(0.05,0,0,0.05,52.95,0)" xlink:href="#az"/><use transform="matrix(0.05,0,0,0.05,63.900000000000006,0)" xlink:href="#aF"/><use transform="matrix(0.05,0,0,0.05,75.9,0)" xlink:href="#aF"/><use transform="matrix(0.05,0,0,0.05,87.9,0)" xlink:href="#aG"/><use transform="matrix(0.05,0,0,0.05,94.9,0)" xlink:href="#ar"/><use transform="matrix(0.05,0,0,0.05,105.85000000000001,0)" xlink:href="#aL"/><use transform="matrix(0.05,0,0,0.05,116.80000000000001,0)" xlink:href="#as"/><use transform="matrix(0.05,0,0,0.05,126.80000000000001,0)" xlink:href="#aG"/><use transform="matrix(0.05,0,0,0.05,133.8,0)" xlink:href="#am"/><use transform="matrix(0.05,0,0,0.05,139.75,0)" xlink:href="#ap"/><use transform="matrix(0.05,0,0,0.05,149.75,0)" xlink:href="#aw"/><use transform="matrix(0.05,0,0,0.05,155.7,0)" xlink:href="#aL"/><use transform="matrix(0.05,0,0,0.05,166.64999999999998,0)" xlink:href="#aK"/><use transform="matrix(0.05,0,0,0.05,177.59999999999997,0)" xlink:href="#aE"/><use transform="matrix(0.05,0,0,0.05,187.59999999999997,0)" xlink:href="#av"/><use transform="matrix(0.05,0,0,0.05,197.59999999999997,0)" xlink:href="#as"/><use transform="matrix(0.05,0,0,0.05,207.59999999999997,0)" xlink:href="#ay"/></g><path fill="#3a4551" d="M205 0l-28-72H64L36 0H1l101-248h38L239 0h-34zm-38-99l-47-123c-12 45-31 82-46 123h93" id="aM"/><path fill="#3a4551" d="M177-190C167-65 218 103 67 71c-23-6-38-20-44-43l32-5c15 47 100 32 89-28v-30C133-14 115 1 83 1 29 1 15-40 15-95c0-56 16-97 71-98 29-1 48 16 59 35 1-10 0-23 2-32h30zM94-22c36 0 50-32 50-73 0-42-14-75-50-75-39 0-46 34-46 75s6 73 46 73" id="aN"/><path fill="#3a4551" d="M114-163C36-179 61-72 57 0H25l-1-190h30c1 12-1 29 2 39 6-27 23-49 58-41v29" id="aO"/><path fill="#3a4551" d="M100-194c63 0 86 42 84 106H49c0 40 14 67 53 68 26 1 43-12 49-29l28 8c-11 28-37 45-77 45C44 4 14-33 15-96c1-61 26-98 85-98zm52 81c6-60-76-77-97-28-3 7-6 17-6 28h103" id="aP"/><path fill="#3a4551" d="M141-36C126-15 110 5 73 4 37 3 15-17 15-53c-1-64 63-63 125-63 3-35-9-54-41-54-24 1-41 7-42 31l-33-3c5-37 33-52 76-52 45 0 72 20 72 64v82c-1 20 7 32 28 27v20c-31 9-61-2-59-35zM48-53c0 20 12 33 32 33 41-3 63-29 60-74-43 2-92-5-92 41" id="aQ"/><path fill="#3a4551" d="M59-47c-2 24 18 29 38 22v24C64 9 27 4 27-40v-127H5v-23h24l9-43h21v43h35v23H59v120" id="aR"/><path fill="#3a4551" d="M24-231v-30h32v30H24zM24 0v-190h32V0H24" id="aS"/><path fill="#3a4551" d="M100-194c62-1 85 37 85 99 1 63-27 99-86 99S16-35 15-95c0-66 28-99 85-99zM99-20c44 1 53-31 53-75 0-43-8-75-51-75s-53 32-53 75 10 74 51 75" id="aT"/><path fill="#3a4551" d="M117-194c89-4 53 116 60 194h-32v-121c0-31-8-49-39-48C34-167 62-67 57 0H25l-1-190h30c1 10-1 24 2 32 11-22 29-35 61-36" id="aU"/><g id="w"><use transform="matrix(0.06172839506172839,0,0,0.06172839506172839,0,0)" xlink:href="#aM"/><use transform="matrix(0.06172839506172839,0,0,0.06172839506172839,14.814814814814813,0)" xlink:href="#aN"/><use transform="matrix(0.06172839506172839,0,0,0.06172839506172839,27.160493827160494,0)" xlink:href="#aN"/><use transform="matrix(0.06172839506172839,0,0,0.06172839506172839,39.50617283950617,0)" xlink:href="#aO"/><use transform="matrix(0.06172839506172839,0,0,0.06172839506172839,46.85185185185185,0)" xlink:href="#aP"/><use transform="matrix(0.06172839506172839,0,0,0.06172839506172839,59.197530864197525,0)" xlink:href="#aN"/><use transform="matrix(0.06172839506172839,0,0,0.06172839506172839,71.5432098765432,0)" xlink:href="#aQ"/><use transform="matrix(0.06172839506172839,0,0,0.06172839506172839,83.88888888888889,0)" xlink:href="#aR"/><use transform="matrix(0.06172839506172839,0,0,0.06172839506172839,90.06172839506172,0)" xlink:href="#aS"/><use transform="matrix(0.06172839506172839,0,0,0.06172839506172839,94.93827160493827,0)" xlink:href="#aT"/><use transform="matrix(0.06172839506172839,0,0,0.06172839506172839,107.28395061728395,0)" xlink:href="#aU"/></g><path fill="#3a4551" d="M212-179c-10-28-35-45-73-45-59 0-87 40-87 99 0 60 29 101 89 101 43 0 62-24 78-52l27 14C228-24 195 4 139 4 59 4 22-46 18-125c-6-104 99-153 187-111 19 9 31 26 39 46" id="aV"/><path fill="#3a4551" d="M210-169c-67 3-38 105-44 169h-31v-121c0-29-5-50-35-48C34-165 62-65 56 0H25l-1-190h30c1 10-1 24 2 32 10-44 99-50 107 0 11-21 27-35 58-36 85-2 47 119 55 194h-31v-121c0-29-5-49-35-48" id="aW"/><path fill="#3a4551" d="M115-194c55 1 70 41 70 98S169 2 115 4C84 4 66-9 55-30l1 105H24l-1-265h31l2 30c10-21 28-34 59-34zm-8 174c40 0 45-34 45-75s-6-73-45-74c-42 0-51 32-51 76 0 43 10 73 51 73" id="aX"/><path fill="#3a4551" d="M135-143c-3-34-86-38-87 0 15 53 115 12 119 90S17 21 10-45l28-5c4 36 97 45 98 0-10-56-113-15-118-90-4-57 82-63 122-42 12 7 21 19 24 35" id="aY"/><g id="x"><use transform="matrix(0.06172839506172839,0,0,0.06172839506172839,0,0)" xlink:href="#aV"/><use transform="matrix(0.06172839506172839,0,0,0.06172839506172839,15.987654320987653,0)" xlink:href="#aT"/><use transform="matrix(0.06172839506172839,0,0,0.06172839506172839,28.333333333333332,0)" xlink:href="#aW"/><use transform="matrix(0.06172839506172839,0,0,0.06172839506172839,46.79012345679012,0)" xlink:href="#aX"/><use transform="matrix(0.06172839506172839,0,0,0.06172839506172839,59.1358024691358,0)" xlink:href="#aT"/><use transform="matrix(0.06172839506172839,0,0,0.06172839506172839,71.48148148148148,0)" xlink:href="#aY"/><use transform="matrix(0.06172839506172839,0,0,0.06172839506172839,82.5925925925926,0)" xlink:href="#aS"/><use transform="matrix(0.06172839506172839,0,0,0.06172839506172839,87.46913580246914,0)" xlink:href="#aR"/><use transform="matrix(0.06172839506172839,0,0,0.06172839506172839,93.64197530864197,0)" xlink:href="#aS"/><use transform="matrix(0.06172839506172839,0,0,0.06172839506172839,98.51851851851852,0)" xlink:href="#aT"/><use transform="matrix(0.06172839506172839,0,0,0.06172839506172839,110.8641975308642,0)" xlink:href="#aU"/></g><path fill="#3a4551" d="M233-177c-1 41-23 64-60 70L243 0h-38l-65-103H63V0H30v-248c88 3 205-21 203 71zM63-129c60-2 137 13 137-47 0-61-80-42-137-45v92" id="aZ"/><path fill="#3a4551" d="M24 0v-261h32V0H24" id="ba"/><path fill="#3a4551" d="M106-169C34-169 62-67 57 0H25v-261h32l-1 103c12-21 28-36 61-36 89 0 53 116 60 194h-32v-121c2-32-8-49-39-48" id="bb"/><g id="y"><use transform="matrix(0.06172839506172839,0,0,0.06172839506172839,0,0)" xlink:href="#aZ"/><use transform="matrix(0.06172839506172839,0,0,0.06172839506172839,15.987654320987653,0)" xlink:href="#aP"/><use transform="matrix(0.06172839506172839,0,0,0.06172839506172839,28.333333333333332,0)" xlink:href="#ba"/><use transform="matrix(0.06172839506172839,0,0,0.06172839506172839,33.20987654320987,0)" xlink:href="#aQ"/><use transform="matrix(0.06172839506172839,0,0,0.06172839506172839,45.55555555555555,0)" xlink:href="#aR"/><use transform="matrix(0.06172839506172839,0,0,0.06172839506172839,51.72839506172839,0)" xlink:href="#aS"/><use transform="matrix(0.06172839506172839,0,0,0.06172839506172839,56.60493827160494,0)" xlink:href="#aT"/><use transform="matrix(0.06172839506172839,0,0,0.06172839506172839,68.95061728395062,0)" xlink:href="#aU"/><use transform="matrix(0.06172839506172839,0,0,0.06172839506172839,81.2962962962963,0)" xlink:href="#aY"/><use transform="matrix(0.06172839506172839,0,0,0.06172839506172839,92.40740740740742,0)" xlink:href="#bb"/><use transform="matrix(0.06172839506172839,0,0,0.06172839506172839,104.7530864197531,0)" xlink:href="#aS"/><use transform="matrix(0.06172839506172839,0,0,0.06172839506172839,109.62962962962965,0)" xlink:href="#aX"/></g><path fill="#fff" d="M250-142C247-53 197 0 108 0H6l48-248c105-5 200 3 196 106zm-49 2c1-57-42-72-103-68L66-40c84 6 135-22 135-100" id="bc"/><path fill="#fff" d="M132-28C118-9 101 4 69 4 30 4 10-23 10-62c0-70 24-129 92-132 31-1 47 14 56 35l19-102h49L179 0h-49zM62-69c0 22 7 39 29 39 45-2 54-45 57-90 2-27-10-40-33-40-44 0-53 48-53 91" id="bd"/><g id="z"><use transform="matrix(0.05,0,0,0.05,0,0)" xlink:href="#az"/><use transform="matrix(0.05,0,0,0.05,10.950000000000001,0)" xlink:href="#bc"/><use transform="matrix(0.05,0,0,0.05,23.900000000000002,0)" xlink:href="#as"/><use transform="matrix(0.05,0,0,0.05,33.900000000000006,0)" xlink:href="#aL"/><use transform="matrix(0.05,0,0,0.05,44.85000000000001,0)" xlink:href="#as"/><use transform="matrix(0.05,0,0,0.05,54.85,0)" xlink:href="#au"/><use transform="matrix(0.05,0,0,0.05,65.80000000000001,0)" xlink:href="#bd"/><use transform="matrix(0.05,0,0,0.05,76.75000000000001,0)" xlink:href="#as"/><use transform="matrix(0.05,0,0,0.05,86.75000000000001,0)" xlink:href="#au"/><use transform="matrix(0.05,0,0,0.05,97.70000000000002,0)" xlink:href="#am"/><use transform="matrix(0.05,0,0,0.05,103.65000000000003,0)" xlink:href="#aF"/><use transform="matrix(0.05,0,0,0.05,115.65000000000003,0)" xlink:href="#aG"/><use transform="matrix(0.05,0,0,0.05,122.65000000000003,0)" xlink:href="#ar"/><use transform="matrix(0.05,0,0,0.05,133.60000000000002,0)" xlink:href="#aL"/><use transform="matrix(0.05,0,0,0.05,144.55,0)" xlink:href="#as"/><use transform="matrix(0.05,0,0,0.05,154.55,0)" xlink:href="#aG"/><use transform="matrix(0.05,0,0,0.05,161.55,0)" xlink:href="#am"/><use transform="matrix(0.05,0,0,0.05,167.5,0)" xlink:href="#ap"/><use transform="matrix(0.05,0,0,0.05,177.5,0)" xlink:href="#aw"/><use transform="matrix(0.05,0,0,0.05,183.45,0)" xlink:href="#az"/><use transform="matrix(0.05,0,0,0.05,194.39999999999998,0)" xlink:href="#aA"/></g><g id="A"><use transform="matrix(0.05,0,0,0.05,0,0)" xlink:href="#az"/><use transform="matrix(0.05,0,0,0.05,10.950000000000001,0)" xlink:href="#aF"/><use transform="matrix(0.05,0,0,0.05,22.950000000000003,0)" xlink:href="#bc"/><use transform="matrix(0.05,0,0,0.05,35.900000000000006,0)" xlink:href="#as"/><use transform="matrix(0.05,0,0,0.05,45.900000000000006,0)" xlink:href="#aL"/><use transform="matrix(0.05,0,0,0.05,56.85,0)" xlink:href="#as"/><use transform="matrix(0.05,0,0,0.05,66.85000000000001,0)" xlink:href="#au"/><use transform="matrix(0.05,0,0,0.05,77.80000000000001,0)" xlink:href="#bd"/><use transform="matrix(0.05,0,0,0.05,88.75000000000001,0)" xlink:href="#as"/><use transform="matrix(0.05,0,0,0.05,98.75000000000001,0)" xlink:href="#au"/><use transform="matrix(0.05,0,0,0.05,109.7,0)" xlink:href="#am"/><use transform="matrix(0.05,0,0,0.05,115.65000000000003,0)" xlink:href="#aF"/><use transform="matrix(0.05,0,0,0.05,127.65000000000003,0)" xlink:href="#aG"/><use transform="matrix(0.05,0,0,0.05,134.65000000000003,0)" xlink:href="#ar"/><use transform="matrix(0.05,0,0,0.05,145.60000000000002,0)" xlink:href="#aL"/><use transform="matrix(0.05,0,0,0.05,156.55,0)" xlink:href="#as"/><use transform="matrix(0.05,0,0,0.05,166.55,0)" xlink:href="#aG"/><use transform="matrix(0.05,0,0,0.05,173.55,0)" xlink:href="#am"/><use transform="matrix(0.05,0,0,0.05,179.5,0)" xlink:href="#ap"/><use transform="matrix(0.05,0,0,0.05,189.5,0)" xlink:href="#aw"/><use transform="matrix(0.05,0,0,0.05,195.45,0)" xlink:href="#az"/><use transform="matrix(0.05,0,0,0.05,205.04999999999995,0)" xlink:href="#ay"/></g><g id="B"><use transform="matrix(0.05,0,0,0.05,0,0)" xlink:href="#aF"/><use transform="matrix(0.05,0,0,0.05,12,0)" xlink:href="#aA"/></g><path fill="#f98f60" d="M24 0v-248h195v40H76v63h132v40H76v65h150V0H24" id="be"/><path fill="#f98f60" d="M84 4C32 4 15-41 15-95c0-55 18-99 73-99 29 0 47 12 58 34l2-30h48l-1 265h-49V-32C136-9 114 4 84 4zm21-34c32 0 41-29 41-66 0-36-9-64-40-64-33 0-39 30-40 65 0 43 13 65 39 65" id="bf"/><path fill="#f98f60" d="M85 4C-2 5 27-109 22-190h50c7 57-23 150 33 157 60-5 35-97 40-157h50l1 190h-47c-2-12 1-28-3-38-12 25-28 42-61 42" id="bg"/><path fill="#f98f60" d="M25-224v-37h50v37H25zM25 0v-190h50V0H25" id="bh"/><path fill="#f98f60" d="M25 0v-261h50V0H25" id="bi"/><path fill="#f98f60" d="M135-194c52 0 70 43 70 98 0 56-19 99-73 100-30 1-46-15-58-35L72 0H24l1-261h50v104c11-23 29-37 60-37zM114-30c31 0 40-27 40-66 0-37-7-63-39-63s-41 28-41 65c0 36 8 64 40 64" id="bj"/><path fill="#f98f60" d="M135-150c-39-12-60 13-60 57V0H25l-1-190h47c2 13-1 29 3 40 6-28 27-53 61-41v41" id="bk"/><path fill="#f98f60" d="M220-157c-53 9-28 100-34 157h-49v-107c1-27-5-49-29-50C55-147 81-57 75 0H25l-1-190h47c2 12-1 28 3 38 10-53 101-56 108 0 13-22 24-43 59-42 82 1 51 116 57 194h-49v-107c-1-25-5-48-29-50" id="bl"/><g id="C"><use transform="matrix(0.08641975308641973,0,0,0.08641975308641973,0,0)" xlink:href="#be"/><use transform="matrix(0.08641975308641973,0,0,0.08641975308641973,20.740740740740737,0)" xlink:href="#bf"/><use transform="matrix(0.08641975308641973,0,0,0.08641975308641973,39.66666666666666,0)" xlink:href="#bg"/><use transform="matrix(0.08641975308641973,0,0,0.08641975308641973,58.59259259259258,0)" xlink:href="#bh"/><use transform="matrix(0.08641975308641973,0,0,0.08641975308641973,67.23456790123456,0)" xlink:href="#bi"/><use transform="matrix(0.08641975308641973,0,0,0.08641975308641973,75.87654320987653,0)" xlink:href="#bh"/><use transform="matrix(0.08641975308641973,0,0,0.08641975308641973,84.5185185185185,0)" xlink:href="#bj"/><use transform="matrix(0.08641975308641973,0,0,0.08641975308641973,103.44444444444443,0)" xlink:href="#bk"/><use transform="matrix(0.08641975308641973,0,0,0.08641975308641973,115.54320987654319,0)" xlink:href="#bh"/><use transform="matrix(0.08641975308641973,0,0,0.08641975308641973,124.18518518518516,0)" xlink:href="#bg"/><use transform="matrix(0.08641975308641973,0,0,0.08641975308641973,143.1111111111111,0)" xlink:href="#bl"/></g><path fill="#7ac083" d="M24-248c120-7 223 5 221 122C244-46 201 0 124 0H24v-248zM76-40c74 7 117-18 117-86 0-67-45-88-117-82v168" id="bm"/><path fill="#7ac083" d="M133-34C117-15 103 5 69 4 32 3 11-16 11-54c-1-60 55-63 116-61 1-26-3-47-28-47-18 1-26 9-28 27l-52-2c7-38 36-58 82-57s74 22 75 68l1 82c-1 14 12 18 25 15v27c-30 8-71 5-69-32zm-48 3c29 0 43-24 42-57-32 0-66-3-65 30 0 17 8 27 23 27" id="bn"/><path fill="#7ac083" d="M115-3C79 11 28 4 28-45v-112H4v-33h27l15-45h31v45h36v33H77v99c-1 23 16 31 38 25v30" id="bo"/><g id="D"><use transform="matrix(0.08641975308641973,0,0,0.08641975308641973,0,0)" xlink:href="#bm"/><use transform="matrix(0.08641975308641973,0,0,0.08641975308641973,22.38271604938271,0)" xlink:href="#bn"/><use transform="matrix(0.08641975308641973,0,0,0.08641975308641973,39.66666666666666,0)" xlink:href="#bo"/><use transform="matrix(0.08641975308641973,0,0,0.08641975308641973,49.950617283950606,0)" xlink:href="#bn"/></g><path fill="#ed5a6a" d="M24 0v-248h52V0H24" id="bp"/><path fill="#ed5a6a" d="M135-194c87-1 58 113 63 194h-50c-7-57 23-157-34-157-59 0-34 97-39 157H25l-1-190h47c2 12-1 28 3 38 12-26 28-41 61-42" id="bq"/><path fill="#ed5a6a" d="M115-3C79 11 28 4 28-45v-112H4v-33h27l15-45h31v45h36v33H77v99c-1 23 16 31 38 25v30" id="br"/><path fill="#ed5a6a" d="M185-48c-13 30-37 53-82 52C43 2 14-33 14-96s30-98 90-98c62 0 83 45 84 108H66c0 31 8 55 39 56 18 0 30-7 34-22zm-45-69c5-46-57-63-70-21-2 6-4 13-4 21h74" id="bs"/><path fill="#ed5a6a" d="M135-150c-39-12-60 13-60 57V0H25l-1-190h47c2 13-1 29 3 40 6-28 27-53 61-41v41" id="bt"/><path fill="#ed5a6a" d="M121-226c-27-7-43 5-38 36h38v33H83V0H34v-157H6v-33h28c-9-59 32-81 87-68v32" id="bu"/><path fill="#ed5a6a" d="M133-34C117-15 103 5 69 4 32 3 11-16 11-54c-1-60 55-63 116-61 1-26-3-47-28-47-18 1-26 9-28 27l-52-2c7-38 36-58 82-57s74 22 75 68l1 82c-1 14 12 18 25 15v27c-30 8-71 5-69-32zm-48 3c29 0 43-24 42-57-32 0-66-3-65 30 0 17 8 27 23 27" id="bv"/><path fill="#ed5a6a" d="M190-63c-7 42-38 67-86 67-59 0-84-38-90-98-12-110 154-137 174-36l-49 2c-2-19-15-32-35-32-30 0-35 28-38 64-6 74 65 87 74 30" id="bw"/><g id="E"><use transform="matrix(0.08641975308641973,0,0,0.08641975308641973,0,0)" xlink:href="#bp"/><use transform="matrix(0.08641975308641973,0,0,0.08641975308641973,8.641975308641973,0)" xlink:href="#bq"/><use transform="matrix(0.08641975308641973,0,0,0.08641975308641973,27.56790123456789,0)" xlink:href="#br"/><use transform="matrix(0.08641975308641973,0,0,0.08641975308641973,37.85185185185184,0)" xlink:href="#bs"/><use transform="matrix(0.08641975308641973,0,0,0.08641975308641973,55.13580246913578,0)" xlink:href="#bt"/><use transform="matrix(0.08641975308641973,0,0,0.08641975308641973,67.23456790123454,0)" xlink:href="#bu"/><use transform="matrix(0.08641975308641973,0,0,0.08641975308641973,77.51851851851849,0)" xlink:href="#bv"/><use transform="matrix(0.08641975308641973,0,0,0.08641975308641973,94.80246913580245,0)" xlink:href="#bw"/><use transform="matrix(0.08641975308641973,0,0,0.08641975308641973,112.08641975308639,0)" xlink:href="#bs"/></g><path fill="#60c1cf" d="M24-248c93 1 206-16 204 79-1 75-69 88-152 82V0H24v-248zm52 121c47 0 100 7 100-41 0-47-54-39-100-39v80" id="bx"/><path fill="#60c1cf" d="M135-150c-39-12-60 13-60 57V0H25l-1-190h47c2 13-1 29 3 40 6-28 27-53 61-41v41" id="by"/><path fill="#60c1cf" d="M110-194c64 0 96 36 96 99 0 64-35 99-97 99-61 0-95-36-95-99 0-62 34-99 96-99zm-1 164c35 0 45-28 45-65 0-40-10-65-43-65-34 0-45 26-45 65 0 36 10 65 43 65" id="bz"/><path fill="#60c1cf" d="M135-194c53 0 70 44 70 98 0 56-19 98-73 100-31 1-45-17-59-34 3 33 2 69 2 105H25l-1-265h48c2 10 0 23 3 31 11-24 29-35 60-35zM114-30c33 0 39-31 40-66 0-38-9-64-40-64-56 0-55 130 0 130" id="bA"/><path fill="#60c1cf" d="M185-48c-13 30-37 53-82 52C43 2 14-33 14-96s30-98 90-98c62 0 83 45 84 108H66c0 31 8 55 39 56 18 0 30-7 34-22zm-45-69c5-46-57-63-70-21-2 6-4 13-4 21h74" id="bB"/><path fill="#60c1cf" d="M115-3C79 11 28 4 28-45v-112H4v-33h27l15-45h31v45h36v33H77v99c-1 23 16 31 38 25v30" id="bC"/><path fill="#60c1cf" d="M25-224v-37h50v37H25zM25 0v-190h50V0H25" id="bD"/><path fill="#60c1cf" d="M137-138c1-29-70-34-71-4 15 46 118 7 119 86 1 83-164 76-172 9l43-7c4 19 20 25 44 25 33 8 57-30 24-41C81-84 22-81 20-136c-2-80 154-74 161-7" id="bE"/><g id="F"><use transform="matrix(0.08641975308641973,0,0,0.08641975308641973,0,0)" xlink:href="#bx"/><use transform="matrix(0.08641975308641973,0,0,0.08641975308641973,20.740740740740737,0)" xlink:href="#by"/><use transform="matrix(0.08641975308641973,0,0,0.08641975308641973,32.8395061728395,0)" xlink:href="#bz"/><use transform="matrix(0.08641975308641973,0,0,0.08641975308641973,51.76543209876541,0)" xlink:href="#bA"/><use transform="matrix(0.08641975308641973,0,0,0.08641975308641973,70.69135802469134,0)" xlink:href="#bB"/><use transform="matrix(0.08641975308641973,0,0,0.08641975308641973,87.97530864197529,0)" xlink:href="#by"/><use transform="matrix(0.08641975308641973,0,0,0.08641975308641973,100.07407407407405,0)" xlink:href="#bC"/><use transform="matrix(0.08641975308641973,0,0,0.08641975308641973,110.358024691358,0)" xlink:href="#bD"/><use transform="matrix(0.08641975308641973,0,0,0.08641975308641973,118.99999999999997,0)" xlink:href="#bB"/><use transform="matrix(0.08641975308641973,0,0,0.08641975308641973,136.28395061728392,0)" xlink:href="#bE"/></g></defs></g></svg>