<svg height="173pt" viewBox="0.00 0.00 338.00 173.00" width="338pt" xmlns="http://www.w3.org/2000/svg" xmlns:xlink="http://www.w3.org/1999/xlink">
<g class="graph" id="graph0" transform="scale(1 1) rotate(0) translate(4 169)">
<title>unit</title>
<polygon fill="white" points="-4,4 -4,-169 334,-169 334,4 -4,4" stroke="none"/>
<!-- F1
Flash&#45;&gt;vapor -->
<g class="edge" id="edge2"><title>F1
Flash:n-&gt;vapor:w</title>
<path d="M161,-123.5C161,-175.597 224.403,-143.5 276.5,-143.5" fill="none" stroke="black"/>
</g>
<!-- F1
Flash&#45;&gt;liquid -->
<g class="edge" id="edge3"><title>F1
Flash:s-&gt;liquid:w</title>
<path d="M161,-41.5C161,10.5972 224.403,-21.5 276.5,-21.5" fill="none" stroke="black"/>
</g>
<!-- s1&#45;&gt;F1
Flash -->
<g class="edge" id="edge1"><title>s1:e-&gt;F1
Flash:c</title>
<path d="M46.5,-82.5C72.806,-82.5 102.542,-82.5 124.976,-82.5" fill="none" stroke="black"/>
</g>
<!-- F1
Flash -->
<g class="node" id="node1"><title>F1
Flash</title>
<defs>
<linearGradient gradientUnits="userSpaceOnUse" id="l_0" x1="125" x2="197" y1="-82.5" y2="-82.5">
<stop offset="0" style="stop-color:white;stop-opacity:1.;"/>
<stop offset="1" style="stop-color:#cdcdcd;stop-opacity:1.;"/>
</linearGradient>
</defs>
<polygon fill="url(#l_0)" points="197,-122 125,-122 125,-43 197,-43 197,-122" stroke="black"/>
<text font-family="Times New Roman,serif" font-size="14.00" text-anchor="middle" x="161" y="-86.3">F1</text>
<text font-family="Times New Roman,serif" font-size="14.00" text-anchor="middle" x="161" y="-71.3">Flash</text>
</g>
<!-- s1 -->
<g class="node" id="node2"><title>s1</title>
<polygon fill="#79dae8" points="28.5,-98 3.5,-98 3.5,-67 28.5,-67 28.5,-61 46.5,-82.5 28.5,-104 28.5,-98" stroke="black"/>
<text font-family="Times New Roman,serif" font-size="14.00" text-anchor="middle" x="25" y="-78.8">s1</text>
</g>
<!-- vapor -->
<g class="node" id="node3"><title>vapor</title>
<polygon fill="#79dae8" points="307.5,-159 276.5,-159 276.5,-128 307.5,-128 307.5,-122 325.5,-143.5 307.5,-165 307.5,-159" stroke="black"/>
<text font-family="Times New Roman,serif" font-size="14.00" text-anchor="middle" x="301" y="-139.8">vapor</text>
</g>
<!-- liquid -->
<g class="node" id="node4"><title>liquid</title>
<polygon fill="#79dae8" points="306.5,-37 277.5,-37 277.5,-6 306.5,-6 306.5,-0 324.5,-21.5 306.5,-43 306.5,-37" stroke="black"/>
<text font-family="Times New Roman,serif" font-size="14.00" text-anchor="middle" x="301" y="-17.8">liquid</text>
</g>
</g>
</svg>