<svg height="173pt" viewBox="0.00 0.00 338.00 173.00" width="338pt" xmlns="http://www.w3.org/2000/svg" xmlns:xlink="http://www.w3.org/1999/xlink">
<g class="graph" id="graph0" transform="scale(1 1) rotate(0) translate(4 169)">
<title>unit</title>
<polygon fill="white" points="-4,4 -4,-169 334,-169 334,4 -4,4" stroke="none"/>
<!-- F1
Fermentation&#45;&gt;CO2 -->
<g class="edge" id="edge2"><title>F1
Fermentation:c-&gt;CO2:w</title>
<path d="M180.799,-104.178C203.459,-121.711 238.716,-143.5 274,-143.5" fill="none" stroke="black"/>
</g>
<!-- F1
Fermentation&#45;&gt;product -->
<g class="edge" id="edge3"><title>F1
Fermentation:c-&gt;product:w</title>
<path d="M178.987,-60.8219C200.051,-43.2888 232.973,-21.5 266.5,-21.5" fill="none" stroke="black"/>
</g>
<!-- feed&#45;&gt;F1
Fermentation -->
<g class="edge" id="edge1"><title>feed:e-&gt;F1
Fermentation:c</title>
<path d="M44.5,-82.5C66.1719,-82.5 90.2564,-82.5 110.307,-82.5" fill="none" stroke="black"/>
</g>
<!-- F1
Fermentation -->
<g class="node" id="node1"><title>F1
Fermentation</title>
<defs>
<linearGradient gradientUnits="userSpaceOnUse" id="l_0" x1="110.5" x2="199.5" y1="-82.5" y2="-82.5">
<stop offset="0" style="stop-color:white;stop-opacity:1.;"/>
<stop offset="1" style="stop-color:#cdcdcd;stop-opacity:1.;"/>
</linearGradient>
</defs>
<polygon fill="url(#l_0)" points="199.5,-104 110.5,-104 110.5,-61 199.5,-61 199.5,-104" stroke="black"/>
<text font-family="Times New Roman,serif" font-size="14.00" text-anchor="middle" x="155" y="-86.3">F1</text>
<text font-family="Times New Roman,serif" font-size="14.00" text-anchor="middle" x="155" y="-71.3">Fermentation</text>
</g>
<!-- feed -->
<g class="node" id="node2"><title>feed</title>
<polygon fill="#79dae8" points="26.5,-98 1.5,-98 1.5,-67 26.5,-67 26.5,-61 44.5,-82.5 26.5,-104 26.5,-98" stroke="black"/>
<text font-family="Times New Roman,serif" font-size="14.00" text-anchor="middle" x="23" y="-78.8">feed</text>
</g>
<!-- CO2 -->
<g class="node" id="node3"><title>CO2</title>
<polygon fill="#79dae8" points="301,-159 275,-159 275,-128 301,-128 301,-122 319,-143.5 301,-165 301,-159" stroke="black"/>
<text font-family="Times New Roman,serif" font-size="14.00" text-anchor="middle" x="297" y="-139.8">CO2</text>
</g>
<!-- product -->
<g class="node" id="node4"><title>product</title>
<polygon fill="#79dae8" points="309.5,-37 266.5,-37 266.5,-6 309.5,-6 309.5,-0 327.5,-21.5 309.5,-43 309.5,-37" stroke="black"/>
<text font-family="Times New Roman,serif" font-size="14.00" text-anchor="middle" x="297" y="-17.8">product</text>
</g>
</g>
</svg>