<svg height="173pt" viewBox="0.00 0.00 338.00 173.00" width="338pt" xmlns="http://www.w3.org/2000/svg" xmlns:xlink="http://www.w3.org/1999/xlink">
<g class="graph" id="graph0" transform="scale(1 1) rotate(0) translate(4 169)">
<title>unit</title>
<polygon fill="white" points="-4,4 -4,-169 334,-169 334,4 -4,4" stroke="none"/>
<!-- F1
Flash&#45;&gt;vapor -->
<g class="edge" id="edge2"><title>F1
Flash:n-&gt;vapor:w</title>
<path d="M137,-123.5C137,-176.254 201.246,-143.5 254,-143.5" fill="none" stroke="black"/>
</g>
<!-- F1
Flash&#45;&gt;crude_glycerin -->
<g class="edge" id="edge3"><title>F1
Flash:s-&gt;crude_glycerin:w</title>
<path d="M137,-41.5C137,0.995606 188.004,-21.5 230.5,-21.5" fill="none" stroke="black"/>
</g>
<!-- feed&#45;&gt;F1
Flash -->
<g class="edge" id="edge1"><title>feed:e-&gt;F1
Flash:c</title>
<path d="M42.5,-82.5C61.8168,-82.5 83.3785,-82.5 100.924,-82.5" fill="none" stroke="black"/>
</g>
<!-- F1
Flash -->
<g class="node" id="node1"><title>F1
Flash</title>
<defs>
<linearGradient gradientUnits="userSpaceOnUse" id="l_0" x1="101" x2="173" y1="-82.5" y2="-82.5">
<stop offset="0" style="stop-color:white;stop-opacity:1.;"/>
<stop offset="1" style="stop-color:#cdcdcd;stop-opacity:1.;"/>
</linearGradient>
</defs>
<polygon fill="url(#l_0)" points="173,-122 101,-122 101,-43 173,-43 173,-122" stroke="black"/>
<text font-family="Times New Roman,serif" font-size="14.00" text-anchor="middle" x="137" y="-86.3">F1</text>
<text font-family="Times New Roman,serif" font-size="14.00" text-anchor="middle" x="137" y="-71.3">Flash</text>
</g>
<!-- feed -->
<g class="node" id="node2"><title>feed</title>
<polygon fill="#79dae8" points="24.5,-98 -0.5,-98 -0.5,-67 24.5,-67 24.5,-61 42.5,-82.5 24.5,-104 24.5,-98" stroke="black"/>
<text font-family="Times New Roman,serif" font-size="14.00" text-anchor="middle" x="21" y="-78.8">feed</text>
</g>
<!-- vapor -->
<g class="node" id="node3"><title>vapor</title>
<polygon fill="#79dae8" points="286.5,-159 255.5,-159 255.5,-128 286.5,-128 286.5,-122 304.5,-143.5 286.5,-165 286.5,-159" stroke="black"/>
<text font-family="Times New Roman,serif" font-size="14.00" text-anchor="middle" x="280" y="-139.8">vapor</text>
</g>
<!-- crude_glycerin -->
<g class="node" id="node4"><title>crude_glycerin</title>
<polygon fill="#79dae8" points="311.5,-37 230.5,-37 230.5,-6 311.5,-6 311.5,-0 329.5,-21.5 311.5,-43 311.5,-37" stroke="black"/>
<text font-family="Times New Roman,serif" font-size="14.00" text-anchor="middle" x="280" y="-17.8">crude_glycerin</text>
</g>
</g>
</svg>