<svg height="173pt" viewBox="0.00 0.00 338.00 173.00" width="338pt" xmlns="http://www.w3.org/2000/svg" xmlns:xlink="http://www.w3.org/1999/xlink">
<g class="graph" id="graph0" transform="scale(1 1) rotate(0) translate(4 169)">
<title>unit</title>
<polygon fill="white" points="-4,4 -4,-169 334,-169 334,4 -4,4" stroke="none"/>
<!-- F1
Flash&#45;&gt;Default -->
<g class="edge" id="edge2"><title>F1
Flash:n-&gt;Default:w</title>
<path d="M155,-123.5C155,-174.065 216.435,-143.5 267,-143.5" fill="none" stroke="black"/>
</g>
<!-- F1
Flash&#45;&gt;glycerin -->
<g class="edge" id="edge3"><title>F1
Flash:s-&gt;glycerin:w</title>
<path d="M155,-41.5C155,8.62774 215.872,-21.5 266,-21.5" fill="none" stroke="black"/>
</g>
<!-- d1&#45;&gt;F1
Flash -->
<g class="edge" id="edge1"><title>d1:e-&gt;F1
Flash:c</title>
<path d="M45.5,-82.5C69.9878,-82.5 97.5845,-82.5 118.818,-82.5" fill="none" stroke="black"/>
</g>
<!-- F1
Flash -->
<g class="node" id="node1"><title>F1
Flash</title>
<defs>
<linearGradient gradientUnits="userSpaceOnUse" id="l_0" x1="119" x2="191" y1="-82.5" y2="-82.5">
<stop offset="0" style="stop-color:white;stop-opacity:1.;"/>
<stop offset="1" style="stop-color:#cdcdcd;stop-opacity:1.;"/>
</linearGradient>
</defs>
<polygon fill="url(#l_0)" points="191,-122 119,-122 119,-43 191,-43 191,-122" stroke="black"/>
<text font-family="Times New Roman,serif" font-size="14.00" text-anchor="middle" x="155" y="-86.3">F1</text>
<text font-family="Times New Roman,serif" font-size="14.00" text-anchor="middle" x="155" y="-71.3">Flash</text>
</g>
<!-- d1 -->
<g class="node" id="node2"><title>d1</title>
<polygon fill="#79dae8" points="27.5,-98 2.5,-98 2.5,-67 27.5,-67 27.5,-61 45.5,-82.5 27.5,-104 27.5,-98" stroke="black"/>
<text font-family="Times New Roman,serif" font-size="14.00" text-anchor="middle" x="24" y="-78.8">d1</text>
</g>
<!-- Default -->
<g class="node" id="node3"><title>Default</title>
<polygon fill="#79dae8" points="306,-159 268,-159 268,-128 306,-128 306,-122 324,-143.5 306,-165 306,-159" stroke="black"/>
<text font-family="Times New Roman,serif" font-size="14.00" text-anchor="middle" x="296" y="-139.8">Default</text>
</g>
<!-- glycerin -->
<g class="node" id="node4"><title>glycerin</title>
<polygon fill="#79dae8" points="308,-37 266,-37 266,-6 308,-6 308,-0 326,-21.5 308,-43 308,-37" stroke="black"/>
<text font-family="Times New Roman,serif" font-size="14.00" text-anchor="middle" x="296" y="-17.8">glycerin</text>
</g>
</g>
</svg>