<svg height="173pt" viewBox="0.00 0.00 338.00 173.00" width="338pt" xmlns="http://www.w3.org/2000/svg" xmlns:xlink="http://www.w3.org/1999/xlink">
<g class="graph" id="graph0" transform="scale(1 1) rotate(0) translate(4 169)">
<title>unit</title>
<polygon fill="white" points="-4,4 -4,-169 334,-169 334,4 -4,4" stroke="none"/>
<!-- F1
Flash&#45;&gt;vapor -->
<g class="edge" id="edge2"><title>F1
Flash:n-&gt;vapor:w</title>
<path d="M139,-123.5C139,-176.254 203.246,-143.5 256,-143.5" fill="none" stroke="black"/>
</g>
<!-- F1
Flash&#45;&gt;crude glycerin -->
<g class="edge" id="edge3"><title>F1
Flash:s-&gt;crude glycerin:w</title>
<path d="M139,-41.5C139,1.86523 191.135,-21.5 234.5,-21.5" fill="none" stroke="black"/>
</g>
<!-- feed&#45;&gt;F1
Flash -->
<g class="edge" id="edge1"><title>feed:e-&gt;F1
Flash:c</title>
<path d="M43.5,-82.5C63.1875,-82.5 85.1821,-82.5 102.995,-82.5" fill="none" stroke="black"/>
</g>
<!-- F1
Flash -->
<g class="node" id="node1"><title>F1
Flash</title>
<defs>
<linearGradient gradientUnits="userSpaceOnUse" id="l_0" x1="103" x2="175" y1="-82.5" y2="-82.5">
<stop offset="0" style="stop-color:white;stop-opacity:1.;"/>
<stop offset="1" style="stop-color:#cdcdcd;stop-opacity:1.;"/>
</linearGradient>
</defs>
<polygon fill="url(#l_0)" points="175,-122 103,-122 103,-43 175,-43 175,-122" stroke="black"/>
<text font-family="Times New Roman,serif" font-size="14.00" text-anchor="middle" x="139" y="-86.3">F1</text>
<text font-family="Times New Roman,serif" font-size="14.00" text-anchor="middle" x="139" y="-71.3">Flash</text>
</g>
<!-- feed -->
<g class="node" id="node2"><title>feed</title>
<polygon fill="#79dae8" points="25.5,-98 0.5,-98 0.5,-67 25.5,-67 25.5,-61 43.5,-82.5 25.5,-104 25.5,-98" stroke="black"/>
<text font-family="Times New Roman,serif" font-size="14.00" text-anchor="middle" x="22" y="-78.8">feed</text>
</g>
<!-- vapor -->
<g class="node" id="node3"><title>vapor</title>
<polygon fill="#79dae8" points="288.5,-159 257.5,-159 257.5,-128 288.5,-128 288.5,-122 306.5,-143.5 288.5,-165 288.5,-159" stroke="black"/>
<text font-family="Times New Roman,serif" font-size="14.00" text-anchor="middle" x="282" y="-139.8">vapor</text>
</g>
<!-- crude glycerin -->
<g class="node" id="node4"><title>crude glycerin</title>
<polygon fill="#79dae8" points="311.5,-37 234.5,-37 234.5,-6 311.5,-6 311.5,-0 329.5,-21.5 311.5,-43 311.5,-37" stroke="black"/>
<text font-family="Times New Roman,serif" font-size="14.00" text-anchor="middle" x="282" y="-17.8">crude glycerin</text>
</g>
</g>
</svg>