<svg height="140pt" viewBox="0.00 0.00 272.02 140.05" width="272pt" xmlns="http://www.w3.org/2000/svg" xmlns:xlink="http://www.w3.org/1999/xlink">
<g class="graph" id="graph0" transform="scale(1 1) rotate(0) translate(4 136.046)">
<title>unit</title>
<polygon fill="white" points="-4,4 -4,-136.046 268.021,-136.046 268.021,4 -4,4" stroke="none"/>
<!-- hx
Heating&#45;&gt;product -->
<g class="edge" id="edge2"><title>hx
Heating:c-&gt;product:w</title>
<path d="M161.249,-66.0232C178.012,-66.0232 199.449,-66.0232 218.521,-66.0232" fill="none" stroke="black"/>
</g>
<!-- feed&#45;&gt;hx
Heating -->
<g class="edge" id="edge1"><title>feed:e-&gt;hx
Heating:c</title>
<path d="M42.5211,-66.0232C61.9655,-66.0232 83.8405,-66.0232 100.854,-66.0232" fill="none" stroke="black"/>
</g>
<!-- hx
Heating -->
<g class="node" id="node1"><title>hx
Heating</title>
<ellipse cx="131.021" cy="-66.0232" fill="#fad6d8" rx="30.0211" ry="30.0211" stroke="none"/>
<text font-family="Times New Roman,serif" font-size="14.00" text-anchor="middle" x="131.021" y="-69.8232">hx</text>
<text font-family="Times New Roman,serif" font-size="14.00" text-anchor="middle" x="131.021" y="-54.8232">Heating</text>
</g>
<!-- feed -->
<g class="node" id="node2"><title>feed</title>
<polygon fill="#79dae8" points="24.5211,-81.5232 -0.47892,-81.5232 -0.47892,-50.5232 24.5211,-50.5232 24.5211,-44.5232 42.5211,-66.0232 24.5211,-87.5232 24.5211,-81.5232" stroke="black"/>
<text font-family="Times New Roman,serif" font-size="14.00" text-anchor="middle" x="21.0211" y="-62.3232">feed</text>
</g>
<!-- product -->
<g class="node" id="node3"><title>product</title>
<polygon fill="#79dae8" points="245.521,-81.5232 218.521,-81.5232 218.521,-50.5232 245.521,-50.5232 245.521,-44.5232 263.521,-66.0232 245.521,-87.5232 245.521,-81.5232" stroke="black"/>
<text font-family="Times New Roman,serif" font-size="14.00" text-anchor="middle" x="241.021" y="-62.3232">product</text>
</g>
</g>
</svg>