<svg height="315pt" viewBox="0.00 0.00 594.20 315.24" width="594pt" xmlns="http://www.w3.org/2000/svg" xmlns:xlink="http://www.w3.org/1999/xlink">
<g class="graph" id="graph0" transform="scale(1 1) rotate(0) translate(4 311.24)">
<title>diagram</title>
<polygon fill="white" points="-4,4 -4,-311.24 590.203,-311.24 590.203,4 -4,4" stroke="none"/>
<!-- F1
Flash&#45;&gt;S1
Splitter -->
<g class="edge" id="edge9"><title>F1
Flash:s-&gt;S1
Splitter:w</title>
<path d="M129,-88.7401C129,-47.556 171.178,-52.5949 212.753,-53.6015" fill="none" stroke="black"/>
<polygon fill="black" points="212.954,-57.1045 223,-53.7401 213.048,-50.1051 212.954,-57.1045" stroke="black"/>
<text font-family="Times New Roman,serif" font-size="14.00" text-anchor="middle" x="194" y="-57.5401">d29</text>
</g>
<!-- F1
Flash&#45;&gt;d28 -->
<g class="edge" id="edge8"><title>F1
Flash:n-&gt;d28:w</title>
<path d="M129,-170.74C129,-237.566 212.37,-177.74 279.196,-177.74" fill="none" stroke="black"/>
</g>
<!-- M1
Mixer&#45;&gt;F1
Flash -->
<g class="edge" id="edge5"><title>M1
Mixer:e-&gt;F1
Flash:c</title>
<path d="M578.688,-165.74C590.633,-165.74 586.212,-211.113 577.688,-219.48 533.824,-262.536 493.839,-248.001 439.392,-219.48 438.139,-218.824 382.637,-136.412 381.392,-135.74 346.992,-117.195 237.755,-121.654 175.179,-126.012" fill="none" stroke="black"/>
<polygon fill="black" points="174.904,-122.523 165.183,-126.735 175.409,-129.504 174.904,-122.523" stroke="black"/>
<text font-family="Times New Roman,serif" font-size="14.00" text-anchor="middle" x="302.196" y="-140.54">d25</text>
</g>
<!-- P1
Pump&#45;&gt;M1
Mixer -->
<g class="edge" id="edge3"><title>P1
Pump:c-&gt;M1
Mixer:c</title>
<path d="M327.234,-279.491C343.111,-274.875 364.099,-267.822 381.392,-258.74 411.475,-242.941 442.239,-220.447 465.872,-201.539" fill="none" stroke="black"/>
<polygon fill="black" points="468.355,-204.032 473.921,-195.017 463.948,-198.593 468.355,-204.032" stroke="black"/>
<text font-family="Times New Roman,serif" font-size="14.00" text-anchor="middle" x="410.392" y="-252.54">d23</text>
</g>
<!-- P2
Pump&#45;&gt;M1
Mixer -->
<g class="edge" id="edge4"><title>P2
Pump:c-&gt;M1
Mixer:c</title>
<path d="M327.457,-223.91C361.15,-213.035 422.659,-193.183 464.345,-179.729" fill="none" stroke="black"/>
<polygon fill="black" points="465.522,-183.027 473.964,-176.625 463.372,-176.366 465.522,-183.027" stroke="black"/>
<text font-family="Times New Roman,serif" font-size="14.00" text-anchor="middle" x="410.392" y="-202.54">d24</text>
</g>
<!-- S1
Splitter&#45;&gt;M1
Mixer -->
<g class="edge" id="edge6"><title>S1
Splitter:c-&gt;M1
Mixer:c</title>
<path d="M342.102,-69.123C365.573,-78.905 395.788,-92.3975 421.392,-106.74 436.209,-115.04 451.724,-125.156 465.448,-134.65" fill="none" stroke="black"/>
<polygon fill="black" points="463.541,-137.588 473.739,-140.46 467.558,-131.855 463.541,-137.588" stroke="black"/>
<text font-family="Times New Roman,serif" font-size="14.00" text-anchor="middle" x="410.392" y="-110.54">d26</text>
</g>
<!-- S1
Splitter&#45;&gt;d27 -->
<g class="edge" id="edge7"><title>S1
Splitter:c-&gt;d27:w</title>
<path d="M342,-53.7401C378.944,-53.7401 436.105,-53.7401 485.688,-53.7401" fill="none" stroke="black"/>
</g>
<!-- T1
Tank&#45;&gt;P1
Pump -->
<g class="edge" id="edge1"><title>T1
Tank:c-&gt;P1
Pump:c</title>
<path d="M151.682,-285.74C180.71,-285.74 232.521,-285.74 266.877,-285.74" fill="none" stroke="black"/>
<polygon fill="black" points="266.935,-289.24 276.935,-285.74 266.935,-282.24 266.935,-289.24" stroke="black"/>
<text font-family="Times New Roman,serif" font-size="14.00" text-anchor="middle" x="194" y="-289.54">d21</text>
</g>
<!-- T2
Tank&#45;&gt;P2
Pump -->
<g class="edge" id="edge2"><title>T2
Tank:c-&gt;P2
Pump:c</title>
<path d="M151.682,-231.74C180.71,-231.74 232.521,-231.74 266.877,-231.74" fill="none" stroke="black"/>
<polygon fill="black" points="266.935,-235.24 276.935,-231.74 266.935,-228.24 266.935,-235.24" stroke="black"/>
<text font-family="Times New Roman,serif" font-size="14.00" text-anchor="middle" x="194" y="-235.54">d22</text>
</g>
<!-- ethanol&#45;&gt;T2
Tank -->
<g class="edge" id="edge10"><title>ethanol:e-&gt;T2
Tank:c</title>
<path d="M56,-231.74C72.875,-231.74 91.9747,-231.74 106.26,-231.74" fill="none" stroke="black"/>
</g>
<!-- water&#45;&gt;T1
Tank -->
<g class="edge" id="edge11"><title>water:e-&gt;T1
Tank:c</title>
<path d="M53,-285.74C70.9688,-285.74 91.3591,-285.74 106.339,-285.74" fill="none" stroke="black"/>
</g>
<!-- F1
Flash -->
<g class="node" id="node1"><title>F1
Flash</title>
<defs>
<linearGradient gradientUnits="userSpaceOnUse" id="l_0" x1="93" x2="165" y1="-129.74" y2="-129.74">
<stop offset="0" style="stop-color:white;stop-opacity:1.;"/>
<stop offset="1" style="stop-color:#cdcdcd;stop-opacity:1.;"/>
</linearGradient>
</defs>
<polygon fill="url(#l_0)" points="165,-169.24 93,-169.24 93,-90.2401 165,-90.2401 165,-169.24" stroke="black"/>
<text font-family="Times New Roman,serif" font-size="14.00" text-anchor="middle" x="129" y="-133.54">F1</text>
<text font-family="Times New Roman,serif" font-size="14.00" text-anchor="middle" x="129" y="-118.54">Flash</text>
</g>
<!-- M1
Mixer -->
<g class="node" id="node2"><title>M1
Mixer</title>
<defs>
<linearGradient gradientUnits="userSpaceOnUse" id="l_1" x1="474.142" x2="577.782" y1="-165.74" y2="-165.74">
<stop offset="0" style="stop-color:white;stop-opacity:1.;"/>
<stop offset="1" style="stop-color:#cdcdcd;stop-opacity:1.;"/>
</linearGradient>
</defs>
<polygon fill="url(#l_1)" points="577.782,-165.74 474.142,-219.721 474.142,-111.759 577.782,-165.74" stroke="black"/>
<text font-family="Times New Roman,serif" font-size="14.00" text-anchor="middle" x="508.688" y="-169.54">M1</text>
<text font-family="Times New Roman,serif" font-size="14.00" text-anchor="middle" x="508.688" y="-154.54">Mixer</text>
</g>
<!-- P1
Pump -->
<g class="node" id="node3"><title>P1
Pump</title>
<defs>
<linearGradient gradientUnits="userSpaceOnUse" id="l_2" x1="277.196" x2="327.196" y1="-285.74" y2="-285.74">
<stop offset="0" style="stop-color:white;stop-opacity:1.;"/>
<stop offset="1" style="stop-color:#cdcdcd;stop-opacity:1.;"/>
</linearGradient>
</defs>
<polygon fill="url(#l_2)" points="327.196,-307.24 277.196,-307.24 277.196,-264.24 327.196,-264.24 327.196,-307.24" stroke="black"/>
<text font-family="Times New Roman,serif" font-size="14.00" text-anchor="middle" x="302.196" y="-289.54">P1</text>
<text font-family="Times New Roman,serif" font-size="14.00" text-anchor="middle" x="302.196" y="-274.54">Pump</text>
</g>
<!-- P2
Pump -->
<g class="node" id="node4"><title>P2
Pump</title>
<defs>
<linearGradient gradientUnits="userSpaceOnUse" id="l_3" x1="277.196" x2="327.196" y1="-231.74" y2="-231.74">
<stop offset="0" style="stop-color:white;stop-opacity:1.;"/>
<stop offset="1" style="stop-color:#cdcdcd;stop-opacity:1.;"/>
</linearGradient>
</defs>
<polygon fill="url(#l_3)" points="327.196,-253.24 277.196,-253.24 277.196,-210.24 327.196,-210.24 327.196,-253.24" stroke="black"/>
<text font-family="Times New Roman,serif" font-size="14.00" text-anchor="middle" x="302.196" y="-235.54">P2</text>
<text font-family="Times New Roman,serif" font-size="14.00" text-anchor="middle" x="302.196" y="-220.54">Pump</text>
</g>
<!-- S1
Splitter -->
<g class="node" id="node5"><title>S1
Splitter</title>
<defs>
<linearGradient gradientUnits="userSpaceOnUse" id="l_4" x1="222.804" x2="341.892" y1="-53.7401" y2="-53.7401">
<stop offset="0" style="stop-color:#bfbfbf;stop-opacity:1.;"/>
<stop offset="1" style="stop-color:white;stop-opacity:1.;"/>
</linearGradient>
</defs>
<polygon fill="url(#l_4)" points="222.804,-53.7401 341.892,0.241193 341.892,-107.721 222.804,-53.7401" stroke="black"/>
<text font-family="Times New Roman,serif" font-size="14.00" text-anchor="middle" x="302.196" y="-57.5401">S1</text>
<text font-family="Times New Roman,serif" font-size="14.00" text-anchor="middle" x="302.196" y="-42.5401">Splitter</text>
</g>
<!-- T1
Tank -->
<g class="node" id="node6"><title>T1
Tank</title>
<defs>
<linearGradient gradientUnits="userSpaceOnUse" id="l_5" x1="106.5" x2="151.5" y1="-285.74" y2="-285.74">
<stop offset="0" style="stop-color:white;stop-opacity:1.;"/>
<stop offset="1" style="stop-color:#cdcdcd;stop-opacity:1.;"/>
</linearGradient>
</defs>
<polygon fill="url(#l_5)" points="151.5,-307.24 106.5,-307.24 106.5,-264.24 151.5,-264.24 151.5,-307.24" stroke="black"/>
<text font-family="Times New Roman,serif" font-size="14.00" text-anchor="middle" x="129" y="-289.54">T1</text>
<text font-family="Times New Roman,serif" font-size="14.00" text-anchor="middle" x="129" y="-274.54">Tank</text>
</g>
<!-- T2
Tank -->
<g class="node" id="node7"><title>T2
Tank</title>
<defs>
<linearGradient gradientUnits="userSpaceOnUse" id="l_6" x1="106.5" x2="151.5" y1="-231.74" y2="-231.74">
<stop offset="0" style="stop-color:white;stop-opacity:1.;"/>
<stop offset="1" style="stop-color:#cdcdcd;stop-opacity:1.;"/>
</linearGradient>
</defs>
<polygon fill="url(#l_6)" points="151.5,-253.24 106.5,-253.24 106.5,-210.24 151.5,-210.24 151.5,-253.24" stroke="black"/>
<text font-family="Times New Roman,serif" font-size="14.00" text-anchor="middle" x="129" y="-235.54">T2</text>
<text font-family="Times New Roman,serif" font-size="14.00" text-anchor="middle" x="129" y="-220.54">Tank</text>
</g>
<!-- d27 -->
<g class="node" id="node8"><title>d27</title>
<polygon fill="#79dae8" points="512.188,-69.2401 487.188,-69.2401 487.188,-38.2401 512.188,-38.2401 512.188,-32.2401 530.188,-53.7401 512.188,-75.2401 512.188,-69.2401" stroke="black"/>
<text font-family="Times New Roman,serif" font-size="14.00" text-anchor="middle" x="508.688" y="-50.0401">d27</text>
</g>
<!-- d28 -->
<g class="node" id="node9"><title>d28</title>
<polygon fill="#79dae8" points="305.696,-193.24 280.696,-193.24 280.696,-162.24 305.696,-162.24 305.696,-156.24 323.696,-177.74 305.696,-199.24 305.696,-193.24" stroke="black"/>
<text font-family="Times New Roman,serif" font-size="14.00" text-anchor="middle" x="302.196" y="-174.04">d28</text>
</g>
<!-- ethanol -->
<g class="node" id="node10"><title>ethanol</title>
<polygon fill="#79dae8" points="38,-247.24 3.55271e-015,-247.24 3.55271e-015,-216.24 38,-216.24 38,-210.24 56,-231.74 38,-253.24 38,-247.24" stroke="black"/>
<text font-family="Times New Roman,serif" font-size="14.00" text-anchor="middle" x="28" y="-228.04">ethanol</text>
</g>
<!-- water -->
<g class="node" id="node11"><title>water</title>
<polygon fill="#79dae8" points="33.5,-301.24 4.5,-301.24 4.5,-270.24 33.5,-270.24 33.5,-264.24 51.5,-285.74 33.5,-307.24 33.5,-301.24" stroke="black"/>
<text font-family="Times New Roman,serif" font-size="14.00" text-anchor="middle" x="28" y="-282.04">water</text>
</g>
</g>
</svg>