<svg height="173pt" viewBox="0.00 0.00 338.00 173.00" width="338pt" xmlns="http://www.w3.org/2000/svg" xmlns:xlink="http://www.w3.org/1999/xlink">
<g class="graph" id="graph0" transform="scale(1 1) rotate(0) translate(4 169)">
<title>unit</title>
<polygon fill="white" points="-4,4 -4,-169 334,-169 334,4 -4,4" stroke="none"/>
<!-- MS1
MolecularSieve&#45;&gt;d2 -->
<g class="edge" id="edge2"><title>MS1
MolecularSieve:c-&gt;d2:w</title>
<path d="M191.16,-104.178C214.138,-121.711 249.861,-143.5 285.5,-143.5" fill="none" stroke="black"/>
</g>
<!-- MS1
MolecularSieve&#45;&gt;d3 -->
<g class="edge" id="edge3"><title>MS1
MolecularSieve:c-&gt;d3:w</title>
<path d="M191.16,-60.8219C214.138,-43.2888 249.861,-21.5 285.5,-21.5" fill="none" stroke="black"/>
</g>
<!-- d1&#45;&gt;MS1
MolecularSieve -->
<g class="edge" id="edge1"><title>d1:e-&gt;MS1
MolecularSieve:c</title>
<path d="M44.5,-82.5C67.3212,-82.5 92.5939,-82.5 113.998,-82.5" fill="none" stroke="black"/>
</g>
<!-- MS1
MolecularSieve -->
<g class="node" id="node1"><title>MS1
MolecularSieve</title>
<defs>
<linearGradient gradientUnits="userSpaceOnUse" id="l_0" x1="114" x2="216" y1="-82.5" y2="-82.5">
<stop offset="0" style="stop-color:white;stop-opacity:1.;"/>
<stop offset="1" style="stop-color:#cdcdcd;stop-opacity:1.;"/>
</linearGradient>
</defs>
<polygon fill="url(#l_0)" points="216,-104 114,-104 114,-61 216,-61 216,-104" stroke="black"/>
<text font-family="Times New Roman,serif" font-size="14.00" text-anchor="middle" x="165" y="-86.3">MS1</text>
<text font-family="Times New Roman,serif" font-size="14.00" text-anchor="middle" x="165" y="-71.3">MolecularSieve</text>
</g>
<!-- d1 -->
<g class="node" id="node2"><title>d1</title>
<polygon fill="#79dae8" points="26.5,-98 1.5,-98 1.5,-67 26.5,-67 26.5,-61 44.5,-82.5 26.5,-104 26.5,-98" stroke="black"/>
<text font-family="Times New Roman,serif" font-size="14.00" text-anchor="middle" x="23" y="-78.8">d1</text>
</g>
<!-- d2 -->
<g class="node" id="node3"><title>d2</title>
<polygon fill="#79dae8" points="310.5,-159 285.5,-159 285.5,-128 310.5,-128 310.5,-122 328.5,-143.5 310.5,-165 310.5,-159" stroke="black"/>
<text font-family="Times New Roman,serif" font-size="14.00" text-anchor="middle" x="307" y="-139.8">d2</text>
</g>
<!-- d3 -->
<g class="node" id="node4"><title>d3</title>
<polygon fill="#79dae8" points="310.5,-37 285.5,-37 285.5,-6 310.5,-6 310.5,-0 328.5,-21.5 310.5,-43 310.5,-37" stroke="black"/>
<text font-family="Times New Roman,serif" font-size="14.00" text-anchor="middle" x="307" y="-17.8">d3</text>
</g>
</g>
</svg>