<svg height="173pt" viewBox="0.00 0.00 338.00 173.00" width="338pt" xmlns="http://www.w3.org/2000/svg" xmlns:xlink="http://www.w3.org/1999/xlink">
<g class="graph" id="graph0" transform="scale(1 1) rotate(0) translate(4 169)">
<title>unit</title>
<polygon fill="white" points="-4,4 -4,-169 334,-169 334,4 -4,4" stroke="none"/>
<!-- MS1
MolSieve&#45;&gt;d2 -->
<g class="edge" id="edge2"><title>MS1
MolSieve:c-&gt;d2:w</title>
<path d="M190.438,-104.178C212.779,-121.711 247.569,-143.5 282.5,-143.5" fill="none" stroke="black"/>
</g>
<!-- MS1
MolSieve&#45;&gt;d3 -->
<g class="edge" id="edge3"><title>MS1
MolSieve:c-&gt;d3:w</title>
<path d="M190.438,-60.8219C212.779,-43.2888 247.569,-21.5 282.5,-21.5" fill="none" stroke="black"/>
</g>
<!-- d1&#45;&gt;MS1
MolSieve -->
<g class="edge" id="edge1"><title>d1:e-&gt;MS1
MolSieve:c</title>
<path d="M47.5,-82.5C75.4115,-82.5 107.084,-82.5 130.353,-82.5" fill="none" stroke="black"/>
</g>
<!-- MS1
MolSieve -->
<g class="node" id="node1"><title>MS1
MolSieve</title>
<defs>
<linearGradient gradientUnits="userSpaceOnUse" id="l_0" x1="130.5" x2="199.5" y1="-82.5" y2="-82.5">
<stop offset="0" style="stop-color:white;stop-opacity:1.;"/>
<stop offset="1" style="stop-color:#cdcdcd;stop-opacity:1.;"/>
</linearGradient>
</defs>
<polygon fill="url(#l_0)" points="199.5,-104 130.5,-104 130.5,-61 199.5,-61 199.5,-104" stroke="black"/>
<text font-family="Times New Roman,serif" font-size="14.00" text-anchor="middle" x="165" y="-86.3">MS1</text>
<text font-family="Times New Roman,serif" font-size="14.00" text-anchor="middle" x="165" y="-71.3">MolSieve</text>
</g>
<!-- d1 -->
<g class="node" id="node2"><title>d1</title>
<polygon fill="#79dae8" points="29.5,-98 4.5,-98 4.5,-67 29.5,-67 29.5,-61 47.5,-82.5 29.5,-104 29.5,-98" stroke="black"/>
<text font-family="Times New Roman,serif" font-size="14.00" text-anchor="middle" x="26" y="-78.8">d1</text>
</g>
<!-- d2 -->
<g class="node" id="node3"><title>d2</title>
<polygon fill="#79dae8" points="307.5,-159 282.5,-159 282.5,-128 307.5,-128 307.5,-122 325.5,-143.5 307.5,-165 307.5,-159" stroke="black"/>
<text font-family="Times New Roman,serif" font-size="14.00" text-anchor="middle" x="304" y="-139.8">d2</text>
</g>
<!-- d3 -->
<g class="node" id="node4"><title>d3</title>
<polygon fill="#79dae8" points="307.5,-37 282.5,-37 282.5,-6 307.5,-6 307.5,-0 325.5,-21.5 307.5,-43 307.5,-37" stroke="black"/>
<text font-family="Times New Roman,serif" font-size="14.00" text-anchor="middle" x="304" y="-17.8">d3</text>
</g>
</g>
</svg>