<svg height="181pt" viewBox="0.00 0.00 353.00 180.50" width="353pt" xmlns="http://www.w3.org/2000/svg" xmlns:xlink="http://www.w3.org/1999/xlink">
<g class="graph" id="graph0" transform="scale(1 1) rotate(0) translate(4 176.5)">
<title>unit</title>
<polygon fill="white" points="-4,4 -4,-176.5 349,-176.5 349,4 -4,4" stroke="none"/>
<!-- R1
Transesterification&#45;&gt;d1 -->
<g class="edge" id="edge3"><title>R1
Transesterification:c-&gt;d1:w</title>
<path d="M243.669,-86.4773C262.172,-86.4773 282.69,-86.4773 301.5,-86.4773" fill="none" stroke="black"/>
</g>
<!-- lipid&#45;&gt;R1
Transesterification -->
<g class="edge" id="edge1"><title>lipid:e-&gt;R1
Transesterification:c</title>
<path d="M56,-150.477C94.5165,-150.477 133.251,-126.712 157.635,-108.145" fill="none" stroke="black"/>
</g>
<!-- methanol&#45;&gt;R1
Transesterification -->
<g class="edge" id="edge2"><title>methanol:e-&gt;R1
Transesterification:c</title>
<path d="M66.5,-22.4773C102.5,-22.4773 137.886,-46.2429 160.038,-64.8098" fill="none" stroke="black"/>
</g>
<!-- R1
Transesterification -->
<g class="node" id="node1"><title>R1
Transesterification</title>
<defs>
<linearGradient gradientUnits="userSpaceOnUse" id="l_0" x1="124.5" x2="243.5" y1="-86.4773" y2="-86.4773">
<stop offset="0" style="stop-color:white;stop-opacity:1.;"/>
<stop offset="1" style="stop-color:#cdcdcd;stop-opacity:1.;"/>
</linearGradient>
</defs>
<polygon fill="url(#l_0)" points="243.5,-107.977 124.5,-107.977 124.5,-64.9773 243.5,-64.9773 243.5,-107.977" stroke="black"/>
<text font-family="Times New Roman,serif" font-size="14.00" text-anchor="middle" x="184" y="-90.2773">R1</text>
<text font-family="Times New Roman,serif" font-size="14.00" text-anchor="middle" x="184" y="-75.2773">Transesterification</text>
</g>
<!-- lipid -->
<g class="node" id="node2"><title>lipid</title>
<polygon fill="#79dae8" points="36.5,-165.977 11.5,-165.977 11.5,-134.977 36.5,-134.977 36.5,-128.977 54.5,-150.477 36.5,-171.977 36.5,-165.977" stroke="black"/>
<text font-family="Times New Roman,serif" font-size="14.00" text-anchor="middle" x="33" y="-146.777">lipid</text>
</g>
<!-- methanol -->
<g class="node" id="node3"><title>methanol</title>
<polygon fill="#79dae8" points="48.5,-37.9773 -0.5,-37.9773 -0.5,-6.97727 48.5,-6.97727 48.5,-0.977273 66.5,-22.4773 48.5,-43.9773 48.5,-37.9773" stroke="black"/>
<text font-family="Times New Roman,serif" font-size="14.00" text-anchor="middle" x="33" y="-18.7773">methanol</text>
</g>
<!-- d1 -->
<g class="node" id="node4"><title>d1</title>
<polygon fill="#79dae8" points="326.5,-101.977 301.5,-101.977 301.5,-70.9773 326.5,-70.9773 326.5,-64.9773 344.5,-86.4773 326.5,-107.977 326.5,-101.977" stroke="black"/>
<text font-family="Times New Roman,serif" font-size="14.00" text-anchor="middle" x="323" y="-82.7773">d1</text>
</g>
</g>
</svg>