<svg height="185pt" viewBox="0.00 0.00 638.98 185.28" width="639pt" xmlns="http://www.w3.org/2000/svg" xmlns:xlink="http://www.w3.org/1999/xlink">
<g class="graph" id="graph0" transform="scale(1 1) rotate(0) translate(4 181.276)">
<title>%3</title>
<polygon fill="white" points="-4,4 -4,-181.276 634.985,-181.276 634.985,4 -4,4" stroke="none"/>
<!-- M1
Mixer&#45;&gt;F1
Flash -->
<g class="edge" id="edge6"><title>M1
Mixer:e-&gt;F1
Flash:c</title>
<path d="M218.593,-54.7401C233.713,-54.7401 248.306,-60.8482 261.044,-68.9934" fill="none" stroke="black"/>
<polygon fill="black" points="259.342,-72.0728 269.551,-74.9078 263.338,-66.3254 259.342,-72.0728" stroke="black"/>
<text font-family="Times New Roman,serif" font-size="14.00" text-anchor="middle" x="244.093" y="-66.5401">d5</text>
</g>
<!-- F1
Flash&#45;&gt;S1
Splitter -->
<g class="edge" id="edge3"><title>F1
Flash:s-&gt;S1
Splitter:w</title>
<path d="M305.593,-68.7401C305.593,-66.7763 359.809,-58.3389 382.67,-55.0551" fill="none" stroke="black"/>
<polygon fill="black" points="383.139,-58.5236 392.593,-53.7401 382.22,-51.5842 383.139,-58.5236" stroke="black"/>
<text font-family="Times New Roman,serif" font-size="14.00" text-anchor="middle" x="367.093" y="-62.5401">d2</text>
</g>
<!-- F1
Flash&#45;&gt;product -->
<g class="edge" id="edge5"><title>F1
Flash:n-&gt;product:w</title>
<path d="M305.593,-150.74C305.593,-210.384 380.145,-149.74 439.789,-149.74" fill="none" stroke="black"/>
</g>
<!-- S1
Splitter&#45;&gt;M1
Mixer -->
<g class="edge" id="edge1"><title>S1
Splitter:c-&gt;M1
Mixer:c</title>
<path d="M398.619,-50.8801C360.289,-49.7212 312.381,-48.8438 269.593,-49.7401 254.377,-50.0588 238.077,-50.606 222.566,-51.2243" fill="none" stroke="black"/>
<polygon fill="black" points="222.353,-47.73 212.506,-51.6393 222.642,-54.7241 222.353,-47.73" stroke="black"/>
<text font-family="Times New Roman,serif" font-size="14.00" text-anchor="middle" x="305.593" y="-53.5401">d6</text>
</g>
<!-- S1
Splitter&#45;&gt;d7 -->
<g class="edge" id="edge2"><title>S1
Splitter:c-&gt;d7:w</title>
<path d="M511.714,-53.7401C534.037,-53.7401 562.586,-53.7401 587.985,-53.7401" fill="none" stroke="black"/>
</g>
<!-- feed&#45;&gt;M1
Mixer -->
<g class="edge" id="edge4"><title>feed:e-&gt;M1
Mixer:c</title>
<path d="M43,-54.7401C66.9476,-54.7401 93.9589,-54.7401 114.627,-54.7401" fill="none" stroke="black"/>
</g>
<!-- M1
Mixer -->
<g class="node" id="node1"><title>M1
Mixer</title>
<defs>
<linearGradient gradientUnits="userSpaceOnUse" id="l_0" x1="114.75" x2="218.39" y1="-54.7401" y2="-54.7401">
<stop offset="0" style="stop-color:white;stop-opacity:1.;"/>
<stop offset="1" style="stop-color:#cdcdcd;stop-opacity:1.;"/>
</linearGradient>
</defs>
<polygon fill="url(#l_0)" points="218.39,-54.7401 114.75,-108.721 114.75,-0.758807 218.39,-54.7401" stroke="black"/>
<text font-family="Times New Roman,serif" font-size="14.00" text-anchor="middle" x="149.296" y="-58.5401">M1</text>
<text font-family="Times New Roman,serif" font-size="14.00" text-anchor="middle" x="149.296" y="-43.5401">Mixer</text>
</g>
<!-- F1
Flash -->
<g class="node" id="node2"><title>F1
Flash</title>
<defs>
<linearGradient gradientUnits="userSpaceOnUse" id="l_1" x1="269.593" x2="341.593" y1="-109.74" y2="-109.74">
<stop offset="0" style="stop-color:white;stop-opacity:1.;"/>
<stop offset="1" style="stop-color:#cdcdcd;stop-opacity:1.;"/>
</linearGradient>
</defs>
<polygon fill="url(#l_1)" points="341.593,-149.24 269.593,-149.24 269.593,-70.2401 341.593,-70.2401 341.593,-149.24" stroke="black"/>
<text font-family="Times New Roman,serif" font-size="14.00" text-anchor="middle" x="305.593" y="-113.54">F1</text>
<text font-family="Times New Roman,serif" font-size="14.00" text-anchor="middle" x="305.593" y="-98.5401">Flash</text>
</g>
<!-- S1
Splitter -->
<g class="node" id="node3"><title>S1
Splitter</title>
<defs>
<linearGradient gradientUnits="userSpaceOnUse" id="l_2" x1="392.396" x2="511.485" y1="-53.7401" y2="-53.7401">
<stop offset="0" style="stop-color:#bfbfbf;stop-opacity:1.;"/>
<stop offset="1" style="stop-color:white;stop-opacity:1.;"/>
</linearGradient>
</defs>
<polygon fill="url(#l_2)" points="392.396,-53.7401 511.485,0.241193 511.485,-107.721 392.396,-53.7401" stroke="black"/>
<text font-family="Times New Roman,serif" font-size="14.00" text-anchor="middle" x="471.789" y="-57.5401">S1</text>
<text font-family="Times New Roman,serif" font-size="14.00" text-anchor="middle" x="471.789" y="-42.5401">Splitter</text>
</g>
<!-- d7 -->
<g class="node" id="node4"><title>d7</title>
<polygon fill="#79dae8" points="612.985,-69.2401 587.985,-69.2401 587.985,-38.2401 612.985,-38.2401 612.985,-32.2401 630.985,-53.7401 612.985,-75.2401 612.985,-69.2401" stroke="black"/>
<text font-family="Times New Roman,serif" font-size="14.00" text-anchor="middle" x="609.485" y="-50.0401">d7</text>
</g>
<!-- feed -->
<g class="node" id="node5"><title>feed</title>
<polygon fill="#79dae8" points="25,-70.2401 0,-70.2401 0,-39.2401 25,-39.2401 25,-33.2401 43,-54.7401 25,-76.2401 25,-70.2401" stroke="black"/>
<text font-family="Times New Roman,serif" font-size="14.00" text-anchor="middle" x="21.5" y="-51.0401">feed</text>
</g>
<!-- product -->
<g class="node" id="node6"><title>product</title>
<polygon fill="#79dae8" points="484.289,-165.24 441.289,-165.24 441.289,-134.24 484.289,-134.24 484.289,-128.24 502.289,-149.74 484.289,-171.24 484.289,-165.24" stroke="black"/>
<text font-family="Times New Roman,serif" font-size="14.00" text-anchor="middle" x="471.789" y="-146.04">product</text>
</g>
</g>
</svg>