<svg height="207pt" viewBox="0.00 0.00 582.52 207.24" width="583pt" xmlns="http://www.w3.org/2000/svg" xmlns:xlink="http://www.w3.org/1999/xlink">
<g class="graph" id="graph0" transform="scale(1 1) rotate(0) translate(4 203.24)">
<title>%3</title>
<polygon fill="white" points="-4,4 -4,-203.24 578.52,-203.24 578.52,4 -4,4" stroke="none"/>
<!-- S1
Splitter&#45;&gt;M1
Mixer -->
<g class="edge" id="edge4"><title>S1
Splitter:c-&gt;M1
Mixer:c</title>
<path d="M124.749,-78.8981C158.041,-92.8896 205.841,-112.979 240.227,-127.43" fill="none" stroke="black"/>
<polygon fill="black" points="238.972,-130.699 249.547,-131.347 241.684,-124.246 238.972,-130.699" stroke="black"/>
<text font-family="Times New Roman,serif" font-size="14.00" text-anchor="middle" x="189.427" y="-113.3">d6</text>
</g>
<!-- S1
Splitter&#45;&gt;d7 -->
<g class="edge" id="edge6"><title>S1
Splitter:c-&gt;d7:w</title>
<path d="M124.505,-48.0449C159.669,-36.2408 213.197,-21.5 261.224,-21.5" fill="none" stroke="black"/>
</g>
<!-- M1
Mixer&#45;&gt;F1
Flash -->
<g class="edge" id="edge1"><title>M1
Mixer:e-&gt;F1
Flash:c</title>
<path d="M353.52,-145.5C367.381,-145.5 381.833,-141.983 394.845,-137.357" fill="none" stroke="black"/>
<polygon fill="black" points="396.41,-140.505 404.482,-133.643 393.893,-133.973 396.41,-140.505" stroke="black"/>
<text font-family="Times New Roman,serif" font-size="14.00" text-anchor="middle" x="379.02" y="-147.3">d5</text>
</g>
<!-- F1
Flash&#45;&gt;S1
Splitter -->
<g class="edge" id="edge3"><title>F1
Flash:s-&gt;S1
Splitter:w</title>
<path d="M440.52,-74.5C440.52,-35.8104 392.204,-72.1668 353.52,-71.5 291.932,-70.4385 272.574,-49.7979 214.927,-71.5 200.818,-76.8117 178.037,-110.928 163.927,-116.24 155.65,-119.356 11.0428,-122.435 4.73113,-116.24 1.66778,-113.233 -0.593833,-86.7865 0.593833,-72.1481" fill="none" stroke="black"/>
<polygon fill="black" points="3.96717,-73.0922 3.73113,-62.5 -2.68974,-70.9275 3.96717,-73.0922" stroke="black"/>
<text font-family="Times New Roman,serif" font-size="14.00" text-anchor="middle" x="284.224" y="-75.3">d2</text>
</g>
<!-- F1
Flash&#45;&gt;product -->
<g class="edge" id="edge2"><title>F1
Flash:n-&gt;product:w</title>
<path d="M440.52,-156.5C440.52,-188.947 481.073,-155.5 513.52,-155.5" fill="none" stroke="black"/>
</g>
<!-- feed&#45;&gt;M1
Mixer -->
<g class="edge" id="edge5"><title>feed:e-&gt;M1
Mixer:c</title>
<path d="M107.731,-148.5C157.096,-148.5 214.259,-147.299 249.583,-146.416" fill="none" stroke="black"/>
</g>
<!-- S1
Splitter -->
<g class="node" id="node1"><title>S1
Splitter</title>
<defs>
<linearGradient gradientUnits="userSpaceOnUse" id="l_0" x1="5.33873" x2="124.427" y1="-62.5" y2="-62.5">
<stop offset="0" style="stop-color:#bfbfbf;stop-opacity:1.;"/>
<stop offset="1" style="stop-color:white;stop-opacity:1.;"/>
</linearGradient>
</defs>
<polygon fill="url(#l_0)" points="5.33873,-62.5 124.427,-8.51869 124.427,-116.481 5.33873,-62.5" stroke="black"/>
<text font-family="Times New Roman,serif" font-size="14.00" text-anchor="middle" x="84.7311" y="-66.3">S1</text>
<text font-family="Times New Roman,serif" font-size="14.00" text-anchor="middle" x="84.7311" y="-51.3">Splitter</text>
</g>
<!-- M1
Mixer -->
<g class="node" id="node2"><title>M1
Mixer</title>
<defs>
<linearGradient gradientUnits="userSpaceOnUse" id="l_1" x1="249.677" x2="353.317" y1="-145.5" y2="-145.5">
<stop offset="0" style="stop-color:white;stop-opacity:1.;"/>
<stop offset="1" style="stop-color:#cdcdcd;stop-opacity:1.;"/>
</linearGradient>
</defs>
<polygon fill="url(#l_1)" points="353.317,-145.5 249.677,-199.481 249.677,-91.5187 353.317,-145.5" stroke="black"/>
<text font-family="Times New Roman,serif" font-size="14.00" text-anchor="middle" x="284.224" y="-149.3">M1</text>
<text font-family="Times New Roman,serif" font-size="14.00" text-anchor="middle" x="284.224" y="-134.3">Mixer</text>
</g>
<!-- F1
Flash -->
<g class="node" id="node3"><title>F1
Flash</title>
<defs>
<linearGradient gradientUnits="userSpaceOnUse" id="l_2" x1="404.52" x2="476.52" y1="-115.5" y2="-115.5">
<stop offset="0" style="stop-color:white;stop-opacity:1.;"/>
<stop offset="1" style="stop-color:#cdcdcd;stop-opacity:1.;"/>
</linearGradient>
</defs>
<polygon fill="url(#l_2)" points="476.52,-155 404.52,-155 404.52,-76 476.52,-76 476.52,-155" stroke="black"/>
<text font-family="Times New Roman,serif" font-size="14.00" text-anchor="middle" x="440.52" y="-119.3">F1</text>
<text font-family="Times New Roman,serif" font-size="14.00" text-anchor="middle" x="440.52" y="-104.3">Flash</text>
</g>
<!-- product -->
<g class="node" id="node4"><title>product</title>
<polygon fill="#79dae8" points="556.52,-171 513.52,-171 513.52,-140 556.52,-140 556.52,-134 574.52,-155.5 556.52,-177 556.52,-171" stroke="black"/>
<text font-family="Times New Roman,serif" font-size="14.00" text-anchor="middle" x="544.02" y="-151.8">product</text>
</g>
<!-- feed -->
<g class="node" id="node5"><title>feed</title>
<polygon fill="#79dae8" points="88.2311,-164 63.2311,-164 63.2311,-133 88.2311,-133 88.2311,-127 106.231,-148.5 88.2311,-170 88.2311,-164" stroke="black"/>
<text font-family="Times New Roman,serif" font-size="14.00" text-anchor="middle" x="84.7311" y="-144.8">feed</text>
</g>
<!-- d7 -->
<g class="node" id="node6"><title>d7</title>
<polygon fill="#79dae8" points="287.724,-37 262.724,-37 262.724,-6 287.724,-6 287.724,-0 305.724,-21.5 287.724,-43 287.724,-37" stroke="black"/>
<text font-family="Times New Roman,serif" font-size="14.00" text-anchor="middle" x="284.224" y="-17.8">d7</text>
</g>
</g>
</svg>