<svg height="173pt" viewBox="0.00 0.00 338.00 173.00" width="338pt" xmlns="http://www.w3.org/2000/svg" xmlns:xlink="http://www.w3.org/1999/xlink">
<g class="graph" id="graph0" transform="scale(1 1) rotate(0) translate(4 169)">
<title>unit</title>
<polygon fill="white" points="-4,4 -4,-169 334,-169 334,4 -4,4" stroke="none"/>
<!-- B1
Boiler&#45;&gt;gas -->
<g class="edge" id="edge2"><title>B1
Boiler:c-&gt;gas:w</title>
<path d="M192.23,-104.178C213.507,-121.711 246.74,-143.5 280.5,-143.5" fill="none" stroke="black"/>
</g>
<!-- B1
Boiler&#45;&gt;liq -->
<g class="edge" id="edge3"><title>B1
Boiler:c-&gt;liq:w</title>
<path d="M192.23,-60.8219C213.507,-43.2888 246.74,-21.5 280.5,-21.5" fill="none" stroke="black"/>
</g>
<!-- water&#45;&gt;B1
Boiler -->
<g class="edge" id="edge1"><title>water:e-&gt;B1
Boiler:c</title>
<path d="M53.5,-82.5C84.2396,-82.5 119.662,-82.5 142.646,-82.5" fill="none" stroke="black"/>
</g>
<!-- B1
Boiler -->
<g class="node" id="node1"><title>B1
Boiler</title>
<defs>
<linearGradient gradientUnits="userSpaceOnUse" id="l_0" x1="143" x2="193" y1="-82.5" y2="-82.5">
<stop offset="0" style="stop-color:white;stop-opacity:1.;"/>
<stop offset="1" style="stop-color:#cdcdcd;stop-opacity:1.;"/>
</linearGradient>
</defs>
<polygon fill="url(#l_0)" points="193,-104 143,-104 143,-61 193,-61 193,-104" stroke="black"/>
<text font-family="Times New Roman,serif" font-size="14.00" text-anchor="middle" x="168" y="-86.3">B1</text>
<text font-family="Times New Roman,serif" font-size="14.00" text-anchor="middle" x="168" y="-71.3">Boiler</text>
</g>
<!-- water -->
<g class="node" id="node2"><title>water</title>
<polygon fill="#79dae8" points="35.5,-98 6.5,-98 6.5,-67 35.5,-67 35.5,-61 53.5,-82.5 35.5,-104 35.5,-98" stroke="black"/>
<text font-family="Times New Roman,serif" font-size="14.00" text-anchor="middle" x="30" y="-78.8">water</text>
</g>
<!-- gas -->
<g class="node" id="node3"><title>gas</title>
<polygon fill="#79dae8" points="305.5,-159 280.5,-159 280.5,-128 305.5,-128 305.5,-122 323.5,-143.5 305.5,-165 305.5,-159" stroke="black"/>
<text font-family="Times New Roman,serif" font-size="14.00" text-anchor="middle" x="302" y="-139.8">gas</text>
</g>
<!-- liq -->
<g class="node" id="node4"><title>liq</title>
<polygon fill="#79dae8" points="305.5,-37 280.5,-37 280.5,-6 305.5,-6 305.5,-0 323.5,-21.5 305.5,-43 305.5,-37" stroke="black"/>
<text font-family="Times New Roman,serif" font-size="14.00" text-anchor="middle" x="302" y="-17.8">liq</text>
</g>
</g>
</svg>