<svg height="310pt" viewBox="0.00 0.00 438.39 310.48" width="438pt" xmlns="http://www.w3.org/2000/svg" xmlns:xlink="http://www.w3.org/1999/xlink">
<g class="graph" id="graph0" transform="scale(1 1) rotate(0) translate(4 306.48)">
<title>%3</title>
<polygon fill="white" points="-4,4 -4,-306.48 434.392,-306.48 434.392,4 -4,4" stroke="none"/>
<!-- M1
Mixer&#45;&gt;s4 -->
<g class="edge" id="edge3"><title>M1
Mixer:e-&gt;s4:w</title>
<path d="M149.196,-53.7401C181.061,-53.7401 189.027,-53.7401 220.892,-53.7401" fill="none" stroke="black"/>
</g>
<!-- F1
Flash&#45;&gt;liquid -->
<g class="edge" id="edge2"><title>F1
Flash:s-&gt;liquid:w</title>
<path d="M243.892,-98.7401C243.892,-74.0724 330.224,-99.7401 354.892,-99.7401" fill="none" stroke="black"/>
</g>
<!-- F1
Flash&#45;&gt;vapor_product -->
<g class="edge" id="edge6"><title>F1
Flash:n-&gt;vapor_product:w</title>
<path d="M243.892,-180.74C243.892,-199.741 310.391,-179.74 329.392,-179.74" fill="none" stroke="black"/>
</g>
<!-- S1
Splitter&#45;&gt;liquid_recycle -->
<g class="edge" id="edge4"><title>S1
Splitter:c-&gt;liquid_recycle:w</title>
<path d="M119.058,-261.021C141.073,-266.926 169.259,-272.74 194.892,-272.74" fill="none" stroke="black"/>
</g>
<!-- S1
Splitter&#45;&gt;liquid_product -->
<g class="edge" id="edge5"><title>S1
Splitter:c-&gt;liquid_product:w</title>
<path d="M118.911,-233.301C140.719,-225.95 168.666,-218.74 194.392,-218.74" fill="none" stroke="black"/>
</g>
<!-- s1&#45;&gt;F1
Flash -->
<g class="edge" id="edge1"><title>s1:e-&gt;F1
Flash:c</title>
<path d="M102.196,-139.74C138.103,-139.74 179.164,-139.74 207.621,-139.74" fill="none" stroke="black"/>
</g>
<!-- M1
Mixer -->
<g class="node" id="node1"><title>M1
Mixer</title>
<defs>
<linearGradient gradientUnits="userSpaceOnUse" id="l_0" x1="44.6492" x2="148.289" y1="-53.7401" y2="-53.7401">
<stop offset="0" style="stop-color:white;stop-opacity:1.;"/>
<stop offset="1" style="stop-color:#cdcdcd;stop-opacity:1.;"/>
</linearGradient>
</defs>
<polygon fill="url(#l_0)" points="148.289,-53.7401 44.6492,-107.721 44.6492,0.241193 148.289,-53.7401" stroke="black"/>
<text font-family="Times New Roman,serif" font-size="14.00" text-anchor="middle" x="79.196" y="-57.5401">M1</text>
<text font-family="Times New Roman,serif" font-size="14.00" text-anchor="middle" x="79.196" y="-42.5401">Mixer</text>
</g>
<!-- F1
Flash -->
<g class="node" id="node2"><title>F1
Flash</title>
<defs>
<linearGradient gradientUnits="userSpaceOnUse" id="l_1" x1="207.892" x2="279.892" y1="-139.74" y2="-139.74">
<stop offset="0" style="stop-color:white;stop-opacity:1.;"/>
<stop offset="1" style="stop-color:#cdcdcd;stop-opacity:1.;"/>
</linearGradient>
</defs>
<polygon fill="url(#l_1)" points="279.892,-179.24 207.892,-179.24 207.892,-100.24 279.892,-100.24 279.892,-179.24" stroke="black"/>
<text font-family="Times New Roman,serif" font-size="14.00" text-anchor="middle" x="243.892" y="-143.54">F1</text>
<text font-family="Times New Roman,serif" font-size="14.00" text-anchor="middle" x="243.892" y="-128.54">Flash</text>
</g>
<!-- S1
Splitter -->
<g class="node" id="node3"><title>S1
Splitter</title>
<defs>
<linearGradient gradientUnits="userSpaceOnUse" id="l_2" x1="-0.196446" x2="118.892" y1="-248.74" y2="-248.74">
<stop offset="0" style="stop-color:#bfbfbf;stop-opacity:1.;"/>
<stop offset="1" style="stop-color:white;stop-opacity:1.;"/>
</linearGradient>
</defs>
<polygon fill="url(#l_2)" points="-0.196446,-248.74 118.892,-194.759 118.892,-302.721 -0.196446,-248.74" stroke="black"/>
<text font-family="Times New Roman,serif" font-size="14.00" text-anchor="middle" x="79.196" y="-252.54">S1</text>
<text font-family="Times New Roman,serif" font-size="14.00" text-anchor="middle" x="79.196" y="-237.54">Splitter</text>
</g>
<!-- s1 -->
<g class="node" id="node4"><title>s1</title>
<polygon fill="#79dae8" points="82.696,-155.24 57.696,-155.24 57.696,-124.24 82.696,-124.24 82.696,-118.24 100.696,-139.74 82.696,-161.24 82.696,-155.24" stroke="black"/>
<text font-family="Times New Roman,serif" font-size="14.00" text-anchor="middle" x="79.196" y="-136.04">s1</text>
</g>
<!-- liquid -->
<g class="node" id="node5"><title>liquid</title>
<polygon fill="#79dae8" points="385.392,-115.24 356.392,-115.24 356.392,-84.2401 385.392,-84.2401 385.392,-78.2401 403.392,-99.7401 385.392,-121.24 385.392,-115.24" stroke="black"/>
<text font-family="Times New Roman,serif" font-size="14.00" text-anchor="middle" x="379.892" y="-96.0401">liquid</text>
</g>
<!-- s4 -->
<g class="node" id="node6"><title>s4</title>
<polygon fill="#79dae8" points="247.392,-69.2401 222.392,-69.2401 222.392,-38.2401 247.392,-38.2401 247.392,-32.2401 265.392,-53.7401 247.392,-75.2401 247.392,-69.2401" stroke="black"/>
<text font-family="Times New Roman,serif" font-size="14.00" text-anchor="middle" x="243.892" y="-50.0401">s4</text>
</g>
<!-- liquid_recycle -->
<g class="node" id="node7"><title>liquid_recycle</title>
<polygon fill="#79dae8" points="273.392,-288.24 196.392,-288.24 196.392,-257.24 273.392,-257.24 273.392,-251.24 291.392,-272.74 273.392,-294.24 273.392,-288.24" stroke="black"/>
<text font-family="Times New Roman,serif" font-size="14.00" text-anchor="middle" x="243.892" y="-269.04">liquid_recycle</text>
</g>
<!-- liquid_product -->
<g class="node" id="node8"><title>liquid_product</title>
<polygon fill="#79dae8" points="275.392,-234.24 194.392,-234.24 194.392,-203.24 275.392,-203.24 275.392,-197.24 293.392,-218.74 275.392,-240.24 275.392,-234.24" stroke="black"/>
<text font-family="Times New Roman,serif" font-size="14.00" text-anchor="middle" x="243.892" y="-215.04">liquid_product</text>
</g>
<!-- vapor_product -->
<g class="node" id="node9"><title>vapor_product</title>
<polygon fill="#79dae8" points="412.392,-195.24 329.392,-195.24 329.392,-164.24 412.392,-164.24 412.392,-158.24 430.392,-179.74 412.392,-201.24 412.392,-195.24" stroke="black"/>
<text font-family="Times New Roman,serif" font-size="14.00" text-anchor="middle" x="379.892" y="-176.04">vapor_product</text>
</g>
</g>
</svg>