<svg height="327pt" viewBox="0.00 0.00 438.39 327.24" width="438pt" xmlns="http://www.w3.org/2000/svg" xmlns:xlink="http://www.w3.org/1999/xlink">
<g class="graph" id="graph0" transform="scale(1 1) rotate(0) translate(4 323.24)">
<title>%3</title>
<polygon fill="white" points="-4,4 -4,-323.24 434.392,-323.24 434.392,4 -4,4" stroke="none"/>
<!-- M1
Mixer&#45;&gt;s5 -->
<g class="edge" id="edge6"><title>M1
Mixer:e-&gt;s5:w</title>
<path d="M149.196,-53.7401C181.061,-53.7401 189.027,-53.7401 220.892,-53.7401" fill="none" stroke="black"/>
</g>
<!-- S1
Splitter&#45;&gt;liquid_product -->
<g class="edge" id="edge1"><title>S1
Splitter:c-&gt;liquid_product:w</title>
<path d="M119.008,-175.302C141.087,-177.031 169.265,-178.74 194.392,-178.74" fill="none" stroke="black"/>
</g>
<!-- S1
Splitter&#45;&gt;liquid_recycle -->
<g class="edge" id="edge3"><title>S1
Splitter:c-&gt;liquid_recycle:w</title>
<path d="M118.948,-147.139C140.464,-135.767 168.208,-124.74 194.892,-124.74" fill="none" stroke="black"/>
</g>
<!-- F1
Flash&#45;&gt;vapor_product -->
<g class="edge" id="edge4"><title>F1
Flash:n-&gt;vapor_product:w</title>
<path d="M243.892,-298.74C243.892,-336.743 291.389,-297.74 329.392,-297.74" fill="none" stroke="black"/>
</g>
<!-- F1
Flash&#45;&gt;liquid -->
<g class="edge" id="edge5"><title>F1
Flash:s-&gt;liquid:w</title>
<path d="M243.892,-216.74C243.892,-192.072 330.224,-217.74 354.892,-217.74" fill="none" stroke="black"/>
</g>
<!-- s1&#45;&gt;F1
Flash -->
<g class="edge" id="edge2"><title>s1:e-&gt;F1
Flash:c</title>
<path d="M102.196,-257.74C138.103,-257.74 179.164,-257.74 207.621,-257.74" fill="none" stroke="black"/>
</g>
<!-- M1
Mixer -->
<g class="node" id="node1"><title>M1
Mixer</title>
<defs>
<linearGradient gradientUnits="userSpaceOnUse" id="l_0" x1="44.6492" x2="148.289" y1="-53.7401" y2="-53.7401">
<stop offset="0" style="stop-color:white;stop-opacity:1.;"/>
<stop offset="1" style="stop-color:#cdcdcd;stop-opacity:1.;"/>
</linearGradient>
</defs>
<polygon fill="url(#l_0)" points="148.289,-53.7401 44.6492,-107.721 44.6492,0.241193 148.289,-53.7401" stroke="black"/>
<text font-family="Times New Roman,serif" font-size="14.00" text-anchor="middle" x="79.196" y="-57.5401">M1</text>
<text font-family="Times New Roman,serif" font-size="14.00" text-anchor="middle" x="79.196" y="-42.5401">Mixer</text>
</g>
<!-- S1
Splitter -->
<g class="node" id="node2"><title>S1
Splitter</title>
<defs>
<linearGradient gradientUnits="userSpaceOnUse" id="l_1" x1="-0.196446" x2="118.892" y1="-171.74" y2="-171.74">
<stop offset="0" style="stop-color:#bfbfbf;stop-opacity:1.;"/>
<stop offset="1" style="stop-color:white;stop-opacity:1.;"/>
</linearGradient>
</defs>
<polygon fill="url(#l_1)" points="-0.196446,-171.74 118.892,-117.759 118.892,-225.721 -0.196446,-171.74" stroke="black"/>
<text font-family="Times New Roman,serif" font-size="14.00" text-anchor="middle" x="79.196" y="-175.54">S1</text>
<text font-family="Times New Roman,serif" font-size="14.00" text-anchor="middle" x="79.196" y="-160.54">Splitter</text>
</g>
<!-- F1
Flash -->
<g class="node" id="node3"><title>F1
Flash</title>
<defs>
<linearGradient gradientUnits="userSpaceOnUse" id="l_2" x1="207.892" x2="279.892" y1="-257.74" y2="-257.74">
<stop offset="0" style="stop-color:white;stop-opacity:1.;"/>
<stop offset="1" style="stop-color:#cdcdcd;stop-opacity:1.;"/>
</linearGradient>
</defs>
<polygon fill="url(#l_2)" points="279.892,-297.24 207.892,-297.24 207.892,-218.24 279.892,-218.24 279.892,-297.24" stroke="black"/>
<text font-family="Times New Roman,serif" font-size="14.00" text-anchor="middle" x="243.892" y="-261.54">F1</text>
<text font-family="Times New Roman,serif" font-size="14.00" text-anchor="middle" x="243.892" y="-246.54">Flash</text>
</g>
<!-- liquid_product -->
<g class="node" id="node4"><title>liquid_product</title>
<polygon fill="#79dae8" points="275.392,-194.24 194.392,-194.24 194.392,-163.24 275.392,-163.24 275.392,-157.24 293.392,-178.74 275.392,-200.24 275.392,-194.24" stroke="black"/>
<text font-family="Times New Roman,serif" font-size="14.00" text-anchor="middle" x="243.892" y="-175.04">liquid_product</text>
</g>
<!-- s1 -->
<g class="node" id="node5"><title>s1</title>
<polygon fill="#79dae8" points="82.696,-273.24 57.696,-273.24 57.696,-242.24 82.696,-242.24 82.696,-236.24 100.696,-257.74 82.696,-279.24 82.696,-273.24" stroke="black"/>
<text font-family="Times New Roman,serif" font-size="14.00" text-anchor="middle" x="79.196" y="-254.04">s1</text>
</g>
<!-- liquid_recycle -->
<g class="node" id="node6"><title>liquid_recycle</title>
<polygon fill="#79dae8" points="273.392,-140.24 196.392,-140.24 196.392,-109.24 273.392,-109.24 273.392,-103.24 291.392,-124.74 273.392,-146.24 273.392,-140.24" stroke="black"/>
<text font-family="Times New Roman,serif" font-size="14.00" text-anchor="middle" x="243.892" y="-121.04">liquid_recycle</text>
</g>
<!-- vapor_product -->
<g class="node" id="node7"><title>vapor_product</title>
<polygon fill="#79dae8" points="412.392,-313.24 329.392,-313.24 329.392,-282.24 412.392,-282.24 412.392,-276.24 430.392,-297.74 412.392,-319.24 412.392,-313.24" stroke="black"/>
<text font-family="Times New Roman,serif" font-size="14.00" text-anchor="middle" x="379.892" y="-294.04">vapor_product</text>
</g>
<!-- liquid -->
<g class="node" id="node8"><title>liquid</title>
<polygon fill="#79dae8" points="385.392,-233.24 356.392,-233.24 356.392,-202.24 385.392,-202.24 385.392,-196.24 403.392,-217.74 385.392,-239.24 385.392,-233.24" stroke="black"/>
<text font-family="Times New Roman,serif" font-size="14.00" text-anchor="middle" x="379.892" y="-214.04">liquid</text>
</g>
<!-- s5 -->
<g class="node" id="node9"><title>s5</title>
<polygon fill="#79dae8" points="247.392,-69.2401 222.392,-69.2401 222.392,-38.2401 247.392,-38.2401 247.392,-32.2401 265.392,-53.7401 247.392,-75.2401 247.392,-69.2401" stroke="black"/>
<text font-family="Times New Roman,serif" font-size="14.00" text-anchor="middle" x="243.892" y="-50.0401">s5</text>
</g>
</g>
</svg>