<svg height="173pt" viewBox="0.00 0.00 338.00 173.00" width="338pt" xmlns="http://www.w3.org/2000/svg" xmlns:xlink="http://www.w3.org/1999/xlink">
<g class="graph" id="graph0" transform="scale(1 1) rotate(0) translate(4 169)">
<title>unit</title>
<polygon fill="white" points="-4,4 -4,-169 334,-169 334,4 -4,4" stroke="none"/>
<!-- B1
Active boiler&#45;&gt;gas -->
<g class="edge" id="edge2"><title>B1
Active boiler:n-&gt;gas:w</title>
<path d="M167,-126.5C167,-179.266 231.734,-143.5 284.5,-143.5" fill="none" stroke="black"/>
</g>
<!-- B1
Active boiler&#45;&gt;liq -->
<g class="edge" id="edge3"><title>B1
Active boiler:s-&gt;liq:w</title>
<path d="M167,-38.5C167,14.266 231.734,-21.5 284.5,-21.5" fill="none" stroke="black"/>
</g>
<!-- water&#45;&gt;B1
Active boiler -->
<g class="edge" id="edge1"><title>water:e-&gt;B1
Active boiler:c</title>
<path d="M49.5,-82.5C73.7708,-82.5 100.886,-82.5 122.846,-82.5" fill="none" stroke="black"/>
</g>
<!-- B1
Active boiler -->
<g class="node" id="node1"><title>B1
Active boiler</title>
<defs>
<linearGradient gradientUnits="userSpaceOnUse" id="l_0" x1="123" x2="211" y1="-82.5" y2="-82.5">
<stop offset="0" style="stop-color:white;stop-opacity:1.;"/>
<stop offset="1" style="stop-color:#fad6d8;stop-opacity:1.;"/>
</linearGradient>
</defs>
<polygon fill="url(#l_0)" points="211,-125.5 123,-125.5 123,-39.5 211,-39.5 211,-125.5" stroke="black"/>
<text font-family="Times New Roman,serif" font-size="14.00" text-anchor="middle" x="167" y="-86.3">B1</text>
<text font-family="Times New Roman,serif" font-size="14.00" text-anchor="middle" x="167" y="-71.3">Active boiler</text>
</g>
<!-- water -->
<g class="node" id="node2"><title>water</title>
<polygon fill="#79dae8" points="31.5,-98 2.5,-98 2.5,-67 31.5,-67 31.5,-61 49.5,-82.5 31.5,-104 31.5,-98" stroke="black"/>
<text font-family="Times New Roman,serif" font-size="14.00" text-anchor="middle" x="26" y="-78.8">water</text>
</g>
<!-- gas -->
<g class="node" id="node3"><title>gas</title>
<polygon fill="#79dae8" points="309.5,-159 284.5,-159 284.5,-128 309.5,-128 309.5,-122 327.5,-143.5 309.5,-165 309.5,-159" stroke="black"/>
<text font-family="Times New Roman,serif" font-size="14.00" text-anchor="middle" x="306" y="-139.8">gas</text>
</g>
<!-- liq -->
<g class="node" id="node4"><title>liq</title>
<polygon fill="#79dae8" points="309.5,-37 284.5,-37 284.5,-6 309.5,-6 309.5,-0 327.5,-21.5 309.5,-43 309.5,-37" stroke="black"/>
<text font-family="Times New Roman,serif" font-size="14.00" text-anchor="middle" x="306" y="-17.8">liq</text>
</g>
</g>
</svg>