<svg height="352pt" viewBox="0.00 0.00 438.39 351.64" width="438pt" xmlns="http://www.w3.org/2000/svg" xmlns:xlink="http://www.w3.org/1999/xlink">
<g class="graph" id="graph0" transform="scale(1 1) rotate(0) translate(4 347.645)">
<title>%3</title>
<polygon fill="white" points="-4,4 -4,-347.645 434.392,-347.645 434.392,4 -4,4" stroke="none"/>
<!-- F1
Flash&#45;&gt;liquid -->
<g class="edge" id="edge2"><title>F1
Flash:s-&gt;liquid:w</title>
<path d="M243.892,-21.9045C243.892,27.4308 305.557,-22.9045 354.892,-22.9045" fill="none" stroke="black"/>
</g>
<!-- F1
Flash&#45;&gt;vapor_product -->
<g class="edge" id="edge5"><title>F1
Flash:n-&gt;vapor_product:w</title>
<path d="M243.892,-103.905C243.892,-122.906 310.391,-102.905 329.392,-102.905" fill="none" stroke="black"/>
</g>
<!-- S1
Splitter&#45;&gt;liquid_product -->
<g class="edge" id="edge1"><title>S1
Splitter:c-&gt;liquid_product:w</title>
<path d="M119.146,-184.256C141.026,-190.137 168.967,-195.905 194.392,-195.905" fill="none" stroke="black"/>
</g>
<!-- S1
Splitter&#45;&gt;liquid_recycle -->
<g class="edge" id="edge3"><title>S1
Splitter:c-&gt;liquid_recycle:w</title>
<path d="M119.087,-156.465C140.992,-149.114 169.061,-141.905 194.892,-141.905" fill="none" stroke="black"/>
</g>
<!-- M1
Mixer&#45;&gt;s4 -->
<g class="edge" id="edge4"><title>M1
Mixer:e-&gt;s4:w</title>
<path d="M149.196,-289.905C181.061,-289.905 189.027,-289.905 220.892,-289.905" fill="none" stroke="black"/>
</g>
<!-- s1&#45;&gt;F1
Flash -->
<g class="edge" id="edge6"><title>s1:e-&gt;F1
Flash:c</title>
<path d="M102.196,-62.9045C138.103,-62.9045 179.164,-62.9045 207.621,-62.9045" fill="none" stroke="black"/>
</g>
<!-- F1
Flash -->
<g class="node" id="node1"><title>F1
Flash</title>
<defs>
<linearGradient gradientUnits="userSpaceOnUse" id="l_0" x1="207.892" x2="279.892" y1="-62.9045" y2="-62.9045">
<stop offset="0" style="stop-color:white;stop-opacity:1.;"/>
<stop offset="1" style="stop-color:#cdcdcd;stop-opacity:1.;"/>
</linearGradient>
</defs>
<polygon fill="url(#l_0)" points="279.892,-102.405 207.892,-102.405 207.892,-23.4045 279.892,-23.4045 279.892,-102.405" stroke="black"/>
<text font-family="Times New Roman,serif" font-size="14.00" text-anchor="middle" x="243.892" y="-66.7045">F1</text>
<text font-family="Times New Roman,serif" font-size="14.00" text-anchor="middle" x="243.892" y="-51.7045">Flash</text>
</g>
<!-- S1
Splitter -->
<g class="node" id="node2"><title>S1
Splitter</title>
<defs>
<linearGradient gradientUnits="userSpaceOnUse" id="l_1" x1="-0.196446" x2="118.892" y1="-171.905" y2="-171.905">
<stop offset="0" style="stop-color:#bfbfbf;stop-opacity:1.;"/>
<stop offset="1" style="stop-color:white;stop-opacity:1.;"/>
</linearGradient>
</defs>
<polygon fill="url(#l_1)" points="-0.196446,-171.905 118.892,-117.923 118.892,-225.886 -0.196446,-171.905" stroke="black"/>
<text font-family="Times New Roman,serif" font-size="14.00" text-anchor="middle" x="79.196" y="-175.705">S1</text>
<text font-family="Times New Roman,serif" font-size="14.00" text-anchor="middle" x="79.196" y="-160.705">Splitter</text>
</g>
<!-- M1
Mixer -->
<g class="node" id="node3"><title>M1
Mixer</title>
<defs>
<linearGradient gradientUnits="userSpaceOnUse" id="l_2" x1="44.6492" x2="148.289" y1="-289.905" y2="-289.905">
<stop offset="0" style="stop-color:white;stop-opacity:1.;"/>
<stop offset="1" style="stop-color:#cdcdcd;stop-opacity:1.;"/>
</linearGradient>
</defs>
<polygon fill="url(#l_2)" points="148.289,-289.905 44.6492,-343.886 44.6492,-235.923 148.289,-289.905" stroke="black"/>
<text font-family="Times New Roman,serif" font-size="14.00" text-anchor="middle" x="79.196" y="-293.705">M1</text>
<text font-family="Times New Roman,serif" font-size="14.00" text-anchor="middle" x="79.196" y="-278.705">Mixer</text>
</g>
<!-- liquid_product -->
<g class="node" id="node4"><title>liquid_product</title>
<polygon fill="#79dae8" points="275.392,-211.405 194.392,-211.405 194.392,-180.405 275.392,-180.405 275.392,-174.405 293.392,-195.905 275.392,-217.405 275.392,-211.405" stroke="black"/>
<text font-family="Times New Roman,serif" font-size="14.00" text-anchor="middle" x="243.892" y="-192.205">liquid_product</text>
</g>
<!-- liquid -->
<g class="node" id="node5"><title>liquid</title>
<polygon fill="#79dae8" points="385.392,-38.4045 356.392,-38.4045 356.392,-7.40455 385.392,-7.40455 385.392,-1.40455 403.392,-22.9045 385.392,-44.4045 385.392,-38.4045" stroke="black"/>
<text font-family="Times New Roman,serif" font-size="14.00" text-anchor="middle" x="379.892" y="-19.2045">liquid</text>
</g>
<!-- liquid_recycle -->
<g class="node" id="node6"><title>liquid_recycle</title>
<polygon fill="#79dae8" points="273.392,-157.405 196.392,-157.405 196.392,-126.405 273.392,-126.405 273.392,-120.405 291.392,-141.905 273.392,-163.405 273.392,-157.405" stroke="black"/>
<text font-family="Times New Roman,serif" font-size="14.00" text-anchor="middle" x="243.892" y="-138.205">liquid_recycle</text>
</g>
<!-- s4 -->
<g class="node" id="node7"><title>s4</title>
<polygon fill="#79dae8" points="247.392,-305.405 222.392,-305.405 222.392,-274.405 247.392,-274.405 247.392,-268.405 265.392,-289.905 247.392,-311.405 247.392,-305.405" stroke="black"/>
<text font-family="Times New Roman,serif" font-size="14.00" text-anchor="middle" x="243.892" y="-286.205">s4</text>
</g>
<!-- vapor_product -->
<g class="node" id="node8"><title>vapor_product</title>
<polygon fill="#79dae8" points="412.392,-118.405 329.392,-118.405 329.392,-87.4045 412.392,-87.4045 412.392,-81.4045 430.392,-102.905 412.392,-124.405 412.392,-118.405" stroke="black"/>
<text font-family="Times New Roman,serif" font-size="14.00" text-anchor="middle" x="379.892" y="-99.2045">vapor_product</text>
</g>
<!-- s1 -->
<g class="node" id="node9"><title>s1</title>
<polygon fill="#79dae8" points="82.696,-78.4045 57.696,-78.4045 57.696,-47.4045 82.696,-47.4045 82.696,-41.4045 100.696,-62.9045 82.696,-84.4045 82.696,-78.4045" stroke="black"/>
<text font-family="Times New Roman,serif" font-size="14.00" text-anchor="middle" x="79.196" y="-59.2045">s1</text>
</g>
</g>
</svg>