<svg height="173pt" viewBox="0.00 0.00 338.00 173.00" width="338pt" xmlns="http://www.w3.org/2000/svg" xmlns:xlink="http://www.w3.org/1999/xlink">
<g class="graph" id="graph0" transform="scale(1 1) rotate(0) translate(4 169)">
<title>unit</title>
<polygon fill="white" points="-4,4 -4,-169 334,-169 334,4 -4,4" stroke="none"/>
<!-- C1
Centrifuge
LLE&#45;&gt;light -->
<g class="edge" id="edge2"><title>C1
Centrifuge
LLE:c-&gt;light:w</title>
<path d="M192.723,-109.078C214.892,-125.516 246.372,-143.5 278,-143.5" fill="none" stroke="black"/>
</g>
<!-- C1
Centrifuge
LLE&#45;&gt;heavy -->
<g class="edge" id="edge3"><title>C1
Centrifuge
LLE:c-&gt;heavy:w</title>
<path d="M192.27,-55.922C214.127,-39.4837 245.192,-21.5 276.5,-21.5" fill="none" stroke="black"/>
</g>
<!-- d62&#45;&gt;C1
Centrifuge
LLE -->
<g class="edge" id="edge1"><title>d62:e-&gt;C1
Centrifuge
LLE:c</title>
<path d="M46.5,-82.5C72.4119,-82.5 101.651,-82.5 123.963,-82.5" fill="none" stroke="black"/>
</g>
<!-- C1
Centrifuge
LLE -->
<g class="node" id="node1"><title>C1
Centrifuge
LLE</title>
<defs>
<linearGradient gradientUnits="userSpaceOnUse" id="l_0" x1="124" x2="198" y1="-82.5" y2="-82.5">
<stop offset="0" style="stop-color:white;stop-opacity:1.;"/>
<stop offset="1" style="stop-color:#cdcdcd;stop-opacity:1.;"/>
</linearGradient>
</defs>
<polygon fill="url(#l_0)" points="198,-109 124,-109 124,-56 198,-56 198,-109" stroke="black"/>
<text font-family="Times New Roman,serif" font-size="14.00" text-anchor="middle" x="161" y="-93.8">C1</text>
<text font-family="Times New Roman,serif" font-size="14.00" text-anchor="middle" x="161" y="-78.8">Centrifuge</text>
<text font-family="Times New Roman,serif" font-size="14.00" text-anchor="middle" x="161" y="-63.8">LLE</text>
</g>
<!-- d62 -->
<g class="node" id="node2"><title>d62</title>
<polygon fill="#79dae8" points="28.5,-98 3.5,-98 3.5,-67 28.5,-67 28.5,-61 46.5,-82.5 28.5,-104 28.5,-98" stroke="black"/>
<text font-family="Times New Roman,serif" font-size="14.00" text-anchor="middle" x="25" y="-78.8">d62</text>
</g>
<!-- light -->
<g class="node" id="node3"><title>light</title>
<polygon fill="#79dae8" points="304.5,-159 279.5,-159 279.5,-128 304.5,-128 304.5,-122 322.5,-143.5 304.5,-165 304.5,-159" stroke="black"/>
<text font-family="Times New Roman,serif" font-size="14.00" text-anchor="middle" x="301" y="-139.8">light</text>
</g>
<!-- heavy -->
<g class="node" id="node4"><title>heavy</title>
<polygon fill="#79dae8" points="307.5,-37 276.5,-37 276.5,-6 307.5,-6 307.5,-0 325.5,-21.5 307.5,-43 307.5,-37" stroke="black"/>
<text font-family="Times New Roman,serif" font-size="14.00" text-anchor="middle" x="301" y="-17.8">heavy</text>
</g>
</g>
</svg>