<svg height="173pt" viewBox="0.00 0.00 338.00 173.00" width="338pt" xmlns="http://www.w3.org/2000/svg" xmlns:xlink="http://www.w3.org/1999/xlink">
<g class="graph" id="graph0" transform="scale(1 1) rotate(0) translate(4 169)">
<title>unit</title>
<polygon fill="white" points="-4,4 -4,-169 334,-169 334,4 -4,4" stroke="none"/>
<!-- C1
Liquids centrifuge&#45;&gt;light -->
<g class="edge" id="edge2"><title>C1
Liquids centrifuge:c-&gt;light:w</title>
<path d="M188.04,-104.178C210.911,-121.711 246.48,-143.5 282,-143.5" fill="none" stroke="black"/>
</g>
<!-- C1
Liquids centrifuge&#45;&gt;heavy -->
<g class="edge" id="edge3"><title>C1
Liquids centrifuge:c-&gt;heavy:w</title>
<path d="M187.679,-60.8219C210.232,-43.2888 245.334,-21.5 280.5,-21.5" fill="none" stroke="black"/>
</g>
<!-- S5&#45;&gt;C1
Liquids centrifuge -->
<g class="edge" id="edge1"><title>S5:e-&gt;C1
Liquids centrifuge:c</title>
<path d="M43.5,-82.5C62.9813,-82.5 84.2795,-82.5 103.328,-82.5" fill="none" stroke="black"/>
</g>
<!-- C1
Liquids centrifuge -->
<g class="node" id="node1"><title>C1
Liquids centrifuge</title>
<defs>
<linearGradient gradientUnits="userSpaceOnUse" id="l_0" x1="103.5" x2="220.5" y1="-82.5" y2="-82.5">
<stop offset="0" style="stop-color:white;stop-opacity:1.;"/>
<stop offset="1" style="stop-color:#cdcdcd;stop-opacity:1.;"/>
</linearGradient>
</defs>
<polygon fill="url(#l_0)" points="220.5,-104 103.5,-104 103.5,-61 220.5,-61 220.5,-104" stroke="black"/>
<text font-family="Times New Roman,serif" font-size="14.00" text-anchor="middle" x="162" y="-86.3">C1</text>
<text font-family="Times New Roman,serif" font-size="14.00" text-anchor="middle" x="162" y="-71.3">Liquids centrifuge</text>
</g>
<!-- S5 -->
<g class="node" id="node2"><title>S5</title>
<polygon fill="#79dae8" points="25.5,-98 0.5,-98 0.5,-67 25.5,-67 25.5,-61 43.5,-82.5 25.5,-104 25.5,-98" stroke="black"/>
<text font-family="Times New Roman,serif" font-size="14.00" text-anchor="middle" x="22" y="-78.8">S5</text>
</g>
<!-- light -->
<g class="node" id="node3"><title>light</title>
<polygon fill="#79dae8" points="308.5,-159 283.5,-159 283.5,-128 308.5,-128 308.5,-122 326.5,-143.5 308.5,-165 308.5,-159" stroke="black"/>
<text font-family="Times New Roman,serif" font-size="14.00" text-anchor="middle" x="305" y="-139.8">light</text>
</g>
<!-- heavy -->
<g class="node" id="node4"><title>heavy</title>
<polygon fill="#79dae8" points="311.5,-37 280.5,-37 280.5,-6 311.5,-6 311.5,-0 329.5,-21.5 311.5,-43 311.5,-37" stroke="black"/>
<text font-family="Times New Roman,serif" font-size="14.00" text-anchor="middle" x="305" y="-17.8">heavy</text>
</g>
</g>
</svg>