<svg height="173pt" viewBox="0.00 0.00 338.00 173.00" width="338pt" xmlns="http://www.w3.org/2000/svg" xmlns:xlink="http://www.w3.org/1999/xlink">
<g class="graph" id="graph0" transform="scale(1 1) rotate(0) translate(4 169)">
<title>unit</title>
<polygon fill="white" points="-4,4 -4,-169 334,-169 334,4 -4,4" stroke="none"/>
<!-- P1
Unit&#45;&gt;d2 -->
<g class="edge" id="edge2"><title>P1
Unit:c-&gt;d2:w</title>
<path d="M186.812,-101.801C208.32,-119.672 243.707,-143.5 279.5,-143.5" fill="none" stroke="black"/>
</g>
<!-- P1
Unit&#45;&gt;d3 -->
<g class="edge" id="edge3"><title>P1
Unit:c-&gt;d3:w</title>
<path d="M186.812,-63.1992C208.32,-45.3281 243.707,-21.5 279.5,-21.5" fill="none" stroke="black"/>
</g>
<!-- d1&#45;&gt;P1
Unit -->
<g class="edge" id="edge1"><title>d1:e-&gt;P1
Unit:c</title>
<path d="M50.5,-82.5C83.013,-82.5 120.765,-82.5 143.496,-82.5" fill="none" stroke="black"/>
</g>
<!-- P1
Unit -->
<g class="node" id="node1"><title>P1
Unit</title>
<defs>
<linearGradient gradientUnits="userSpaceOnUse" id="l_0" x1="143.5" x2="186.5" y1="-82.5" y2="-82.5">
<stop offset="0" style="stop-color:white;stop-opacity:1.;"/>
<stop offset="1" style="stop-color:#cdcdcd;stop-opacity:1.;"/>
</linearGradient>
</defs>
<polygon fill="url(#l_0)" points="186.5,-104 143.5,-104 143.5,-61 186.5,-61 186.5,-104" stroke="black"/>
<text font-family="Times New Roman,serif" font-size="14.00" text-anchor="middle" x="165" y="-86.3">P1</text>
<text font-family="Times New Roman,serif" font-size="14.00" text-anchor="middle" x="165" y="-71.3">Unit</text>
</g>
<!-- d1 -->
<g class="node" id="node2"><title>d1</title>
<polygon fill="#79dae8" points="32.5,-98 7.5,-98 7.5,-67 32.5,-67 32.5,-61 50.5,-82.5 32.5,-104 32.5,-98" stroke="black"/>
<text font-family="Times New Roman,serif" font-size="14.00" text-anchor="middle" x="29" y="-78.8">d1</text>
</g>
<!-- d2 -->
<g class="node" id="node3"><title>d2</title>
<polygon fill="#79dae8" points="304.5,-159 279.5,-159 279.5,-128 304.5,-128 304.5,-122 322.5,-143.5 304.5,-165 304.5,-159" stroke="black"/>
<text font-family="Times New Roman,serif" font-size="14.00" text-anchor="middle" x="301" y="-139.8">d2</text>
</g>
<!-- d3 -->
<g class="node" id="node4"><title>d3</title>
<polygon fill="#79dae8" points="304.5,-37 279.5,-37 279.5,-6 304.5,-6 304.5,-0 322.5,-21.5 304.5,-43 304.5,-37" stroke="black"/>
<text font-family="Times New Roman,serif" font-size="14.00" text-anchor="middle" x="301" y="-17.8">d3</text>
</g>
</g>
</svg>