<svg height="173pt" viewBox="0.00 0.00 338.00 173.00" width="338pt" xmlns="http://www.w3.org/2000/svg" xmlns:xlink="http://www.w3.org/1999/xlink">
<g class="graph" id="graph0" transform="scale(1 1) rotate(0) translate(4 169)">
<title>unit</title>
<polygon fill="white" points="-4,4 -4,-169 334,-169 334,4 -4,4" stroke="none"/>
<!-- F1
Reactor&#45;&gt;CO2 -->
<g class="edge" id="edge2"><title>F1
Reactor:c-&gt;CO2:w</title>
<path d="M179.317,-104.178C201.552,-121.711 236.187,-143.5 271,-143.5" fill="none" stroke="black"/>
</g>
<!-- F1
Reactor&#45;&gt;product -->
<g class="edge" id="edge3"><title>F1
Reactor:c-&gt;product:w</title>
<path d="M177.502,-60.8219C198.139,-43.2888 230.437,-21.5 263.5,-21.5" fill="none" stroke="black"/>
</g>
<!-- feed&#45;&gt;F1
Reactor -->
<g class="edge" id="edge1"><title>feed:e-&gt;F1
Reactor:c</title>
<path d="M46.5,-82.5C72.3854,-82.5 101.81,-82.5 123.161,-82.5" fill="none" stroke="black"/>
</g>
<!-- F1
Reactor -->
<g class="node" id="node1"><title>F1
Reactor</title>
<defs>
<linearGradient gradientUnits="userSpaceOnUse" id="l_0" x1="123.5" x2="184.5" y1="-82.5" y2="-82.5">
<stop offset="0" style="stop-color:white;stop-opacity:1.;"/>
<stop offset="1" style="stop-color:#cdcdcd;stop-opacity:1.;"/>
</linearGradient>
</defs>
<polygon fill="url(#l_0)" points="184.5,-104 123.5,-104 123.5,-61 184.5,-61 184.5,-104" stroke="black"/>
<text font-family="Times New Roman,serif" font-size="14.00" text-anchor="middle" x="154" y="-86.3">F1</text>
<text font-family="Times New Roman,serif" font-size="14.00" text-anchor="middle" x="154" y="-71.3">Reactor</text>
</g>
<!-- feed -->
<g class="node" id="node2"><title>feed</title>
<polygon fill="#79dae8" points="28.5,-98 3.5,-98 3.5,-67 28.5,-67 28.5,-61 46.5,-82.5 28.5,-104 28.5,-98" stroke="black"/>
<text font-family="Times New Roman,serif" font-size="14.00" text-anchor="middle" x="25" y="-78.8">feed</text>
</g>
<!-- CO2 -->
<g class="node" id="node3"><title>CO2</title>
<polygon fill="#79dae8" points="298,-159 272,-159 272,-128 298,-128 298,-122 316,-143.5 298,-165 298,-159" stroke="black"/>
<text font-family="Times New Roman,serif" font-size="14.00" text-anchor="middle" x="294" y="-139.8">CO2</text>
</g>
<!-- product -->
<g class="node" id="node4"><title>product</title>
<polygon fill="#79dae8" points="306.5,-37 263.5,-37 263.5,-6 306.5,-6 306.5,-0 324.5,-21.5 306.5,-43 306.5,-37" stroke="black"/>
<text font-family="Times New Roman,serif" font-size="14.00" text-anchor="middle" x="294" y="-17.8">product</text>
</g>
</g>
</svg>