<svg height="233pt" viewBox="0.00 0.00 225.59 233.48" width="226pt" xmlns="http://www.w3.org/2000/svg" xmlns:xlink="http://www.w3.org/1999/xlink">
<g class="graph" id="graph0" transform="scale(1 1) rotate(0) translate(4 229.48)">
<title>%3</title>
<polygon fill="white" points="-4,4 -4,-229.48 221.593,-229.48 221.593,4 -4,4" stroke="none"/>
<!-- M1
Mixer&#45;&gt;d2 -->
<g class="edge" id="edge2"><title>M1
Mixer:e-&gt;d2:w</title>
<path d="M138.593,-53.7401C154.593,-53.7401 158.593,-53.7401 174.593,-53.7401" fill="none" stroke="black"/>
</g>
<!-- M0
Mixer&#45;&gt;d1 -->
<g class="edge" id="edge1"><title>M0
Mixer:e-&gt;d1:w</title>
<path d="M138.593,-171.74C154.593,-171.74 158.593,-171.74 174.593,-171.74" fill="none" stroke="black"/>
</g>
<!-- M1
Mixer -->
<g class="node" id="node1"><title>M1
Mixer</title>
<defs>
<linearGradient gradientUnits="userSpaceOnUse" id="l_0" x1="34.7497" x2="138.39" y1="-53.7401" y2="-53.7401">
<stop offset="0" style="stop-color:white;stop-opacity:1.;"/>
<stop offset="1" style="stop-color:#cdcdcd;stop-opacity:1.;"/>
</linearGradient>
</defs>
<polygon fill="url(#l_0)" points="138.39,-53.7401 34.7497,-107.721 34.7497,0.241193 138.39,-53.7401" stroke="black"/>
<text font-family="Times New Roman,serif" font-size="14.00" text-anchor="middle" x="69.2965" y="-57.5401">M1</text>
<text font-family="Times New Roman,serif" font-size="14.00" text-anchor="middle" x="69.2965" y="-42.5401">Mixer</text>
</g>
<!-- M0
Mixer -->
<g class="node" id="node2"><title>M0
Mixer</title>
<defs>
<linearGradient gradientUnits="userSpaceOnUse" id="l_1" x1="34.7497" x2="138.39" y1="-171.74" y2="-171.74">
<stop offset="0" style="stop-color:white;stop-opacity:1.;"/>
<stop offset="1" style="stop-color:#cdcdcd;stop-opacity:1.;"/>
</linearGradient>
</defs>
<polygon fill="url(#l_1)" points="138.39,-171.74 34.7497,-225.721 34.7497,-117.759 138.39,-171.74" stroke="black"/>
<text font-family="Times New Roman,serif" font-size="14.00" text-anchor="middle" x="69.2965" y="-175.54">M0</text>
<text font-family="Times New Roman,serif" font-size="14.00" text-anchor="middle" x="69.2965" y="-160.54">Mixer</text>
</g>
<!-- d1 -->
<g class="node" id="node3"><title>d1</title>
<polygon fill="#79dae8" points="199.593,-187.24 174.593,-187.24 174.593,-156.24 199.593,-156.24 199.593,-150.24 217.593,-171.74 199.593,-193.24 199.593,-187.24" stroke="black"/>
<text font-family="Times New Roman,serif" font-size="14.00" text-anchor="middle" x="196.093" y="-168.04">d1</text>
</g>
<!-- d2 -->
<g class="node" id="node4"><title>d2</title>
<polygon fill="#79dae8" points="199.593,-69.2401 174.593,-69.2401 174.593,-38.2401 199.593,-38.2401 199.593,-32.2401 217.593,-53.7401 199.593,-75.2401 199.593,-69.2401" stroke="black"/>
<text font-family="Times New Roman,serif" font-size="14.00" text-anchor="middle" x="196.093" y="-50.0401">d2</text>
</g>
</g>
</svg>