<svg height="173pt" viewBox="0.00 0.00 338.04 173.00" width="338pt" xmlns="http://www.w3.org/2000/svg" xmlns:xlink="http://www.w3.org/1999/xlink">
<g class="graph" id="graph0" transform="scale(1 1) rotate(0) translate(4 169)">
<title>unit</title>
<polygon fill="white" points="-4,4 -4,-169 334.043,-169 334.043,4 -4,4" stroke="none"/>
<!-- hx
Heat exchanger&#45;&gt;out1 -->
<g class="edge" id="edge3"><title>hx
Heat exchanger:c-&gt;out1:w</title>
<path d="M212.889,-118.865C234.17,-131.928 260.399,-143.5 286.543,-143.5" fill="none" stroke="black"/>
</g>
<!-- hx
Heat exchanger&#45;&gt;out2 -->
<g class="edge" id="edge4"><title>hx
Heat exchanger:c-&gt;out2:w</title>
<path d="M212.889,-46.1352C234.17,-33.0718 260.399,-21.5 286.543,-21.5" fill="none" stroke="black"/>
</g>
<!-- in1&#45;&gt;hx
Heat exchanger -->
<g class="edge" id="edge1"><title>in1:e-&gt;hx
Heat exchanger:c</title>
<path d="M43.5432,-143.5C69.6877,-143.5 95.9168,-131.928 117.197,-118.865" fill="none" stroke="black"/>
</g>
<!-- in2&#45;&gt;hx
Heat exchanger -->
<g class="edge" id="edge2"><title>in2:e-&gt;hx
Heat exchanger:c</title>
<path d="M43.5432,-21.5C69.6877,-21.5 95.9168,-33.0718 117.197,-46.1352" fill="none" stroke="black"/>
</g>
<!-- hx
Heat exchanger -->
<g class="node" id="node1"><title>hx
Heat exchanger</title>
<defs>
<linearGradient gradientUnits="userSpaceOnUse" id="l_0" x1="165.043" x2="165.043" y1="-22.4578" y2="-142.542">
<stop offset="0" style="stop-color:#cfecf0;stop-opacity:1.;"/>
<stop offset="1" style="stop-color:#fad6d8;stop-opacity:1.;"/>
</linearGradient>
</defs>
<ellipse cx="165.043" cy="-82.5" fill="url(#l_0)" rx="60.0422" ry="60.0422" stroke="none"/>
<text font-family="Times New Roman,serif" font-size="14.00" text-anchor="middle" x="165.043" y="-86.3">hx</text>
<text font-family="Times New Roman,serif" font-size="14.00" text-anchor="middle" x="165.043" y="-71.3">Heat exchanger</text>
</g>
<!-- in1 -->
<g class="node" id="node2"><title>in1</title>
<polygon fill="#79dae8" points="25.5432,-159 0.543207,-159 0.543207,-128 25.5432,-128 25.5432,-122 43.5432,-143.5 25.5432,-165 25.5432,-159" stroke="black"/>
<text font-family="Times New Roman,serif" font-size="14.00" text-anchor="middle" x="22.0432" y="-139.8">in1</text>
</g>
<!-- in2 -->
<g class="node" id="node3"><title>in2</title>
<polygon fill="#79dae8" points="25.5432,-37 0.543207,-37 0.543207,-6 25.5432,-6 25.5432,-0 43.5432,-21.5 25.5432,-43 25.5432,-37" stroke="black"/>
<text font-family="Times New Roman,serif" font-size="14.00" text-anchor="middle" x="22.0432" y="-17.8">in2</text>
</g>
<!-- out1 -->
<g class="node" id="node4"><title>out1</title>
<polygon fill="#79dae8" points="311.543,-159 286.543,-159 286.543,-128 311.543,-128 311.543,-122 329.543,-143.5 311.543,-165 311.543,-159" stroke="black"/>
<text font-family="Times New Roman,serif" font-size="14.00" text-anchor="middle" x="308.043" y="-139.8">out1</text>
</g>
<!-- out2 -->
<g class="node" id="node5"><title>out2</title>
<polygon fill="#79dae8" points="311.543,-37 286.543,-37 286.543,-6 311.543,-6 311.543,-0 329.543,-21.5 311.543,-43 311.543,-37" stroke="black"/>
<text font-family="Times New Roman,serif" font-size="14.00" text-anchor="middle" x="308.043" y="-17.8">out2</text>
</g>
</g>
</svg>