<svg height="315pt" viewBox="0.00 0.00 580.20 315.24" width="580pt" xmlns="http://www.w3.org/2000/svg" xmlns:xlink="http://www.w3.org/1999/xlink">
<g class="graph" id="graph0" transform="scale(1 1) rotate(0) translate(4 311.24)">
<title>diagram</title>
<polygon fill="white" points="-4,4 -4,-311.24 576.203,-311.24 576.203,4 -4,4" stroke="none"/>
<!-- F1
Flash&#45;&gt;S1
Splitter -->
<g class="edge" id="edge9"><title>F1
Flash:s-&gt;S1
Splitter:w</title>
<path d="M129,-88.7401C129,-50.4807 167.191,-52.9698 205.697,-53.6357" fill="none" stroke="black"/>
<polygon fill="black" points="205.965,-57.1385 216,-53.7401 206.036,-50.1388 205.965,-57.1385" stroke="black"/>
<text font-family="Times New Roman,serif" font-size="14.00" text-anchor="middle" x="190.5" y="-57.5401">d9</text>
</g>
<!-- F1
Flash&#45;&gt;d8 -->
<g class="edge" id="edge8"><title>F1
Flash:n-&gt;d8:w</title>
<path d="M129,-170.74C129,-234.459 208.477,-177.74 272.196,-177.74" fill="none" stroke="black"/>
</g>
<!-- M1
Mixer&#45;&gt;F1
Flash -->
<g class="edge" id="edge5"><title>M1
Mixer:e-&gt;F1
Flash:c</title>
<path d="M564.688,-165.74C576.633,-165.74 572.212,-211.113 563.688,-219.48 519.824,-262.536 478.979,-249.587 425.392,-219.48 415.894,-214.144 383.824,-141.192 374.392,-135.74 341.741,-116.865 236.643,-121.305 175.421,-125.785" fill="none" stroke="black"/>
<polygon fill="black" points="174.964,-122.31 165.259,-126.559 175.496,-129.29 174.964,-122.31" stroke="black"/>
<text font-family="Times New Roman,serif" font-size="14.00" text-anchor="middle" x="295.196" y="-140.54">d5</text>
</g>
<!-- P1
Pump&#45;&gt;M1
Mixer -->
<g class="edge" id="edge3"><title>P1
Pump:c-&gt;M1
Mixer:c</title>
<path d="M320.317,-279.647C336.229,-275.096 357.225,-268.058 374.392,-258.74 402.245,-243.621 430.348,-222.09 452.276,-203.551" fill="none" stroke="black"/>
<polygon fill="black" points="454.75,-206.041 460.064,-196.874 450.194,-200.726 454.75,-206.041" stroke="black"/>
<text font-family="Times New Roman,serif" font-size="14.00" text-anchor="middle" x="399.892" y="-250.54">d3</text>
</g>
<!-- P2
Pump&#45;&gt;M1
Mixer -->
<g class="edge" id="edge4"><title>P2
Pump:c-&gt;M1
Mixer:c</title>
<path d="M320.412,-223.647C352.697,-212.858 410.391,-193.577 450.286,-180.245" fill="none" stroke="black"/>
<polygon fill="black" points="451.644,-183.481 460.019,-176.992 449.425,-176.842 451.644,-183.481" stroke="black"/>
<text font-family="Times New Roman,serif" font-size="14.00" text-anchor="middle" x="399.892" y="-202.54">d4</text>
</g>
<!-- S1
Splitter&#45;&gt;M1
Mixer -->
<g class="edge" id="edge6"><title>S1
Splitter:c-&gt;M1
Mixer:c</title>
<path d="M335.03,-70.4628C356.736,-80.2498 384.038,-93.2989 407.392,-106.74 422.242,-115.287 437.875,-125.554 451.694,-135.109" fill="none" stroke="black"/>
<polygon fill="black" points="449.84,-138.084 460.041,-140.946 453.851,-132.347 449.84,-138.084" stroke="black"/>
<text font-family="Times New Roman,serif" font-size="14.00" text-anchor="middle" x="399.892" y="-110.54">d6</text>
</g>
<!-- S1
Splitter&#45;&gt;d7 -->
<g class="edge" id="edge7"><title>S1
Splitter:c-&gt;d7:w</title>
<path d="M335.229,-53.7401C370.792,-53.7401 424.769,-53.7401 471.688,-53.7401" fill="none" stroke="black"/>
</g>
<!-- T1
Tank&#45;&gt;P1
Pump -->
<g class="edge" id="edge1"><title>T1
Tank:c-&gt;P1
Pump:c</title>
<path d="M151.804,-285.74C179.392,-285.74 227.225,-285.74 259.768,-285.74" fill="none" stroke="black"/>
<polygon fill="black" points="260.167,-289.24 270.167,-285.74 260.167,-282.24 260.167,-289.24" stroke="black"/>
<text font-family="Times New Roman,serif" font-size="14.00" text-anchor="middle" x="190.5" y="-289.54">d1</text>
</g>
<!-- T2
Tank&#45;&gt;P2
Pump -->
<g class="edge" id="edge2"><title>T2
Tank:c-&gt;P2
Pump:c</title>
<path d="M151.804,-231.74C179.392,-231.74 227.225,-231.74 259.768,-231.74" fill="none" stroke="black"/>
<polygon fill="black" points="260.167,-235.24 270.167,-231.74 260.167,-228.24 260.167,-235.24" stroke="black"/>
<text font-family="Times New Roman,serif" font-size="14.00" text-anchor="middle" x="190.5" y="-235.54">d2</text>
</g>
<!-- ethanol&#45;&gt;T2
Tank -->
<g class="edge" id="edge10"><title>ethanol:e-&gt;T2
Tank:c</title>
<path d="M56,-231.74C72.875,-231.74 91.9747,-231.74 106.26,-231.74" fill="none" stroke="black"/>
</g>
<!-- water&#45;&gt;T1
Tank -->
<g class="edge" id="edge11"><title>water:e-&gt;T1
Tank:c</title>
<path d="M53,-285.74C70.9688,-285.74 91.3591,-285.74 106.339,-285.74" fill="none" stroke="black"/>
</g>
<!-- F1
Flash -->
<g class="node" id="node1"><title>F1
Flash</title>
<defs>
<linearGradient gradientUnits="userSpaceOnUse" id="l_0" x1="93" x2="165" y1="-129.74" y2="-129.74">
<stop offset="0" style="stop-color:white;stop-opacity:1.;"/>
<stop offset="1" style="stop-color:#cdcdcd;stop-opacity:1.;"/>
</linearGradient>
</defs>
<polygon fill="url(#l_0)" points="165,-169.24 93,-169.24 93,-90.2401 165,-90.2401 165,-169.24" stroke="black"/>
<text font-family="Times New Roman,serif" font-size="14.00" text-anchor="middle" x="129" y="-133.54">F1</text>
<text font-family="Times New Roman,serif" font-size="14.00" text-anchor="middle" x="129" y="-118.54">Flash</text>
</g>
<!-- M1
Mixer -->
<g class="node" id="node2"><title>M1
Mixer</title>
<defs>
<linearGradient gradientUnits="userSpaceOnUse" id="l_1" x1="460.142" x2="563.782" y1="-165.74" y2="-165.74">
<stop offset="0" style="stop-color:white;stop-opacity:1.;"/>
<stop offset="1" style="stop-color:#cdcdcd;stop-opacity:1.;"/>
</linearGradient>
</defs>
<polygon fill="url(#l_1)" points="563.782,-165.74 460.142,-219.721 460.142,-111.759 563.782,-165.74" stroke="black"/>
<text font-family="Times New Roman,serif" font-size="14.00" text-anchor="middle" x="494.688" y="-169.54">M1</text>
<text font-family="Times New Roman,serif" font-size="14.00" text-anchor="middle" x="494.688" y="-154.54">Mixer</text>
</g>
<!-- P1
Pump -->
<g class="node" id="node3"><title>P1
Pump</title>
<defs>
<linearGradient gradientUnits="userSpaceOnUse" id="l_2" x1="270.196" x2="320.196" y1="-285.74" y2="-285.74">
<stop offset="0" style="stop-color:white;stop-opacity:1.;"/>
<stop offset="1" style="stop-color:#cdcdcd;stop-opacity:1.;"/>
</linearGradient>
</defs>
<polygon fill="url(#l_2)" points="320.196,-307.24 270.196,-307.24 270.196,-264.24 320.196,-264.24 320.196,-307.24" stroke="black"/>
<text font-family="Times New Roman,serif" font-size="14.00" text-anchor="middle" x="295.196" y="-289.54">P1</text>
<text font-family="Times New Roman,serif" font-size="14.00" text-anchor="middle" x="295.196" y="-274.54">Pump</text>
</g>
<!-- P2
Pump -->
<g class="node" id="node4"><title>P2
Pump</title>
<defs>
<linearGradient gradientUnits="userSpaceOnUse" id="l_3" x1="270.196" x2="320.196" y1="-231.74" y2="-231.74">
<stop offset="0" style="stop-color:white;stop-opacity:1.;"/>
<stop offset="1" style="stop-color:#cdcdcd;stop-opacity:1.;"/>
</linearGradient>
</defs>
<polygon fill="url(#l_3)" points="320.196,-253.24 270.196,-253.24 270.196,-210.24 320.196,-210.24 320.196,-253.24" stroke="black"/>
<text font-family="Times New Roman,serif" font-size="14.00" text-anchor="middle" x="295.196" y="-235.54">P2</text>
<text font-family="Times New Roman,serif" font-size="14.00" text-anchor="middle" x="295.196" y="-220.54">Pump</text>
</g>
<!-- S1
Splitter -->
<g class="node" id="node5"><title>S1
Splitter</title>
<defs>
<linearGradient gradientUnits="userSpaceOnUse" id="l_4" x1="215.804" x2="334.892" y1="-53.7401" y2="-53.7401">
<stop offset="0" style="stop-color:#bfbfbf;stop-opacity:1.;"/>
<stop offset="1" style="stop-color:white;stop-opacity:1.;"/>
</linearGradient>
</defs>
<polygon fill="url(#l_4)" points="215.804,-53.7401 334.892,0.241193 334.892,-107.721 215.804,-53.7401" stroke="black"/>
<text font-family="Times New Roman,serif" font-size="14.00" text-anchor="middle" x="295.196" y="-57.5401">S1</text>
<text font-family="Times New Roman,serif" font-size="14.00" text-anchor="middle" x="295.196" y="-42.5401">Splitter</text>
</g>
<!-- T1
Tank -->
<g class="node" id="node6"><title>T1
Tank</title>
<defs>
<linearGradient gradientUnits="userSpaceOnUse" id="l_5" x1="106.5" x2="151.5" y1="-285.74" y2="-285.74">
<stop offset="0" style="stop-color:white;stop-opacity:1.;"/>
<stop offset="1" style="stop-color:#cdcdcd;stop-opacity:1.;"/>
</linearGradient>
</defs>
<polygon fill="url(#l_5)" points="151.5,-307.24 106.5,-307.24 106.5,-264.24 151.5,-264.24 151.5,-307.24" stroke="black"/>
<text font-family="Times New Roman,serif" font-size="14.00" text-anchor="middle" x="129" y="-289.54">T1</text>
<text font-family="Times New Roman,serif" font-size="14.00" text-anchor="middle" x="129" y="-274.54">Tank</text>
</g>
<!-- T2
Tank -->
<g class="node" id="node7"><title>T2
Tank</title>
<defs>
<linearGradient gradientUnits="userSpaceOnUse" id="l_6" x1="106.5" x2="151.5" y1="-231.74" y2="-231.74">
<stop offset="0" style="stop-color:white;stop-opacity:1.;"/>
<stop offset="1" style="stop-color:#cdcdcd;stop-opacity:1.;"/>
</linearGradient>
</defs>
<polygon fill="url(#l_6)" points="151.5,-253.24 106.5,-253.24 106.5,-210.24 151.5,-210.24 151.5,-253.24" stroke="black"/>
<text font-family="Times New Roman,serif" font-size="14.00" text-anchor="middle" x="129" y="-235.54">T2</text>
<text font-family="Times New Roman,serif" font-size="14.00" text-anchor="middle" x="129" y="-220.54">Tank</text>
</g>
<!-- d7 -->
<g class="node" id="node8"><title>d7</title>
<polygon fill="#79dae8" points="498.188,-69.2401 473.188,-69.2401 473.188,-38.2401 498.188,-38.2401 498.188,-32.2401 516.188,-53.7401 498.188,-75.2401 498.188,-69.2401" stroke="black"/>
<text font-family="Times New Roman,serif" font-size="14.00" text-anchor="middle" x="494.688" y="-50.0401">d7</text>
</g>
<!-- d8 -->
<g class="node" id="node9"><title>d8</title>
<polygon fill="#79dae8" points="298.696,-193.24 273.696,-193.24 273.696,-162.24 298.696,-162.24 298.696,-156.24 316.696,-177.74 298.696,-199.24 298.696,-193.24" stroke="black"/>
<text font-family="Times New Roman,serif" font-size="14.00" text-anchor="middle" x="295.196" y="-174.04">d8</text>
</g>
<!-- ethanol -->
<g class="node" id="node10"><title>ethanol</title>
<polygon fill="#79dae8" points="38,-247.24 3.55271e-015,-247.24 3.55271e-015,-216.24 38,-216.24 38,-210.24 56,-231.74 38,-253.24 38,-247.24" stroke="black"/>
<text font-family="Times New Roman,serif" font-size="14.00" text-anchor="middle" x="28" y="-228.04">ethanol</text>
</g>
<!-- water -->
<g class="node" id="node11"><title>water</title>
<polygon fill="#79dae8" points="33.5,-301.24 4.5,-301.24 4.5,-270.24 33.5,-270.24 33.5,-264.24 51.5,-285.74 33.5,-307.24 33.5,-301.24" stroke="black"/>
<text font-family="Times New Roman,serif" font-size="14.00" text-anchor="middle" x="28" y="-282.04">water</text>
</g>
</g>
</svg>