<svg height="173pt" viewBox="0.00 0.00 338.00 173.00" width="338pt" xmlns="http://www.w3.org/2000/svg" xmlns:xlink="http://www.w3.org/1999/xlink">
<g class="graph" id="graph0" transform="scale(1 1) rotate(0) translate(4 169)">
<title>unit</title>
<polygon fill="white" points="-4,4 -4,-169 334,-169 334,4 -4,4" stroke="none"/>
<!-- R1
Reactor&#45;&gt;product -->
<g class="edge" id="edge3"><title>R1
Reactor:c-&gt;product:w</title>
<path d="M198.871,-82.5C218.167,-82.5 243.818,-82.5 266.5,-82.5" fill="none" stroke="black"/>
</g>
<!-- lipid&#45;&gt;R1
Reactor -->
<g class="edge" id="edge1"><title>lipid:e-&gt;R1
Reactor:c</title>
<path d="M59,-143.5C91.9471,-143.5 124.089,-121.711 144.62,-104.178" fill="none" stroke="black"/>
</g>
<!-- methanol&#45;&gt;R1
Reactor -->
<g class="edge" id="edge2"><title>methanol:e-&gt;R1
Reactor:c</title>
<path d="M69.5,-21.5C100.049,-21.5 128.909,-43.2888 147.187,-60.8219" fill="none" stroke="black"/>
</g>
<!-- R1
Reactor -->
<g class="node" id="node1"><title>R1
Reactor</title>
<defs>
<linearGradient gradientUnits="userSpaceOnUse" id="l_0" x1="137.5" x2="198.5" y1="-82.5" y2="-82.5">
<stop offset="0" style="stop-color:white;stop-opacity:1.;"/>
<stop offset="1" style="stop-color:#cdcdcd;stop-opacity:1.;"/>
</linearGradient>
</defs>
<polygon fill="url(#l_0)" points="198.5,-104 137.5,-104 137.5,-61 198.5,-61 198.5,-104" stroke="black"/>
<text font-family="Times New Roman,serif" font-size="14.00" text-anchor="middle" x="168" y="-86.3">R1</text>
<text font-family="Times New Roman,serif" font-size="14.00" text-anchor="middle" x="168" y="-71.3">Reactor</text>
</g>
<!-- lipid -->
<g class="node" id="node2"><title>lipid</title>
<polygon fill="#79dae8" points="39.5,-159 14.5,-159 14.5,-128 39.5,-128 39.5,-122 57.5,-143.5 39.5,-165 39.5,-159" stroke="black"/>
<text font-family="Times New Roman,serif" font-size="14.00" text-anchor="middle" x="36" y="-139.8">lipid</text>
</g>
<!-- methanol -->
<g class="node" id="node3"><title>methanol</title>
<polygon fill="#79dae8" points="51.5,-37 2.5,-37 2.5,-6 51.5,-6 51.5,-0 69.5,-21.5 51.5,-43 51.5,-37" stroke="black"/>
<text font-family="Times New Roman,serif" font-size="14.00" text-anchor="middle" x="36" y="-17.8">methanol</text>
</g>
<!-- product -->
<g class="node" id="node4"><title>product</title>
<polygon fill="#79dae8" points="309.5,-98 266.5,-98 266.5,-67 309.5,-67 309.5,-61 327.5,-82.5 309.5,-104 309.5,-98" stroke="black"/>
<text font-family="Times New Roman,serif" font-size="14.00" text-anchor="middle" x="297" y="-78.8">product</text>
</g>
</g>
</svg>