<svg height="261pt" viewBox="0.00 0.00 487.20 261.24" width="487pt" xmlns="http://www.w3.org/2000/svg" xmlns:xlink="http://www.w3.org/1999/xlink">
<g class="graph" id="graph0" transform="scale(1 1) rotate(0) translate(4 257.24)">
<title>diagram</title>
<polygon fill="white" points="-4,4 -4,-257.24 483.203,-257.24 483.203,4 -4,4" stroke="none"/>
<!-- F1
Flash&#45;&gt;S1
Splitter -->
<g class="edge" id="edge2"><title>F1
Flash:s-&gt;S1
Splitter:w</title>
<path d="M36,-88.7401C36,-50.4807 74.191,-52.9698 112.697,-53.6357" fill="none" stroke="black"/>
<polygon fill="black" points="112.965,-57.1385 123,-53.7401 113.036,-50.1388 112.965,-57.1385" stroke="black"/>
<text font-family="Times New Roman,serif" font-size="14.00" text-anchor="middle" x="97.5" y="-57.5401">d2</text>
</g>
<!-- F1
Flash&#45;&gt;d1 -->
<g class="edge" id="edge1"><title>F1
Flash:n-&gt;d1:w</title>
<path d="M36,-170.74C36,-239.917 110.019,-231.74 179.196,-231.74" fill="none" stroke="black"/>
</g>
<!-- M1
Mixer&#45;&gt;F1
Flash -->
<g class="edge" id="edge3"><title>M1
Mixer:e-&gt;F1
Flash:c</title>
<path d="M471.688,-134.74C483.633,-134.74 479.212,-180.113 470.688,-188.48 426.824,-231.536 387.167,-216.367 332.392,-188.48 320.274,-182.311 323.642,-173.707 314.392,-163.74 301.308,-149.641 299.366,-142.589 281.392,-135.74 215.718,-110.714 132.751,-115.553 82.3404,-122.093" fill="none" stroke="black"/>
<polygon fill="black" points="81.8314,-118.63 72.4014,-123.459 82.785,-125.564 81.8314,-118.63" stroke="black"/>
<text font-family="Times New Roman,serif" font-size="14.00" text-anchor="middle" x="202.196" y="-140.54">d4</text>
</g>
<!-- S1
Splitter&#45;&gt;M1
Mixer -->
<g class="edge" id="edge4"><title>S1
Splitter:c-&gt;M1
Mixer:c</title>
<path d="M242.214,-69.7431C275.506,-83.3975 323.306,-103.002 357.692,-117.105" fill="none" stroke="black"/>
<polygon fill="black" points="356.431,-120.371 367.012,-120.928 359.088,-113.895 356.431,-120.371" stroke="black"/>
<text font-family="Times New Roman,serif" font-size="14.00" text-anchor="middle" x="306.892" y="-103.54">d5</text>
</g>
<!-- S1
Splitter&#45;&gt;d6 -->
<g class="edge" id="edge5"><title>S1
Splitter:c-&gt;d6:w</title>
<path d="M242.22,-51.9914C277.777,-50.5495 331.749,-48.7401 378.688,-48.7401" fill="none" stroke="black"/>
</g>
<!-- fresh&#45;&gt;M1
Mixer -->
<g class="edge" id="edge6"><title>fresh:e-&gt;M1
Mixer:c</title>
<path d="M225.196,-177.74C275.7,-177.74 332.09,-160.733 366.988,-148.11" fill="none" stroke="black"/>
</g>
<!-- F1
Flash -->
<g class="node" id="node1"><title>F1
Flash</title>
<defs>
<linearGradient gradientUnits="userSpaceOnUse" id="l_0" x1="0" x2="72" y1="-129.74" y2="-129.74">
<stop offset="0" style="stop-color:white;stop-opacity:1.;"/>
<stop offset="1" style="stop-color:#cdcdcd;stop-opacity:1.;"/>
</linearGradient>
</defs>
<polygon fill="url(#l_0)" points="72,-169.24 0,-169.24 0,-90.2401 72,-90.2401 72,-169.24" stroke="black"/>
<text font-family="Times New Roman,serif" font-size="14.00" text-anchor="middle" x="36" y="-133.54">F1</text>
<text font-family="Times New Roman,serif" font-size="14.00" text-anchor="middle" x="36" y="-118.54">Flash</text>
</g>
<!-- M1
Mixer -->
<g class="node" id="node2"><title>M1
Mixer</title>
<defs>
<linearGradient gradientUnits="userSpaceOnUse" id="l_1" x1="367.142" x2="470.782" y1="-134.74" y2="-134.74">
<stop offset="0" style="stop-color:white;stop-opacity:1.;"/>
<stop offset="1" style="stop-color:#cdcdcd;stop-opacity:1.;"/>
</linearGradient>
</defs>
<polygon fill="url(#l_1)" points="470.782,-134.74 367.142,-188.721 367.142,-80.7588 470.782,-134.74" stroke="black"/>
<text font-family="Times New Roman,serif" font-size="14.00" text-anchor="middle" x="401.688" y="-138.54">M1</text>
<text font-family="Times New Roman,serif" font-size="14.00" text-anchor="middle" x="401.688" y="-123.54">Mixer</text>
</g>
<!-- S1
Splitter -->
<g class="node" id="node3"><title>S1
Splitter</title>
<defs>
<linearGradient gradientUnits="userSpaceOnUse" id="l_2" x1="122.804" x2="241.892" y1="-53.7401" y2="-53.7401">
<stop offset="0" style="stop-color:#bfbfbf;stop-opacity:1.;"/>
<stop offset="1" style="stop-color:white;stop-opacity:1.;"/>
</linearGradient>
</defs>
<polygon fill="url(#l_2)" points="122.804,-53.7401 241.892,0.241193 241.892,-107.721 122.804,-53.7401" stroke="black"/>
<text font-family="Times New Roman,serif" font-size="14.00" text-anchor="middle" x="202.196" y="-57.5401">S1</text>
<text font-family="Times New Roman,serif" font-size="14.00" text-anchor="middle" x="202.196" y="-42.5401">Splitter</text>
</g>
<!-- d1 -->
<g class="node" id="node4"><title>d1</title>
<polygon fill="#79dae8" points="205.696,-247.24 180.696,-247.24 180.696,-216.24 205.696,-216.24 205.696,-210.24 223.696,-231.74 205.696,-253.24 205.696,-247.24" stroke="black"/>
<text font-family="Times New Roman,serif" font-size="14.00" text-anchor="middle" x="202.196" y="-228.04">d1</text>
</g>
<!-- d6 -->
<g class="node" id="node5"><title>d6</title>
<polygon fill="#79dae8" points="405.188,-64.2401 380.188,-64.2401 380.188,-33.2401 405.188,-33.2401 405.188,-27.2401 423.188,-48.7401 405.188,-70.2401 405.188,-64.2401" stroke="black"/>
<text font-family="Times New Roman,serif" font-size="14.00" text-anchor="middle" x="401.688" y="-45.0401">d6</text>
</g>
<!-- fresh -->
<g class="node" id="node6"><title>fresh</title>
<polygon fill="#79dae8" points="206.196,-193.24 180.196,-193.24 180.196,-162.24 206.196,-162.24 206.196,-156.24 224.196,-177.74 206.196,-199.24 206.196,-193.24" stroke="black"/>
<text font-family="Times New Roman,serif" font-size="14.00" text-anchor="middle" x="202.196" y="-174.04">fresh</text>
</g>
</g>
</svg>