<svg xmlns="http://www.w3.org/2000/svg" xmlns:xlink="http://www.w3.org/1999/xlink" xmlns:lucid="lucid" width="1141" height="547"><g transform="translate(-174 -355)" lucid:page-tab-id="wiS7qh~P2~83"><path d="M942.1 479.2v146.38h160v-146.4l-60-29.26V430.4h-40v19.52z" stroke="#3d4752" stroke-width="4" fill="url(#a)"/><path d="M737.52 365.6H892v59.72H737.52z" fill="none"/><use xlink:href="#b" transform="matrix(1,0,0,1,737.5210743974033,365.5961996726479) translate(5.685185185185205 35.33333333333333)"/><path d="M439.12 610.42s-7.9 10.08-38.58 10.08c-30.7 0-40.9-10.08-40.9-10.08V471.86s7.6-11.52 39.8-11.52c32.1 0 39.68 11.52 39.68 11.52v138.56z" stroke="#3d4752" stroke-width="4" fill="url(#c)"/><path d="M349.55 475.22h99.37v7.04h-99.37z" stroke="#3d4752" stroke-width="4" fill="url(#d)"/><path d="M350.85 600.66h99.37v6.88h-99.37z" stroke="#3d4752" stroke-width="4" fill="url(#e)"/><path d="M372.75 489.3h8.8v104.64h-8.8z" stroke="#3d4752" stroke-width="4" fill="url(#f)"/><path d="M393.94 489.3h8.8v104.64h-8.8z" stroke="#3d4752" stroke-width="4" fill="url(#g)"/><path d="M417.53 489.3h8.7v104.64h-8.7z" stroke="#3d4752" stroke-width="4" fill="url(#h)"/><path d="M338.85 540.67h16.8" stroke="#494949" stroke-width="4" fill="none"/><path d="M327.68 540.67l7.07-7.07 7.93 7.07-7.93 7.08z" stroke="#494949" stroke-width="4" fill="#fff"/><path d="M357.65 542.67h-2.05v-4h2.05z" stroke="#494949" stroke-width=".05" fill="#494949"/><path d="M399.7 456.35v-38h61.85v84.15h17.36" stroke="#494949" stroke-width="4" fill="none"/><path d="M401.7 458.47l-2.25-.13-1.75.1v-2.14h4z" stroke="#494949" stroke-width=".05" fill="#494949"/><path d="M495.18 502.5l-14.27 4.63v-9.27z" stroke="#494949" stroke-width="4" fill="#494949"/><path d="M583.12 610.42s-7.9 10.08-38.58 10.08c-30.7 0-40.9-10.08-40.9-10.08V471.86s7.6-11.52 39.8-11.52c32.1 0 39.68 11.52 39.68 11.52v138.56z" stroke="#3d4752" stroke-width="4" fill="url(#i)"/><path d="M493.55 475.22h99.37v7.04h-99.37z" stroke="#3d4752" stroke-width="4" fill="url(#j)"/><path d="M494.85 600.66h99.37v6.88h-99.37z" stroke="#3d4752" stroke-width="4" fill="url(#k)"/><path d="M516.75 489.3h8.8v104.64h-8.8z" stroke="#3d4752" stroke-width="4" fill="url(#l)"/><path d="M537.94 489.3h8.8v104.64h-8.8z" stroke="#3d4752" stroke-width="4" fill="url(#m)"/><path d="M561.53 489.3h8.7v104.64h-8.7z" stroke="#3d4752" stroke-width="4" fill="url(#n)"/><path d="M443.12 540.4h24.22v122.05h76.2v-17.27" stroke="#494949" stroke-width="4" fill="none"/><path d="M443.18 542.4h-2.06v-4h2.06z" stroke="#494949" stroke-width=".05" fill="#494949"/><path d="M543.54 628.92l4.63 14.26h-9.27z" stroke="#494949" stroke-width="4" fill="#494949"/><path d="M727.12 610.42s-7.9 10.08-38.58 10.08c-30.7 0-40.9-10.08-40.9-10.08V471.86s7.6-11.52 39.8-11.52c32.1 0 39.68 11.52 39.68 11.52v138.56z" stroke="#3d4752" stroke-width="4" fill="url(#o)"/><path d="M637.55 475.22h99.37v7.04h-99.37z" stroke="#3d4752" stroke-width="4" fill="url(#p)"/><path d="M638.85 600.66h99.37v6.88h-99.37z" stroke="#3d4752" stroke-width="4" fill="url(#q)"/><path d="M660.75 489.3h8.8v104.64h-8.8z" stroke="#3d4752" stroke-width="4" fill="url(#r)"/><path d="M681.94 489.3h8.8v104.64h-8.8z" stroke="#3d4752" stroke-width="4" fill="url(#s)"/><path d="M705.53 489.3h8.7v104.64h-8.7z" stroke="#3d4752" stroke-width="4" fill="url(#t)"/><path d="M543.7 456.35v-38h67.85v82.74h11.36" stroke="#494949" stroke-width="4" fill="none"/><path d="M545.7 458.47l-2.25-.13-1.75.1v-2.14h4z" stroke="#494949" stroke-width=".05" fill="#494949"/><path d="M639.18 501.1l-14.27 4.62v-9.27z" stroke="#494949" stroke-width="4" fill="#494949"/><path d="M587.12 540.4h24.22v122.05h76.2v-17.27" stroke="#494949" stroke-width="4" fill="none"/><path d="M587.18 542.4h-2.06v-4h2.06z" stroke="#494949" stroke-width=".05" fill="#494949"/><path d="M687.54 628.92l4.63 14.26h-9.27z" stroke="#494949" stroke-width="4" fill="#494949"/><path d="M731.12 540.4h58.13" stroke="#000" stroke-width="4" fill="none"/><path d="M731.18 542.4h-2.06v-4h2.06z" stroke="#000" stroke-width=".05"/><path d="M805.52 540.4l-14.27 4.63v-9.27z" stroke="#000" stroke-width="4"/><path d="M1022.1 438v-37h23.32" stroke="#494949" stroke-width="4" fill="none"/><path d="M1020.1 440v-2.05h4V440z" stroke="#494949" stroke-width=".05" fill="#494949"/><path d="M1068.94 401l-21.52 12.73v-25.46z" stroke="#494949" stroke-width="4" fill="#fff"/><path d="M687.7 456.35V394h22.37" stroke="#494949" stroke-width="4" fill="none"/><path d="M689.7 458.47l-2.25-.13-1.75.1v-2.14h4z" stroke="#494949" stroke-width=".05" fill="#494949"/><path d="M733.6 394l-21.53 12.7v-25.44z" stroke="#494949" stroke-width="4" fill="#fff"/><path d="M371.17 674.26h324.15v39.86H371.17z" fill="#fff" fill-opacity="0"/><use xlink:href="#u" transform="matrix(1,0,0,1,376.1727614639833,679.260463536193) translate(11.240740740740733 21.333333333333336)"/><use xlink:href="#v" transform="matrix(1,0,0,1,376.1727614639833,679.260463536193) translate(163.3148148148148 21.333333333333336)"/><path d="M1022.1 440v82.22z" stroke="#3d4752" stroke-width="4" fill-opacity="0"/><path d="M1022.1 522.22c-11.13 15.78-28.9 15.78-40 0 11.1-15.87 28.87-15.87 40 0z" stroke="#3d4752" stroke-width="4" fill="url(#w)"/><path d="M1022.1 522.22c11.1-15.87 28.87-15.87 40 0-11.13 15.78-28.9 15.78-40 0z" stroke="#3d4752" stroke-width="4" fill="url(#x)"/><use xlink:href="#y" transform="matrix(1,0,0,1,952.0870891268987,543) translate(70 23.46666666666667)"/><path d="M192 500.63h132.85v83.54H192z" fill="#fff" fill-opacity="0"/><use xlink:href="#z" transform="matrix(1,0,0,1,197,505.6312271581347) translate(0.055555555555542924 42.145833333333336)"/><path d="M1072.87 380h63.33v42h-63.34z" fill="#fff" fill-opacity="0"/><use xlink:href="#A" transform="matrix(1,0,0,1,1077.8648669046763,385) translate(0 21.333333333333336)"/><path d="M1062.9 629.58V742h42.52" stroke="#494949" stroke-width="4" fill="none"/><path d="M1064.9 629.63h-4v-2.05h4z" stroke="#494949" stroke-width=".05" fill="#494949"/><path d="M1128.94 742l-21.52 12.73v-25.46z" stroke="#494949" stroke-width="4" fill="#fff"/><path d="M1132.87 721h100v42h-100z" fill="#fff" fill-opacity="0"/><use xlink:href="#B" transform="matrix(1,0,0,1,1137.8648669046765,726.0006280848462) translate(0 21.333333333333336)"/><path d="M349.38 742.66H717.1v94.38H349.4z" fill-opacity="0"/><path d="M359.2 742.66h9.8m4.9 0h9.8m4.9 0h9.8m4.92 0h9.8m4.9 0h9.8m4.92 0h9.8m4.9 0h9.8m4.9 0h9.82m4.9 0h9.8m4.9 0h9.82m4.9 0h9.8m4.9 0h9.8m4.92 0h9.8m4.9 0h9.8m4.92 0h9.8m4.9 0h9.8m4.9 0h9.82m4.9 0h9.8m4.9 0h9.82m4.9 0h9.8m4.9 0h9.82m4.9 0h9.8m4.9 0h9.82m4.9 0h9.8m4.9 0h4.9v5.24m0 5.25v10.48m0 5.25v10.5m0 5.23v10.5m0 5.24v10.5m0 5.23v10.5m0 5.23v5.24h-4.9m-4.9 0h-9.8m-4.9 0h-9.8m-4.9 0h-9.82m-4.9 0h-9.8m-4.9 0h-9.82m-4.9 0h-9.8m-4.9 0h-9.82m-4.9 0h-9.8m-4.9 0h-9.8m-4.92 0h-9.8m-4.9 0h-9.8m-4.92 0h-9.8m-4.9 0H521m-4.9 0h-9.82m-4.9 0h-9.8m-4.9 0h-9.82m-4.9 0h-9.8m-4.9 0h-9.82m-4.9 0h-9.8m-4.9 0h-9.8m-4.92 0h-9.8m-4.9 0h-9.8m-4.92 0h-9.8m-4.9 0h-9.8m-4.9 0h-4.92v-5.24m0-5.24v-10.5m0-5.23v-10.5m0-5.24v-10.5m0-5.24V768.9m0-5.25v-10.48m0-5.25v-5.24h4.9" stroke="#3d4752" fill="none"/><path d="M394 764.23h60.22" stroke="#494949" stroke-width="4" fill="none"/><path d="M382.83 764.23l7.07-7.08 7.93 7.08-7.93 7.07z" stroke="#494949" stroke-width="4" fill="#fff"/><path d="M454.17 764.23h2.05M493.55 764.8h48.85M493.6 764.8h-2.05" stroke="#494949" stroke-width="4" fill="none"/><path d="M558.66 764.8l-14.26 4.64v-9.27z" stroke="#494949" stroke-width="4" fill="#494949"/><path d="M607.26 764h36.13v.05h10.68M607.3 764h-2.04" stroke="#494949" stroke-width="4" fill="none"/><path d="M677.6 764.05l-21.52 12.73V751.3z" stroke="#494949" stroke-width="4" fill="#fff"/><path d="M383.05 777.04h74.97v60h-74.97z" fill="none"/><use xlink:href="#C" transform="matrix(1,0,0,1,383.0473044239137,777.0427944344052) translate(7.166666666666661 35.333333333333336)"/><path d="M476.22 777.04h96.5v60h-96.5z" fill="none"/><use xlink:href="#D" transform="matrix(1,0,0,1,476.22040072958237,777.0427944344052) translate(5.611111111111107 35.333333333333336)"/><path d="M580 776.9h118.14v60H580z" fill="none"/><use xlink:href="#E" transform="matrix(1,0,0,1,580.0000000000001,776.9048290008418) translate(13.611111111111107 35.333333333333336)"/><path d="M1106.1 607.6h25.83" stroke="#3a414a" stroke-width="4" fill="none"/><path d="M1106.14 609.6h-2.05v-4h2.04z" stroke="#3a414a" stroke-width=".05" fill="#3a414a"/><path d="M1148.2 607.6l-14.27 4.64v-9.27z" stroke="#3a414a" stroke-width="4" fill="#3a414a"/><path d="M812.6 759.8l81.96 14.94v40.9l-81.96 15.12V759.8" stroke="#3d4752" stroke-width="4" fill="url(#F)"/><path d="M829.16 763.18v-18.23H790.4m96 26.77v-26.77h19.8" stroke="#3d4752" stroke-width="4" fill-opacity="0"/><path d="M905 741.84l5.52 3.1-5.52 3.12z" stroke="#3d4752" stroke-width="4" fill="url(#G)"/><path d="M1203.78 599h38.08a6 6 0 0 0 6-6v-9.3" stroke="#3a414a" stroke-width="4" fill="none"/><path d="M1203.83 601h-2.06v-4h2.06z" stroke="#3a414a" stroke-width=".05" fill="#3a414a"/><path d="M1247.86 567.42l4.63 14.27h-9.28z" stroke="#3a414a" stroke-width="4" fill="#3a414a"/><path d="M1273.86 533.12c0 14.28-12.06 25.87-26.93 25.87S1220 547.4 1220 533.1c0-14.27 12.07-25.86 26.93-25.86 14.87 0 26.93 11.6 26.93 25.86z" stroke="#3d4752" stroke-width="4" fill="url(#H)"/><path d="M1247.8 507.26v4.9l14.16 8.2-28.33 19.02 14.16 13.6v6" stroke="#3d4752" stroke-width="4" fill="none"/><path d="M1247.86 503.34v-4.07a6 6 0 0 0-6-6h-115.03" stroke="#3a414a" stroke-width="4" fill="none"/><path d="M1249.86 505.52l-2.88-.26-1.12.04v-2h4z" stroke="#3a414a" stroke-width=".05" fill="#3a414a"/><path d="M1110.56 493.27l14.27-4.63v9.27z" stroke="#3a414a" stroke-width="4" fill="#3a414a"/><path d="M1132.87 634.57h79.68v42h-79.68z" fill="#fff" fill-opacity=".5"/><use xlink:href="#I" transform="matrix(1,0,0,1,1137.8648669046765,639.568544761856) translate(-1.962962962962969 21.333333333333336)"/><path d="M1186.93 454.5h120v36.86h-120z" fill="#fff" fill-opacity=".5"/><use xlink:href="#J" transform="matrix(1,0,0,1,1191.9312194783377,459.5128813368202) translate(6.05555555555555 21.333333333333336)"/><path d="M1003.5 743.55h12.6a6 6 0 0 0 6-6V650.3" stroke="#3a414a" stroke-width="4" fill="none"/><path d="M1003.55 745.55h-2.23l.3-3.53-.02-.47h1.95z" stroke="#3a414a" stroke-width=".05" fill="#3a414a"/><path d="M1022.1 634.05l4.62 14.26h-9.27z" stroke="#3a414a" stroke-width="4" fill="#3a414a"/><path d="M932.87 654.82h178.44v42H932.88z" fill="#fff" fill-opacity=".5"/><use xlink:href="#K" transform="matrix(1,0,0,1,937.8648669046765,659.8211922000445) translate(0.27777777777777146 21.333333333333336)"/><path d="M761.18 839.76h178.45v42H761.18z" fill="#fff" fill-opacity=".5"/><use xlink:href="#L" transform="matrix(1,0,0,1,766.1821727619025,844.7627717526362) translate(6.129629629629619 21.333333333333336)"/><path d="M788.3 744.95h.1" stroke="#494949" stroke-width="4" fill="none"/><path d="M777.87 745.54l6.7-7.42 8.28 6.65-7.56 7.47z" stroke="#494949" stroke-width="4" fill="#fff"/><path d="M790.4 746.95h-2.05v-4h2.05z" stroke="#494949" stroke-width=".05" fill="#494949"/><path d="M723.66 726.58h51.38v39.86h-51.38z" fill="#fff" fill-opacity="0"/><use xlink:href="#M" transform="matrix(1,0,0,1,728.6622708438244,731.5802875946727) translate(4.777777777777775 23.208333333333336)"/><path d="M1022.1 495.56v87.1z" stroke="#3d4752" stroke-width="4" fill-opacity="0"/><path d="M1022.1 582.67c-11.13 16.72-28.9 16.72-40 0 11.1-16.8 28.87-16.8 40 0z" stroke="#3d4752" stroke-width="4" fill="url(#N)"/><path d="M1022.1 582.67c11.1-16.8 28.87-16.8 40 0-11.13 16.72-28.9 16.72-40 0z" stroke="#3d4752" stroke-width="4" fill="url(#O)"/><use xlink:href="#y" transform="matrix(1,0,0,1,952.0870891268987,604.3914723373557) translate(70 23.46666666666667)"/><path d="M999.63 742c0 15.4-12.07 27.88-26.93 27.88-14.87 0-26.94-12.5-26.94-27.88 0-15.4 12.07-27.88 26.94-27.88 14.86 0 26.93 12.5 26.93 27.88z" stroke="#3d4752" stroke-width="4" fill="url(#P)"/><path d="M945.76 743.45h5.66l8.5-14.66 19.88 29.32 14.17-14.67h5.66" stroke="#3d4752" stroke-width="4" fill="none"/><path d="M916.6 744.95h25.36" stroke="#3a414a" stroke-width="4" fill="none"/><path d="M916.65 746.95h-5.05v-.3l3-1.7-3-1.7v-.3h5.05zM944.05 746.24l.16.7h-2.3v-4h1.92z" stroke="#3a414a" stroke-width=".05" fill="#3a414a"/><path d="M912.7 771.43h120v36.84h-120z" fill="#fff" fill-opacity=".5"/><use xlink:href="#J" transform="matrix(1,0,0,1,917.6953977280093,776.4302151323897) translate(6.05555555555555 21.333333333333336)"/><path d="M896.43 527.7h20.83v.3h.1" stroke="#000" stroke-width="4" fill="none"/><path d="M896.48 529.7h-5.05v-.4l3-1.6-3-1.58v-.4h5.05z" stroke="#000" stroke-width=".05"/><path d="M933.6 528l-14.25 4.62v-9.27z" stroke="#000" stroke-width="4"/><path d="M743.02 440.33h94.8v36.17h-94.8z" fill="#fff" fill-opacity="0"/><use xlink:href="#Q" transform="matrix(1,0,0,1,748.024106072952,445.3341412812838) translate(7.499999999999993 23.020833333333336)"/><path d="M890.16 487.95L814 528.38l76.16 40.35v-80.78z" stroke="#3d4752" stroke-width="4" fill="url(#R)" transform="matrix(-1,1.2246467991473532e-16,-1.2246467991473532e-16,-1,1704.1538825980924,1056.0905065246234)"/><path d="M810 511.6H796.4a6 6 0 0 1-6-6v-15.1" stroke="#3a414a" stroke-width="4" fill="none"/><path d="M812 513.6h-2.06v-4H812z" stroke="#3a414a" stroke-width=".05" fill="#3a414a"/><path d="M790.42 479.32l7.07 7.07-7.08 7.92-7.07-7.93z" stroke="#3a414a" stroke-width="4" fill="#fff"/><path d="M1160.9 624.87l-6.24 8.8 36.97-.24-7.84-10.16-.47.13" stroke="#3d4752" stroke-width="4" fill="url(#S)"/><path d="M1155.3 601.93s1.06-1.72 1.5-2.4c.52-.66.56-1.04 1.85-2.34 1.33-1.27 2.52-2.28 4.22-3.12 1.74-.88 2.7-1.72 5.5-2.02 2.8-.33 3.63-.38 3.63-.38l27.8.1-.05 15.9-10.32-.03s.18 1.47.18 2.35c0 .92.1 1.85-.22 3.23-.27 1.4-.55 2.6-1.37 4.28-.82 1.7-1.6 2.96-2.2 3.67-.6.75-1 1.26-2.24 2.35-1.24 1.13-1.97 1.68-3.4 2.4-1.42.75-2.25 1.2-3.25 1.47-1.05.28-1.37.5-3.02.66-1.65.12-2.7.2-3.8.12-1.1-.12-2.35-.25-3.3-.58-1.02-.34-2.67-1-3.6-1.52-.95-.5-1.05-.33-2.33-1.34-1.28-1-1.6-.92-2.7-2.35-1.15-1.4-2.2-2.7-2.85-4.3-.64-1.6-1.38-3.9-1.38-3.9" stroke="#3d4752" stroke-width="4" fill="url(#T)"/><path d="M1165.58 605.54s.45-.67.87-1.04c.46-.38.96-.76 1.56-1.1.6-.33 1.1-.58 1.84-.75.78-.2 2.07-.25 2.07-.25s1.43.08 2.2.46c.83.33 1.9.84 2.58 1.6.68.8.9 1.08 1.23 1.67.38.63.6.97.84 1.77.18.8.32 1.5.32 1.93 0 .46.05.75-.04 1.38-.14.7-.05.8-.33 1.48-.23.68-.2.76-.65 1.48-.4.7-.46.88-.9 1.38-.52.55-.66.76-1.2 1.13-.6.38-.74.55-1.57.85-.82.33-.96.4-1.6.5-.6.08-.87.08-1.42.08-.6-.04-.74 0-1.38-.17-.6-.16-1.33-.4-1.33-.4s-.46-.23-.92-.52c-.46-.28-.5-.24-1.05-.8-.55-.58-.78-.62-1.24-1.42l-.4-.8" stroke="#3d4752" stroke-width="4" fill="url(#U)"/><defs><linearGradient gradientUnits="userSpaceOnUse" id="a" x1="942.09" y1="430.4" x2="942.09" y2="625.58"><stop offset="0%" stop-color="#fff"/><stop offset="13.04%" stop-color="#f6f9f9"/><stop offset="100%" stop-color="#d6dee3"/></linearGradient><path d="M212-179c-10-28-35-45-73-45-59 0-87 40-87 99 0 60 29 101 89 101 43 0 62-24 78-52l27 14C228-24 195 4 139 4 59 4 22-46 18-125c-6-104 99-153 187-111 19 9 31 26 39 46" id="V"/><path d="M100-194c62-1 85 37 85 99 1 63-27 99-86 99S16-35 15-95c0-66 28-99 85-99zM99-20c44 1 53-31 53-75 0-43-8-75-51-75s-53 32-53 75 10 74 51 75" id="W"/><path d="M117-194c89-4 53 116 60 194h-32v-121c0-31-8-49-39-48C34-167 62-67 57 0H25l-1-190h30c1 10-1 24 2 32 11-22 29-35 61-36" id="X"/><path d="M85-194c31 0 48 13 60 33l-1-100h32l1 261h-30c-2-10 0-23-3-31C134-8 116 4 85 4 32 4 16-35 15-94c0-66 23-100 70-100zm9 24c-40 0-46 34-46 75 0 40 6 74 45 74 42 0 51-32 51-76 0-42-9-74-50-73" id="Y"/><path d="M100-194c63 0 86 42 84 106H49c0 40 14 67 53 68 26 1 43-12 49-29l28 8c-11 28-37 45-77 45C44 4 14-33 15-96c1-61 26-98 85-98zm52 81c6-60-76-77-97-28-3 7-6 17-6 28h103" id="Z"/><path d="M135-143c-3-34-86-38-87 0 15 53 115 12 119 90S17 21 10-45l28-5c4 36 97 45 98 0-10-56-113-15-118-90-4-57 82-63 122-42 12 7 21 19 24 35" id="aa"/><path d="M141-36C126-15 110 5 73 4 37 3 15-17 15-53c-1-64 63-63 125-63 3-35-9-54-41-54-24 1-41 7-42 31l-33-3c5-37 33-52 76-52 45 0 72 20 72 64v82c-1 20 7 32 28 27v20c-31 9-61-2-59-35zM48-53c0 20 12 33 32 33 41-3 63-29 60-74-43 2-92-5-92 41" id="ab"/><path d="M59-47c-2 24 18 29 38 22v24C64 9 27 4 27-40v-127H5v-23h24l9-43h21v43h35v23H59v120" id="ac"/><g id="b"><use transform="matrix(0.07407407407407407,0,0,0.07407407407407407,0,0)" xlink:href="#V"/><use transform="matrix(0.07407407407407407,0,0,0.07407407407407407,19.185185185185183,0)" xlink:href="#W"/><use transform="matrix(0.07407407407407407,0,0,0.07407407407407407,34,0)" xlink:href="#X"/><use transform="matrix(0.07407407407407407,0,0,0.07407407407407407,48.81481481481481,0)" xlink:href="#Y"/><use transform="matrix(0.07407407407407407,0,0,0.07407407407407407,63.62962962962962,0)" xlink:href="#Z"/><use transform="matrix(0.07407407407407407,0,0,0.07407407407407407,78.44444444444443,0)" xlink:href="#X"/><use transform="matrix(0.07407407407407407,0,0,0.07407407407407407,93.25925925925924,0)" xlink:href="#aa"/><use transform="matrix(0.07407407407407407,0,0,0.07407407407407407,106.59259259259257,0)" xlink:href="#ab"/><use transform="matrix(0.07407407407407407,0,0,0.07407407407407407,121.40740740740739,0)" xlink:href="#ac"/><use transform="matrix(0.07407407407407407,0,0,0.07407407407407407,128.81481481481478,0)" xlink:href="#Z"/></g><linearGradient gradientUnits="userSpaceOnUse" id="c" x1="349.55" y1="460.34" x2="349.55" y2="620.34"><stop offset="0%" stop-color="#fff"/><stop offset="13.04%" stop-color="#f6f9f9"/><stop offset="100%" stop-color="#d6dee3"/></linearGradient><linearGradient gradientUnits="userSpaceOnUse" id="d" x1="349.55" y1="460.34" x2="349.55" y2="620.34"><stop offset="0%" stop-color="#fff"/><stop offset="13.04%" stop-color="#f6f9f9"/><stop offset="100%" stop-color="#d6dee3"/></linearGradient><linearGradient gradientUnits="userSpaceOnUse" id="e" x1="349.55" y1="460.34" x2="349.55" y2="620.34"><stop offset="0%" stop-color="#fff"/><stop offset="13.04%" stop-color="#f6f9f9"/><stop offset="100%" stop-color="#d6dee3"/></linearGradient><linearGradient gradientUnits="userSpaceOnUse" id="f" x1="349.55" y1="460.34" x2="349.55" y2="620.34"><stop offset="0%" stop-color="#fff"/><stop offset="13.04%" stop-color="#f6f9f9"/><stop offset="100%" stop-color="#d6dee3"/></linearGradient><linearGradient gradientUnits="userSpaceOnUse" id="g" x1="349.55" y1="460.34" x2="349.55" y2="620.34"><stop offset="0%" stop-color="#fff"/><stop offset="13.04%" stop-color="#f6f9f9"/><stop offset="100%" stop-color="#d6dee3"/></linearGradient><linearGradient gradientUnits="userSpaceOnUse" id="h" x1="349.55" y1="460.34" x2="349.55" y2="620.34"><stop offset="0%" stop-color="#fff"/><stop offset="13.04%" stop-color="#f6f9f9"/><stop offset="100%" stop-color="#d6dee3"/></linearGradient><linearGradient gradientUnits="userSpaceOnUse" id="i" x1="493.55" y1="460.34" x2="493.55" y2="620.34"><stop offset="0%" stop-color="#fff"/><stop offset="13.04%" stop-color="#f6f9f9"/><stop offset="100%" stop-color="#d6dee3"/></linearGradient><linearGradient gradientUnits="userSpaceOnUse" id="j" x1="493.55" y1="460.34" x2="493.55" y2="620.34"><stop offset="0%" stop-color="#fff"/><stop offset="13.04%" stop-color="#f6f9f9"/><stop offset="100%" stop-color="#d6dee3"/></linearGradient><linearGradient gradientUnits="userSpaceOnUse" id="k" x1="493.55" y1="460.34" x2="493.55" y2="620.34"><stop offset="0%" stop-color="#fff"/><stop offset="13.04%" stop-color="#f6f9f9"/><stop offset="100%" stop-color="#d6dee3"/></linearGradient><linearGradient gradientUnits="userSpaceOnUse" id="l" x1="493.55" y1="460.34" x2="493.55" y2="620.34"><stop offset="0%" stop-color="#fff"/><stop offset="13.04%" stop-color="#f6f9f9"/><stop offset="100%" stop-color="#d6dee3"/></linearGradient><linearGradient gradientUnits="userSpaceOnUse" id="m" x1="493.55" y1="460.34" x2="493.55" y2="620.34"><stop offset="0%" stop-color="#fff"/><stop offset="13.04%" stop-color="#f6f9f9"/><stop offset="100%" stop-color="#d6dee3"/></linearGradient><linearGradient gradientUnits="userSpaceOnUse" id="n" x1="493.55" y1="460.34" x2="493.55" y2="620.34"><stop offset="0%" stop-color="#fff"/><stop offset="13.04%" stop-color="#f6f9f9"/><stop offset="100%" stop-color="#d6dee3"/></linearGradient><linearGradient gradientUnits="userSpaceOnUse" id="o" x1="637.55" y1="460.34" x2="637.55" y2="620.34"><stop offset="0%" stop-color="#fff"/><stop offset="13.04%" stop-color="#f6f9f9"/><stop offset="100%" stop-color="#d6dee3"/></linearGradient><linearGradient gradientUnits="userSpaceOnUse" id="p" x1="637.55" y1="460.34" x2="637.55" y2="620.34"><stop offset="0%" stop-color="#fff"/><stop offset="13.04%" stop-color="#f6f9f9"/><stop offset="100%" stop-color="#d6dee3"/></linearGradient><linearGradient gradientUnits="userSpaceOnUse" id="q" x1="637.55" y1="460.34" x2="637.55" y2="620.34"><stop offset="0%" stop-color="#fff"/><stop offset="13.04%" stop-color="#f6f9f9"/><stop offset="100%" stop-color="#d6dee3"/></linearGradient><linearGradient gradientUnits="userSpaceOnUse" id="r" x1="637.55" y1="460.34" x2="637.55" y2="620.34"><stop offset="0%" stop-color="#fff"/><stop offset="13.04%" stop-color="#f6f9f9"/><stop offset="100%" stop-color="#d6dee3"/></linearGradient><linearGradient gradientUnits="userSpaceOnUse" id="s" x1="637.55" y1="460.34" x2="637.55" y2="620.34"><stop offset="0%" stop-color="#fff"/><stop offset="13.04%" stop-color="#f6f9f9"/><stop offset="100%" stop-color="#d6dee3"/></linearGradient><linearGradient gradientUnits="userSpaceOnUse" id="t" x1="637.55" y1="460.34" x2="637.55" y2="620.34"><stop offset="0%" stop-color="#fff"/><stop offset="13.04%" stop-color="#f6f9f9"/><stop offset="100%" stop-color="#d6dee3"/></linearGradient><path d="M230 0l2-204L168 0h-37L68-204 70 0H24v-248h70l56 185 57-185h69V0h-46" id="ad"/><path d="M85 4C-2 5 27-109 22-190h50c7 57-23 150 33 157 60-5 35-97 40-157h50l1 190h-47c-2-12 1-28-3-38-12 25-28 42-61 42" id="ae"/><path d="M25 0v-261h50V0H25" id="af"/><path d="M115-3C79 11 28 4 28-45v-112H4v-33h27l15-45h31v45h36v33H77v99c-1 23 16 31 38 25v30" id="ag"/><path d="M25-224v-37h50v37H25zM25 0v-190h50V0H25" id="ah"/><path d="M14-72v-43h91v43H14" id="ai"/><path d="M24 0v-248h195v40H76v63h132v40H76v65h150V0H24" id="aj"/><path d="M121-226c-27-7-43 5-38 36h38v33H83V0H34v-157H6v-33h28c-9-59 32-81 87-68v32" id="ak"/><path d="M185-48c-13 30-37 53-82 52C43 2 14-33 14-96s30-98 90-98c62 0 83 45 84 108H66c0 31 8 55 39 56 18 0 30-7 34-22zm-45-69c5-46-57-63-70-21-2 6-4 13-4 21h74" id="al"/><path d="M190-63c-7 42-38 67-86 67-59 0-84-38-90-98-12-110 154-137 174-36l-49 2c-2-19-15-32-35-32-30 0-35 28-38 64-6 74 65 87 74 30" id="am"/><g id="u"><use transform="matrix(0.07407407407407408,0,0,0.07407407407407408,0,0)" xlink:href="#ad"/><use transform="matrix(0.07407407407407408,0,0,0.07407407407407408,22.148148148148152,0)" xlink:href="#ae"/><use transform="matrix(0.07407407407407408,0,0,0.07407407407407408,38.37037037037038,0)" xlink:href="#af"/><use transform="matrix(0.07407407407407408,0,0,0.07407407407407408,45.777777777777786,0)" xlink:href="#ag"/><use transform="matrix(0.07407407407407408,0,0,0.07407407407407408,54.5925925925926,0)" xlink:href="#ah"/><use transform="matrix(0.07407407407407408,0,0,0.07407407407407408,62.000000000000014,0)" xlink:href="#ai"/><use transform="matrix(0.07407407407407408,0,0,0.07407407407407408,70.81481481481484,0)" xlink:href="#aj"/><use transform="matrix(0.07407407407407408,0,0,0.07407407407407408,88.59259259259261,0)" xlink:href="#ak"/><use transform="matrix(0.07407407407407408,0,0,0.07407407407407408,97.40740740740742,0)" xlink:href="#ak"/><use transform="matrix(0.07407407407407408,0,0,0.07407407407407408,106.22222222222224,0)" xlink:href="#al"/><use transform="matrix(0.07407407407407408,0,0,0.07407407407407408,121.03703703703704,0)" xlink:href="#am"/><use transform="matrix(0.07407407407407408,0,0,0.07407407407407408,135.85185185185185,0)" xlink:href="#ag"/></g><path d="M128 0H69L1-190h53L99-40l48-150h52" id="an"/><path d="M133-34C117-15 103 5 69 4 32 3 11-16 11-54c-1-60 55-63 116-61 1-26-3-47-28-47-18 1-26 9-28 27l-52-2c7-38 36-58 82-57s74 22 75 68l1 82c-1 14 12 18 25 15v27c-30 8-71 5-69-32zm-48 3c29 0 43-24 42-57-32 0-66-3-65 30 0 17 8 27 23 27" id="ao"/><path d="M135-194c53 0 70 44 70 98 0 56-19 98-73 100-31 1-45-17-59-34 3 33 2 69 2 105H25l-1-265h48c2 10 0 23 3 31 11-24 29-35 60-35zM114-30c33 0 39-31 40-66 0-38-9-64-40-64-56 0-55 130 0 130" id="ap"/><path d="M110-194c64 0 96 36 96 99 0 64-35 99-97 99-61 0-95-36-95-99 0-62 34-99 96-99zm-1 164c35 0 45-28 45-65 0-40-10-65-43-65-34 0-45 26-45 65 0 36 10 65 43 65" id="aq"/><path d="M135-150c-39-12-60 13-60 57V0H25l-1-190h47c2 13-1 29 3 40 6-28 27-53 61-41v41" id="ar"/><g id="v"><use transform="matrix(0.07407407407407408,0,0,0.07407407407407408,0,0)" xlink:href="#aj"/><use transform="matrix(0.07407407407407408,0,0,0.07407407407407408,17.77777777777778,0)" xlink:href="#an"/><use transform="matrix(0.07407407407407408,0,0,0.07407407407407408,32.592592592592595,0)" xlink:href="#ao"/><use transform="matrix(0.07407407407407408,0,0,0.07407407407407408,47.40740740740741,0)" xlink:href="#ap"/><use transform="matrix(0.07407407407407408,0,0,0.07407407407407408,63.629629629629626,0)" xlink:href="#aq"/><use transform="matrix(0.07407407407407408,0,0,0.07407407407407408,79.85185185185186,0)" xlink:href="#ar"/><use transform="matrix(0.07407407407407408,0,0,0.07407407407407408,90.22222222222223,0)" xlink:href="#ao"/><use transform="matrix(0.07407407407407408,0,0,0.07407407407407408,105.03703703703704,0)" xlink:href="#ag"/><use transform="matrix(0.07407407407407408,0,0,0.07407407407407408,113.85185185185185,0)" xlink:href="#aq"/><use transform="matrix(0.07407407407407408,0,0,0.07407407407407408,130.07407407407408,0)" xlink:href="#ar"/></g><linearGradient gradientUnits="userSpaceOnUse" id="w" x1="982.09" y1="440" x2="982.09" y2="538"><stop offset="0%" stop-color="#fff"/><stop offset="13.04%" stop-color="#f6f9f9"/><stop offset="100%" stop-color="#d6dee3"/></linearGradient><linearGradient gradientUnits="userSpaceOnUse" id="x" x1="982.09" y1="440" x2="982.09" y2="538"><stop offset="0%" stop-color="#fff"/><stop offset="13.04%" stop-color="#f6f9f9"/><stop offset="100%" stop-color="#d6dee3"/></linearGradient><path d="M63-220v92h138v28H63V0H30v-248h175v28H63" id="as"/><path d="M96-169c-40 0-48 33-48 73s9 75 48 75c24 0 41-14 43-38l32 2c-6 37-31 61-74 61-59 0-76-41-82-99-10-93 101-131 147-64 4 7 5 14 7 22l-32 3c-4-21-16-35-41-35" id="at"/><path d="M143 0L79-87 56-68V0H24v-261h32v163l83-92h37l-77 82L181 0h-38" id="au"/><g id="z"><use transform="matrix(0.07407407407407408,0,0,0.07407407407407408,0,0)" xlink:href="#as"/><use transform="matrix(0.07407407407407408,0,0,0.07407407407407408,16.222222222222225,0)" xlink:href="#Z"/><use transform="matrix(0.07407407407407408,0,0,0.07407407407407408,31.03703703703704,0)" xlink:href="#Z"/><use transform="matrix(0.07407407407407408,0,0,0.07407407407407408,45.851851851851855,0)" xlink:href="#Y"/><use transform="matrix(0.07407407407407408,0,0,0.07407407407407408,60.66666666666667,0)" xlink:href="#aa"/><use transform="matrix(0.07407407407407408,0,0,0.07407407407407408,74.00000000000001,0)" xlink:href="#ac"/><use transform="matrix(0.07407407407407408,0,0,0.07407407407407408,81.40740740740742,0)" xlink:href="#W"/><use transform="matrix(0.07407407407407408,0,0,0.07407407407407408,96.22222222222223,0)" xlink:href="#at"/><use transform="matrix(0.07407407407407408,0,0,0.07407407407407408,109.55555555555557,0)" xlink:href="#au"/></g><path d="M137 0h-34L2-248h35l83 218 83-218h36" id="av"/><g id="A"><use transform="matrix(0.07407407407407408,0,0,0.07407407407407408,0,0)" xlink:href="#av"/><use transform="matrix(0.07407407407407408,0,0,0.07407407407407408,16.296296296296298,0)" xlink:href="#Z"/><use transform="matrix(0.07407407407407408,0,0,0.07407407407407408,31.111111111111114,0)" xlink:href="#X"/><use transform="matrix(0.07407407407407408,0,0,0.07407407407407408,45.92592592592593,0)" xlink:href="#ac"/></g><path d="M30 0v-248h187v28H63v79h144v27H63v87h162V0H30" id="aw"/><path d="M101-234c-31-9-42 10-38 44h38v23H63V0H32v-167H5v-23h27c-7-52 17-82 69-68v24" id="ax"/><path d="M24 0v-261h32V0H24" id="ay"/><path d="M84 4C-5 8 30-112 23-190h32v120c0 31 7 50 39 49 72-2 45-101 50-169h31l1 190h-30c-1-10 1-25-2-33-11 22-28 36-60 37" id="az"/><g id="B"><use transform="matrix(0.07407407407407408,0,0,0.07407407407407408,0,0)" xlink:href="#aw"/><use transform="matrix(0.07407407407407408,0,0,0.07407407407407408,17.77777777777778,0)" xlink:href="#ax"/><use transform="matrix(0.07407407407407408,0,0,0.07407407407407408,24.66666666666667,0)" xlink:href="#ax"/><use transform="matrix(0.07407407407407408,0,0,0.07407407407407408,32.074074074074076,0)" xlink:href="#ay"/><use transform="matrix(0.07407407407407408,0,0,0.07407407407407408,37.92592592592593,0)" xlink:href="#az"/><use transform="matrix(0.07407407407407408,0,0,0.07407407407407408,52.74074074074075,0)" xlink:href="#Z"/><use transform="matrix(0.07407407407407408,0,0,0.07407407407407408,67.55555555555557,0)" xlink:href="#X"/><use transform="matrix(0.07407407407407408,0,0,0.07407407407407408,82.37037037037038,0)" xlink:href="#ac"/></g><g id="C"><use transform="matrix(0.07407407407407408,0,0,0.07407407407407408,0,0)" xlink:href="#as"/><use transform="matrix(0.07407407407407408,0,0,0.07407407407407408,16.222222222222225,0)" xlink:href="#Z"/><use transform="matrix(0.07407407407407408,0,0,0.07407407407407408,31.03703703703704,0)" xlink:href="#Z"/><use transform="matrix(0.07407407407407408,0,0,0.07407407407407408,45.851851851851855,0)" xlink:href="#Y"/></g><path d="M185-189c-5-48-123-54-124 2 14 75 158 14 163 119 3 78-121 87-175 55-17-10-28-26-33-46l33-7c5 56 141 63 141-1 0-78-155-14-162-118-5-82 145-84 179-34 5 7 8 16 11 25" id="aA"/><path d="M114-163C36-179 61-72 57 0H25l-1-190h30c1 12-1 29 2 39 6-27 23-49 58-41v29" id="aB"/><path d="M210-169c-67 3-38 105-44 169h-31v-121c0-29-5-50-35-48C34-165 62-65 56 0H25l-1-190h30c1 10-1 24 2 32 10-44 99-50 107 0 11-21 27-35 58-36 85-2 47 119 55 194h-31v-121c0-29-5-49-35-48" id="aC"/><g id="D"><use transform="matrix(0.07407407407407408,0,0,0.07407407407407408,0,0)" xlink:href="#aA"/><use transform="matrix(0.07407407407407408,0,0,0.07407407407407408,17.77777777777778,0)" xlink:href="#ac"/><use transform="matrix(0.07407407407407408,0,0,0.07407407407407408,25.185185185185187,0)" xlink:href="#aB"/><use transform="matrix(0.07407407407407408,0,0,0.07407407407407408,34,0)" xlink:href="#Z"/><use transform="matrix(0.07407407407407408,0,0,0.07407407407407408,48.81481481481481,0)" xlink:href="#ab"/><use transform="matrix(0.07407407407407408,0,0,0.07407407407407408,63.629629629629626,0)" xlink:href="#aC"/></g><path d="M30-248c87 1 191-15 191 75 0 78-77 80-158 76V0H30v-248zm33 125c57 0 124 11 124-50 0-59-68-47-124-48v98" id="aD"/><g id="E"><use transform="matrix(0.07407407407407408,0,0,0.07407407407407408,0,0)" xlink:href="#aD"/><use transform="matrix(0.07407407407407408,0,0,0.07407407407407408,17.77777777777778,0)" xlink:href="#aB"/><use transform="matrix(0.07407407407407408,0,0,0.07407407407407408,26.592592592592595,0)" xlink:href="#W"/><use transform="matrix(0.07407407407407408,0,0,0.07407407407407408,41.40740740740741,0)" xlink:href="#Y"/><use transform="matrix(0.07407407407407408,0,0,0.07407407407407408,56.22222222222223,0)" xlink:href="#az"/><use transform="matrix(0.07407407407407408,0,0,0.07407407407407408,71.03703703703704,0)" xlink:href="#at"/><use transform="matrix(0.07407407407407408,0,0,0.07407407407407408,84.37037037037038,0)" xlink:href="#ac"/></g><linearGradient gradientUnits="userSpaceOnUse" id="F" x1="790.4" y1="741.84" x2="790.4" y2="830.76"><stop offset="0%" stop-color="#fff"/><stop offset="13.04%" stop-color="#f6f9f9"/><stop offset="100%" stop-color="#d6dee3"/></linearGradient><linearGradient gradientUnits="userSpaceOnUse" id="G" x1="790.4" y1="741.84" x2="790.4" y2="830.76"><stop offset="0%" stop-color="#fff"/><stop offset="13.04%" stop-color="#f6f9f9"/><stop offset="100%" stop-color="#d6dee3"/></linearGradient><linearGradient gradientUnits="userSpaceOnUse" id="H" x1="1220" y1="507.26" x2="1220" y2="558.99"><stop offset="0%" stop-color="#fff"/><stop offset="13.04%" stop-color="#f6f9f9"/><stop offset="100%" stop-color="#d6dee3"/></linearGradient><path d="M24-248c93 1 206-16 204 79-1 75-69 88-152 82V0H24v-248zm52 121c47 0 100 7 100-41 0-47-54-39-100-39v80" id="aE"/><path d="M220-157c-53 9-28 100-34 157h-49v-107c1-27-5-49-29-50C55-147 81-57 75 0H25l-1-190h47c2 12-1 28 3 38 10-53 101-56 108 0 13-22 24-43 59-42 82 1 51 116 57 194h-49v-107c-1-25-5-48-29-50" id="aF"/><g id="I"><use transform="matrix(0.07407407407407408,0,0,0.07407407407407408,0,0)" xlink:href="#aE"/><use transform="matrix(0.07407407407407408,0,0,0.07407407407407408,17.77777777777778,0)" xlink:href="#ae"/><use transform="matrix(0.07407407407407408,0,0,0.07407407407407408,34,0)" xlink:href="#aF"/><use transform="matrix(0.07407407407407408,0,0,0.07407407407407408,57.70370370370371,0)" xlink:href="#ap"/></g><path d="M67-125c0 53 21 87 73 88 37 1 54-22 65-47l45 17C233-25 199 4 140 4 58 4 20-42 15-125 8-235 124-281 211-232c18 10 29 29 36 50l-46 12c-8-25-30-41-62-41-52 0-71 34-72 86" id="aG"/><path d="M135-194c87-1 58 113 63 194h-50c-7-57 23-157-34-157-59 0-34 97-39 157H25l-1-190h47c2 12-1 28 3 38 12-26 28-41 61-42" id="aH"/><path d="M195-6C206 82 75 100 31 46c-4-6-6-13-8-21l49-6c3 16 16 24 34 25 40 0 42-37 40-79-11 22-30 35-61 35-53 0-70-43-70-97 0-56 18-96 73-97 30 0 46 14 59 34l2-30h47zm-90-29c32 0 41-27 41-63 0-35-9-62-40-62-32 0-39 29-40 63 0 36 9 62 39 62" id="aI"/><g id="J"><use transform="matrix(0.07407407407407408,0,0,0.07407407407407408,0,0)" xlink:href="#aG"/><use transform="matrix(0.07407407407407408,0,0,0.07407407407407408,19.185185185185187,0)" xlink:href="#aq"/><use transform="matrix(0.07407407407407408,0,0,0.07407407407407408,35.40740740740741,0)" xlink:href="#aq"/><use transform="matrix(0.07407407407407408,0,0,0.07407407407407408,51.62962962962963,0)" xlink:href="#af"/><use transform="matrix(0.07407407407407408,0,0,0.07407407407407408,59.03703703703704,0)" xlink:href="#ah"/><use transform="matrix(0.07407407407407408,0,0,0.07407407407407408,66.44444444444444,0)" xlink:href="#aH"/><use transform="matrix(0.07407407407407408,0,0,0.07407407407407408,82.66666666666667,0)" xlink:href="#aI"/></g><path d="M76-208v77h127v40H76V0H24v-248h183v40H76" id="aJ"/><g id="K"><use transform="matrix(0.07407407407407408,0,0,0.07407407407407408,0,0)" xlink:href="#aJ"/><use transform="matrix(0.07407407407407408,0,0,0.07407407407407408,16.222222222222225,0)" xlink:href="#al"/><use transform="matrix(0.07407407407407408,0,0,0.07407407407407408,31.03703703703704,0)" xlink:href="#ar"/><use transform="matrix(0.07407407407407408,0,0,0.07407407407407408,41.40740740740741,0)" xlink:href="#aF"/><use transform="matrix(0.07407407407407408,0,0,0.07407407407407408,65.11111111111111,0)" xlink:href="#al"/><use transform="matrix(0.07407407407407408,0,0,0.07407407407407408,79.92592592592592,0)" xlink:href="#aH"/><use transform="matrix(0.07407407407407408,0,0,0.07407407407407408,96.14814814814814,0)" xlink:href="#ag"/><use transform="matrix(0.07407407407407408,0,0,0.07407407407407408,104.96296296296296,0)" xlink:href="#ao"/><use transform="matrix(0.07407407407407408,0,0,0.07407407407407408,119.77777777777777,0)" xlink:href="#ag"/><use transform="matrix(0.07407407407407408,0,0,0.07407407407407408,128.59259259259258,0)" xlink:href="#ah"/><use transform="matrix(0.07407407407407408,0,0,0.07407407407407408,136,0)" xlink:href="#aq"/><use transform="matrix(0.07407407407407408,0,0,0.07407407407407408,152.22222222222223,0)" xlink:href="#aH"/></g><path d="M137-138c1-29-70-34-71-4 15 46 118 7 119 86 1 83-164 76-172 9l43-7c4 19 20 25 44 25 33 8 57-30 24-41C81-84 22-81 20-136c-2-80 154-74 161-7" id="aK"/><g id="L"><use transform="matrix(0.07407407407407408,0,0,0.07407407407407408,0,0)" xlink:href="#aG"/><use transform="matrix(0.07407407407407408,0,0,0.07407407407407408,19.185185185185187,0)" xlink:href="#aq"/><use transform="matrix(0.07407407407407408,0,0,0.07407407407407408,35.40740740740741,0)" xlink:href="#aF"/><use transform="matrix(0.07407407407407408,0,0,0.07407407407407408,59.11111111111111,0)" xlink:href="#ap"/><use transform="matrix(0.07407407407407408,0,0,0.07407407407407408,75.33333333333334,0)" xlink:href="#ar"/><use transform="matrix(0.07407407407407408,0,0,0.07407407407407408,85.70370370370371,0)" xlink:href="#al"/><use transform="matrix(0.07407407407407408,0,0,0.07407407407407408,100.51851851851853,0)" xlink:href="#aK"/><use transform="matrix(0.07407407407407408,0,0,0.07407407407407408,115.33333333333334,0)" xlink:href="#aK"/><use transform="matrix(0.07407407407407408,0,0,0.07407407407407408,130.14814814814815,0)" xlink:href="#aq"/><use transform="matrix(0.07407407407407408,0,0,0.07407407407407408,146.37037037037038,0)" xlink:href="#ar"/></g><path d="M205 0l-28-72H64L36 0H1l101-248h38L239 0h-34zm-38-99l-47-123c-12 45-31 82-46 123h93" id="aL"/><path d="M24-231v-30h32v30H24zM24 0v-190h32V0H24" id="aM"/><g id="M"><use transform="matrix(0.07407407407407408,0,0,0.07407407407407408,0,0)" xlink:href="#aL"/><use transform="matrix(0.07407407407407408,0,0,0.07407407407407408,17.77777777777778,0)" xlink:href="#aM"/><use transform="matrix(0.07407407407407408,0,0,0.07407407407407408,23.629629629629633,0)" xlink:href="#aB"/></g><linearGradient gradientUnits="userSpaceOnUse" id="N" x1="982.09" y1="495.56" x2="982.09" y2="599.39"><stop offset="0%" stop-color="#fff"/><stop offset="13.04%" stop-color="#f6f9f9"/><stop offset="100%" stop-color="#d6dee3"/></linearGradient><linearGradient gradientUnits="userSpaceOnUse" id="O" x1="982.09" y1="495.56" x2="982.09" y2="599.39"><stop offset="0%" stop-color="#fff"/><stop offset="13.04%" stop-color="#f6f9f9"/><stop offset="100%" stop-color="#d6dee3"/></linearGradient><linearGradient gradientUnits="userSpaceOnUse" id="P" x1="945.76" y1="714.12" x2="945.76" y2="769.88"><stop offset="0%" stop-color="#fff"/><stop offset="13.04%" stop-color="#f6f9f9"/><stop offset="100%" stop-color="#d6dee3"/></linearGradient><path d="M266 0h-40l-56-210L115 0H75L2-248h35L96-30l15-64 43-154h32l59 218 59-218h35" id="aN"/><g id="Q"><use transform="matrix(0.07407407407407408,0,0,0.07407407407407408,0,0)" xlink:href="#aN"/><use transform="matrix(0.07407407407407408,0,0,0.07407407407407408,24.148148148148152,0)" xlink:href="#ab"/><use transform="matrix(0.07407407407407408,0,0,0.07407407407407408,38.96296296296297,0)" xlink:href="#ac"/><use transform="matrix(0.07407407407407408,0,0,0.07407407407407408,46.37037037037039,0)" xlink:href="#Z"/><use transform="matrix(0.07407407407407408,0,0,0.07407407407407408,61.185185185185205,0)" xlink:href="#aB"/></g><linearGradient gradientUnits="userSpaceOnUse" id="R" x1="812.15" y1="486.28" x2="812.15" y2="569.81"><stop offset="0%" stop-color="#fff"/><stop offset="13.04%" stop-color="#f6f9f9"/><stop offset="100%" stop-color="#d6dee3"/></linearGradient><linearGradient gradientUnits="userSpaceOnUse" id="S" x1="1153.92" y1="591.68" x2="1153.92" y2="633.68"><stop offset="0%" stop-color="#fff"/><stop offset="13.04%" stop-color="#f6f9f9"/><stop offset="100%" stop-color="#d6dee3"/></linearGradient><linearGradient gradientUnits="userSpaceOnUse" id="T" x1="1153.92" y1="591.68" x2="1153.92" y2="633.68"><stop offset="0%" stop-color="#fff"/><stop offset="13.04%" stop-color="#f6f9f9"/><stop offset="100%" stop-color="#d6dee3"/></linearGradient><linearGradient gradientUnits="userSpaceOnUse" id="U" x1="1153.92" y1="591.68" x2="1153.92" y2="633.68"><stop offset="0%" stop-color="#fff"/><stop offset="13.04%" stop-color="#f6f9f9"/><stop offset="100%" stop-color="#d6dee3"/></linearGradient></defs></g></svg>