<?xml version="1.0" encoding="UTF-8" standalone="no"?>
<!DOCTYPE svg PUBLIC "-//W3C//DTD SVG 1.1//EN"
 "http://www.w3.org/Graphics/SVG/1.1/DTD/svg11.dtd">
<!-- Generated by graphviz version 2.44.1 (20200629.0846)
 -->
<!-- Pages: 1 -->
<svg width="2036pt" height="323pt"
 viewBox="0.00 0.00 2036.04 323.00" xmlns="http://www.w3.org/2000/svg" xmlns:xlink="http://www.w3.org/1999/xlink">
<g id="graph0" class="graph" transform="scale(1 1) rotate(0) translate(4 319)">
<polygon fill="white" stroke="transparent" points="-4,4 -4,-319 2032.04,-319 2032.04,4 -4,4"/>
<!-- U101
Conveying belt&#45;&gt;U102
Magnetic separator -->
<g id="edge4" class="edge">
<title>U101
Conveying belt:c&#45;&gt;U102
Magnetic separator:c</title>
<path fill="none" stroke="black" d="M210.37,-21.5C222.52,-21.5 235.74,-21.5 248.65,-21.5"/>
<polygon fill="black" stroke="black" points="248.91,-25 258.91,-21.5 248.91,-18 248.91,-25"/>
<text text-anchor="middle" x="234.5" y="-25.3" font-family="Times New Roman,serif" font-size="14.00">s1</text>
</g>
<!-- U102
Magnetic separator&#45;&gt;U103
Shredder -->
<g id="edge16" class="edge">
<title>U102
Magnetic separator:c&#45;&gt;U103
Shredder:c</title>
<path fill="none" stroke="black" d="M382.35,-21.5C395.22,-21.5 408.55,-21.5 420.62,-21.5"/>
<polygon fill="black" stroke="black" points="420.86,-25 430.86,-21.5 420.86,-18 420.86,-25"/>
<text text-anchor="middle" x="406.5" y="-25.3" font-family="Times New Roman,serif" font-size="14.00">s2</text>
</g>
<!-- U103
Shredder&#45;&gt;T201
Enzyme treatment -->
<g id="edge6" class="edge">
<title>U103
Shredder:c&#45;&gt;T201
Enzyme treatment:c</title>
<path fill="none" stroke="black" d="M499.29,-27.97C510.88,-30.22 524.32,-32.83 537.66,-35.42"/>
<polygon fill="black" stroke="black" points="537.33,-38.92 547.81,-37.39 538.66,-32.05 537.33,-38.92"/>
<text text-anchor="middle" x="523.5" y="-37.3" font-family="Times New Roman,serif" font-size="14.00">s3</text>
</g>
<!-- T201
Enzyme treatment&#45;&gt;SYS.1
System -->
<g id="edge15" class="edge">
<title>T201
Enzyme treatment:c&#45;&gt;SYS.1
System:c</title>
<path fill="none" stroke="black" d="M664.33,-59.72C677.28,-62.25 690.81,-64.9 703,-67.28"/>
<polygon fill="black" stroke="black" points="702.4,-70.73 712.88,-69.22 703.74,-63.86 702.4,-70.73"/>
<text text-anchor="middle" x="688.5" y="-68.3" font-family="Times New Roman,serif" font-size="14.00">s4</text>
</g>
<!-- SYS.1
System&#45;&gt;T202
Storage tank -->
<g id="edge23" class="edge">
<title>SYS.1
System:c&#45;&gt;T202
Storage tank:c</title>
<path fill="none" stroke="black" d="M779.26,-84.89C793.13,-88.93 809.7,-93.76 825.24,-98.28"/>
<polygon fill="black" stroke="black" points="824.69,-101.77 835.27,-101.2 826.64,-95.05 824.69,-101.77"/>
<text text-anchor="middle" x="803.5" y="-96.3" font-family="Times New Roman,serif" font-size="14.00">s8</text>
</g>
<!-- SYS.1
System&#45;&gt;U202
Conveying belt -->
<g id="edge14" class="edge">
<title>SYS.1
System:c&#45;&gt;U202
Conveying belt:c</title>
<path fill="none" stroke="black" d="M779.26,-69.07C790.93,-66.75 804.51,-64.04 817.78,-61.4"/>
<polygon fill="black" stroke="black" points="818.71,-64.78 827.83,-59.4 817.34,-57.92 818.71,-64.78"/>
<text text-anchor="middle" x="803.5" y="-68.3" font-family="Times New Roman,serif" font-size="14.00">s5</text>
</g>
<!-- T202
Storage tank&#45;&gt;H201
Heat exchanger -->
<g id="edge1" class="edge">
<title>T202
Storage tank:c&#45;&gt;H201
Heat exchanger:c</title>
<path fill="none" stroke="black" d="M921.87,-116.08C938.02,-117.06 956.88,-118.2 974.88,-119.3"/>
<polygon fill="black" stroke="black" points="974.86,-122.8 985.06,-119.92 975.29,-115.82 974.86,-122.8"/>
<text text-anchor="middle" x="957" y="-122.3" font-family="Times New Roman,serif" font-size="14.00">s10</text>
</g>
<!-- H201
Heat exchanger&#45;&gt;T203
Mix tank -->
<g id="edge7" class="edge">
<title>H201
Heat exchanger:c&#45;&gt;T203
Mix tank:c</title>
<path fill="none" stroke="black" d="M1102.67,-141.67C1118.92,-146.88 1136.32,-152.47 1151.44,-157.32"/>
<polygon fill="black" stroke="black" points="1150.42,-160.67 1161.02,-160.39 1152.56,-154 1150.42,-160.67"/>
<text text-anchor="middle" x="1133.04" y="-157.3" font-family="Times New Roman,serif" font-size="14.00">s11</text>
</g>
<!-- T203
Mix tank&#45;&gt;P201
Pump -->
<g id="edge2" class="edge">
<title>T203
Mix tank:c&#45;&gt;P201
Pump:c</title>
<path fill="none" stroke="black" d="M1226.12,-170.5C1242.39,-170.5 1262.26,-170.5 1278.94,-170.5"/>
<polygon fill="black" stroke="black" points="1279.37,-174 1289.37,-170.5 1279.37,-167 1279.37,-174"/>
<text text-anchor="middle" x="1254.04" y="-174.3" font-family="Times New Roman,serif" font-size="14.00">s12</text>
</g>
<!-- P201
Pump&#45;&gt;T205
Mix tank -->
<g id="edge3" class="edge">
<title>P201
Pump:c&#45;&gt;T205
Mix tank:c</title>
<path fill="none" stroke="black" d="M1339.62,-175.76C1354.84,-179.09 1374.91,-183.47 1392.68,-187.35"/>
<polygon fill="black" stroke="black" points="1392.3,-190.85 1402.82,-189.57 1393.8,-184.01 1392.3,-190.85"/>
<text text-anchor="middle" x="1375.04" y="-188.3" font-family="Times New Roman,serif" font-size="14.00">s13</text>
</g>
<!-- T204
Mix tank&#45;&gt;T205
Mix tank -->
<g id="edge20" class="edge">
<title>T204
Mix tank:c&#45;&gt;T205
Mix tank:c</title>
<path fill="none" stroke="black" d="M1347.12,-217.07C1361.11,-213.78 1377.75,-209.86 1392.75,-206.33"/>
<polygon fill="black" stroke="black" points="1393.88,-209.66 1402.82,-203.96 1392.28,-202.85 1393.88,-209.66"/>
<text text-anchor="middle" x="1375.04" y="-215.3" font-family="Times New Roman,serif" font-size="14.00">s14</text>
</g>
<!-- T205
Mix tank&#45;&gt;P202
Pump -->
<g id="edge11" class="edge">
<title>T205
Mix tank:c&#45;&gt;P202
Pump:c</title>
<path fill="none" stroke="black" d="M1468.2,-196.5C1490.13,-196.5 1519.3,-196.5 1541.78,-196.5"/>
<polygon fill="black" stroke="black" points="1541.9,-200 1551.9,-196.5 1541.9,-193 1541.9,-200"/>
<text text-anchor="middle" x="1496.04" y="-200.3" font-family="Times New Roman,serif" font-size="14.00">s16</text>
</g>
<!-- P202
Pump&#45;&gt;SYS.2
System -->
<g id="edge12" class="edge">
<title>P202
Pump:c&#45;&gt;SYS.2
System:c</title>
<path fill="none" stroke="black" d="M1602.11,-201.14C1622.36,-205.05 1651.79,-210.72 1675.93,-215.38"/>
<polygon fill="black" stroke="black" points="1675.42,-218.85 1685.91,-217.3 1676.75,-211.97 1675.42,-218.85"/>
<text text-anchor="middle" x="1658.04" y="-216.3" font-family="Times New Roman,serif" font-size="14.00">s15</text>
</g>
<!-- rvf_wash_water
polymer
&#45;&gt;SYS.2
System -->
<g id="edge21" class="edge">
<title>rvf_wash_water
polymer
:c&#45;&gt;SYS.2
System:c</title>
<path fill="none" stroke="black" stroke-dasharray="5,2" d="M1630.17,-240.45C1645.19,-237.55 1661.38,-234.43 1675.72,-231.66"/>
<polygon fill="black" stroke="black" points="1676.64,-235.05 1685.79,-229.72 1675.31,-228.18 1676.64,-235.05"/>
</g>
<!-- SYS.2
System&#45;&gt;S202
Vibrating screen -->
<g id="edge13" class="edge">
<title>SYS.2
System:c&#45;&gt;S202
Vibrating screen:c</title>
<path fill="none" stroke="black" d="M1752.28,-233.37C1765.9,-237.53 1782.24,-242.54 1798.06,-247.38"/>
<polygon fill="black" stroke="black" points="1797.22,-250.78 1807.81,-250.36 1799.27,-244.09 1797.22,-250.78"/>
<text text-anchor="middle" x="1780.04" y="-247.3" font-family="Times New Roman,serif" font-size="14.00">s20</text>
</g>
<!-- SYS.2
System&#45;&gt;filter_cake -->
<g id="edge22" class="edge">
<title>SYS.2
System:c&#45;&gt;filter_cake:w</title>
<path fill="none" stroke="black" d="M1752.12,-218.32C1772.51,-215.47 1799.51,-212.5 1823.54,-212.5"/>
</g>
<!-- S202
Vibrating screen&#45;&gt;s24 -->
<g id="edge5" class="edge">
<title>S202
Vibrating screen:c&#45;&gt;s24:w</title>
<path fill="none" stroke="black" d="M1915.3,-285.62C1931.66,-290.05 1949.9,-293.5 1967.04,-293.5"/>
</g>
<!-- S202
Vibrating screen&#45;&gt;fiber_fines -->
<g id="edge24" class="edge">
<title>S202
Vibrating screen:c&#45;&gt;fiber_fines:w</title>
<path fill="none" stroke="black" d="M1915.24,-245.09C1927.15,-241.82 1939.87,-239.5 1952.04,-239.5"/>
</g>
<!-- U202
Conveying belt&#45;&gt;Bagasse -->
<g id="edge9" class="edge">
<title>U202
Conveying belt:c&#45;&gt;Bagasse:w</title>
<path fill="none" stroke="black" d="M929.04,-39.06C954.09,-34.64 985.04,-30.5 1013.02,-30.5"/>
</g>
<!-- sugarcane&#45;&gt;U101
Conveying belt -->
<g id="edge8" class="edge">
<title>sugarcane:e&#45;&gt;U101
Conveying belt:c</title>
<path fill="none" stroke="black" d="M72,-21.5C83.86,-21.5 96.64,-21.5 108.64,-21.5"/>
</g>
<!-- lime&#45;&gt;T204
Mix tank -->
<g id="edge10" class="edge">
<title>lime:e&#45;&gt;T204
Mix tank:c</title>
<path fill="none" stroke="black" d="M1216.54,-224.5C1238.27,-224.5 1262.73,-224.5 1281.65,-224.5"/>
</g>
<!-- H3PO4&#45;&gt;T203
Mix tank -->
<g id="edge17" class="edge">
<title>H3PO4:e&#45;&gt;T203
Mix tank:c</title>
<path fill="none" stroke="black" d="M1076.02,-216.5C1106.25,-216.5 1138.01,-202.94 1160.72,-190.54"/>
</g>
<!-- imbibition_water&#45;&gt;SYS.1
System -->
<g id="edge18" class="edge">
<title>imbibition_water:e&#45;&gt;SYS.1
System:c</title>
<path fill="none" stroke="black" d="M662,-102.5C679.27,-102.5 697.62,-97.15 712.66,-91.21"/>
</g>
<!-- enzyme&#45;&gt;T201
Enzyme treatment -->
<g id="edge19" class="edge">
<title>enzyme:e&#45;&gt;T201
Enzyme treatment:c</title>
<path fill="none" stroke="black" d="M496,-75.5C513.16,-75.5 531.4,-72.31 547.95,-68.12"/>
</g>
<!-- U101
Conveying belt -->
<g id="node1" class="node">
<title>U101
Conveying belt</title>
<defs>
<linearGradient id="l_0" gradientUnits="userSpaceOnUse" x1="109" y1="-21.5" x2="210" y2="-21.5" >
<stop offset="0" style="stop-color:white;stop-opacity:1.;"/>
<stop offset="1" style="stop-color:#cdcdcd;stop-opacity:1.;"/>
</linearGradient>
</defs>
<polygon fill="url(#l_0)" stroke="black" points="210,-43 109,-43 109,0 210,0 210,-43"/>
<text text-anchor="middle" x="159.5" y="-25.3" font-family="Times New Roman,serif" font-size="14.00">U101</text>
<text text-anchor="middle" x="159.5" y="-10.3" font-family="Times New Roman,serif" font-size="14.00">Conveying belt</text>
</g>
<!-- U102
Magnetic separator -->
<g id="node2" class="node">
<title>U102
Magnetic separator</title>
<defs>
<linearGradient id="l_1" gradientUnits="userSpaceOnUse" x1="259" y1="-21.5" x2="382" y2="-21.5" >
<stop offset="0" style="stop-color:white;stop-opacity:1.;"/>
<stop offset="1" style="stop-color:#cdcdcd;stop-opacity:1.;"/>
</linearGradient>
</defs>
<polygon fill="url(#l_1)" stroke="black" points="382,-43 259,-43 259,0 382,0 382,-43"/>
<text text-anchor="middle" x="320.5" y="-25.3" font-family="Times New Roman,serif" font-size="14.00">U102</text>
<text text-anchor="middle" x="320.5" y="-10.3" font-family="Times New Roman,serif" font-size="14.00">Magnetic separator</text>
</g>
<!-- U103
Shredder -->
<g id="node3" class="node">
<title>U103
Shredder</title>
<defs>
<linearGradient id="l_2" gradientUnits="userSpaceOnUse" x1="431" y1="-21.5" x2="499" y2="-21.5" >
<stop offset="0" style="stop-color:white;stop-opacity:1.;"/>
<stop offset="1" style="stop-color:#cdcdcd;stop-opacity:1.;"/>
</linearGradient>
</defs>
<polygon fill="url(#l_2)" stroke="black" points="499,-43 431,-43 431,0 499,0 499,-43"/>
<text text-anchor="middle" x="465" y="-25.3" font-family="Times New Roman,serif" font-size="14.00">U103</text>
<text text-anchor="middle" x="465" y="-10.3" font-family="Times New Roman,serif" font-size="14.00">Shredder</text>
</g>
<!-- T201
Enzyme treatment -->
<g id="node4" class="node">
<title>T201
Enzyme treatment</title>
<defs>
<linearGradient id="l_3" gradientUnits="userSpaceOnUse" x1="548" y1="-48.5" x2="664" y2="-48.5" >
<stop offset="0" style="stop-color:white;stop-opacity:1.;"/>
<stop offset="1" style="stop-color:#cdcdcd;stop-opacity:1.;"/>
</linearGradient>
</defs>
<polygon fill="url(#l_3)" stroke="black" points="664,-70 548,-70 548,-27 664,-27 664,-70"/>
<text text-anchor="middle" x="606" y="-52.3" font-family="Times New Roman,serif" font-size="14.00">T201</text>
<text text-anchor="middle" x="606" y="-37.3" font-family="Times New Roman,serif" font-size="14.00">Enzyme treatment</text>
</g>
<!-- SYS.1
System -->
<g id="node5" class="node">
<title>SYS.1
System</title>
<defs>
<linearGradient id="l_4" gradientUnits="userSpaceOnUse" x1="717" y1="-75.5" x2="775" y2="-75.5" >
<stop offset="0" style="stop-color:white;stop-opacity:1.;"/>
<stop offset="1" style="stop-color:#cdcdcd;stop-opacity:1.;"/>
</linearGradient>
</defs>
<polygon fill="url(#l_4)" stroke="black" points="775,-97 717,-97 717,-54 775,-54 775,-97"/>
<polygon fill="none" stroke="black" points="779,-101 713,-101 713,-50 779,-50 779,-101"/>
<text text-anchor="middle" x="746" y="-79.3" font-family="Times New Roman,serif" font-size="14.00">SYS.1</text>
<text text-anchor="middle" x="746" y="-64.3" font-family="Times New Roman,serif" font-size="14.00">System</text>
</g>
<!-- T202
Storage tank -->
<g id="node6" class="node">
<title>T202
Storage tank</title>
<defs>
<linearGradient id="l_5" gradientUnits="userSpaceOnUse" x1="835.5" y1="-113.5" x2="921.5" y2="-113.5" >
<stop offset="0" style="stop-color:white;stop-opacity:1.;"/>
<stop offset="1" style="stop-color:#cdcdcd;stop-opacity:1.;"/>
</linearGradient>
</defs>
<polygon fill="url(#l_5)" stroke="black" points="921.5,-135 835.5,-135 835.5,-92 921.5,-92 921.5,-135"/>
<text text-anchor="middle" x="878.5" y="-117.3" font-family="Times New Roman,serif" font-size="14.00">T202</text>
<text text-anchor="middle" x="878.5" y="-102.3" font-family="Times New Roman,serif" font-size="14.00">Storage tank</text>
</g>
<!-- H201
Heat exchanger -->
<g id="node7" class="node">
<title>H201
Heat exchanger</title>
<defs>
<linearGradient id="l_6" gradientUnits="userSpaceOnUse" x1="1045.02" y1="-63.46" x2="1045.02" y2="-183.54" >
<stop offset="0" style="stop-color:#cfecf0;stop-opacity:1.;"/>
<stop offset="1" style="stop-color:#fad6d8;stop-opacity:1.;"/>
</linearGradient>
</defs>
<ellipse fill="url(#l_6)" stroke="transparent" cx="1045.02" cy="-123.5" rx="60.04" ry="60.04"/>
<text text-anchor="middle" x="1045.02" y="-127.3" font-family="Times New Roman,serif" font-size="14.00">H201</text>
<text text-anchor="middle" x="1045.02" y="-112.3" font-family="Times New Roman,serif" font-size="14.00">Heat exchanger</text>
</g>
<!-- T203
Mix tank -->
<g id="node8" class="node">
<title>T203
Mix tank</title>
<defs>
<linearGradient id="l_7" gradientUnits="userSpaceOnUse" x1="1161.04" y1="-170.5" x2="1226.04" y2="-170.5" >
<stop offset="0" style="stop-color:white;stop-opacity:1.;"/>
<stop offset="1" style="stop-color:#cdcdcd;stop-opacity:1.;"/>
</linearGradient>
</defs>
<polygon fill="url(#l_7)" stroke="black" points="1226.04,-192 1161.04,-192 1161.04,-149 1226.04,-149 1226.04,-192"/>
<text text-anchor="middle" x="1193.54" y="-174.3" font-family="Times New Roman,serif" font-size="14.00">T203</text>
<text text-anchor="middle" x="1193.54" y="-159.3" font-family="Times New Roman,serif" font-size="14.00">Mix tank</text>
</g>
<!-- P201
Pump -->
<g id="node9" class="node">
<title>P201
Pump</title>
<defs>
<linearGradient id="l_8" gradientUnits="userSpaceOnUse" x1="1289.54" y1="-170.5" x2="1339.54" y2="-170.5" >
<stop offset="0" style="stop-color:white;stop-opacity:1.;"/>
<stop offset="1" style="stop-color:#cdcdcd;stop-opacity:1.;"/>
</linearGradient>
</defs>
<polygon fill="url(#l_8)" stroke="black" points="1339.54,-192 1289.54,-192 1289.54,-149 1339.54,-149 1339.54,-192"/>
<text text-anchor="middle" x="1314.54" y="-174.3" font-family="Times New Roman,serif" font-size="14.00">P201</text>
<text text-anchor="middle" x="1314.54" y="-159.3" font-family="Times New Roman,serif" font-size="14.00">Pump</text>
</g>
<!-- T204
Mix tank -->
<g id="node10" class="node">
<title>T204
Mix tank</title>
<defs>
<linearGradient id="l_9" gradientUnits="userSpaceOnUse" x1="1282.04" y1="-224.5" x2="1347.04" y2="-224.5" >
<stop offset="0" style="stop-color:white;stop-opacity:1.;"/>
<stop offset="1" style="stop-color:#cdcdcd;stop-opacity:1.;"/>
</linearGradient>
</defs>
<polygon fill="url(#l_9)" stroke="black" points="1347.04,-246 1282.04,-246 1282.04,-203 1347.04,-203 1347.04,-246"/>
<text text-anchor="middle" x="1314.54" y="-228.3" font-family="Times New Roman,serif" font-size="14.00">T204</text>
<text text-anchor="middle" x="1314.54" y="-213.3" font-family="Times New Roman,serif" font-size="14.00">Mix tank</text>
</g>
<!-- T205
Mix tank -->
<g id="node11" class="node">
<title>T205
Mix tank</title>
<defs>
<linearGradient id="l_10" gradientUnits="userSpaceOnUse" x1="1403.04" y1="-196.5" x2="1468.04" y2="-196.5" >
<stop offset="0" style="stop-color:white;stop-opacity:1.;"/>
<stop offset="1" style="stop-color:#cdcdcd;stop-opacity:1.;"/>
</linearGradient>
</defs>
<polygon fill="url(#l_10)" stroke="black" points="1468.04,-218 1403.04,-218 1403.04,-175 1468.04,-175 1468.04,-218"/>
<text text-anchor="middle" x="1435.54" y="-200.3" font-family="Times New Roman,serif" font-size="14.00">T205</text>
<text text-anchor="middle" x="1435.54" y="-185.3" font-family="Times New Roman,serif" font-size="14.00">Mix tank</text>
</g>
<!-- P202
Pump -->
<g id="node12" class="node">
<title>P202
Pump</title>
<defs>
<linearGradient id="l_11" gradientUnits="userSpaceOnUse" x1="1552.04" y1="-196.5" x2="1602.04" y2="-196.5" >
<stop offset="0" style="stop-color:white;stop-opacity:1.;"/>
<stop offset="1" style="stop-color:#cdcdcd;stop-opacity:1.;"/>
</linearGradient>
</defs>
<polygon fill="url(#l_11)" stroke="black" points="1602.04,-218 1552.04,-218 1552.04,-175 1602.04,-175 1602.04,-218"/>
<text text-anchor="middle" x="1577.04" y="-200.3" font-family="Times New Roman,serif" font-size="14.00">P202</text>
<text text-anchor="middle" x="1577.04" y="-185.3" font-family="Times New Roman,serif" font-size="14.00">Pump</text>
</g>
<!-- rvf_wash_water
polymer
 -->
<g id="node13" class="node">
<title>rvf_wash_water
polymer
</title>
<defs>
<linearGradient id="l_12" gradientUnits="userSpaceOnUse" x1="1524.04" y1="-250.5" x2="1630.04" y2="-250.5" >
<stop offset="0" style="stop-color:white;stop-opacity:1.;"/>
<stop offset="1" style="stop-color:#79dae8;stop-opacity:1.;"/>
</linearGradient>
</defs>
<polygon fill="url(#l_12)" stroke="black" points="1630.04,-272 1524.04,-272 1524.04,-229 1630.04,-229 1630.04,-272"/>
<text text-anchor="middle" x="1577.04" y="-254.3" font-family="Times New Roman,serif" font-size="14.00">rvf_wash_water</text>
<text text-anchor="middle" x="1577.04" y="-239.3" font-family="Times New Roman,serif" font-size="14.00">polymer</text>
</g>
<!-- SYS.2
System -->
<g id="node14" class="node">
<title>SYS.2
System</title>
<defs>
<linearGradient id="l_13" gradientUnits="userSpaceOnUse" x1="1690.04" y1="-223.5" x2="1748.04" y2="-223.5" >
<stop offset="0" style="stop-color:white;stop-opacity:1.;"/>
<stop offset="1" style="stop-color:#cdcdcd;stop-opacity:1.;"/>
</linearGradient>
</defs>
<polygon fill="url(#l_13)" stroke="black" points="1748.04,-245 1690.04,-245 1690.04,-202 1748.04,-202 1748.04,-245"/>
<polygon fill="none" stroke="black" points="1752.04,-249 1686.04,-249 1686.04,-198 1752.04,-198 1752.04,-249"/>
<text text-anchor="middle" x="1719.04" y="-227.3" font-family="Times New Roman,serif" font-size="14.00">SYS.2</text>
<text text-anchor="middle" x="1719.04" y="-212.3" font-family="Times New Roman,serif" font-size="14.00">System</text>
</g>
<!-- S202
Vibrating screen -->
<g id="node15" class="node">
<title>S202
Vibrating screen</title>
<defs>
<linearGradient id="l_14" gradientUnits="userSpaceOnUse" x1="1808.04" y1="-266.5" x2="1915.04" y2="-266.5" >
<stop offset="0" style="stop-color:white;stop-opacity:1.;"/>
<stop offset="1" style="stop-color:#cdcdcd;stop-opacity:1.;"/>
</linearGradient>
</defs>
<polygon fill="url(#l_14)" stroke="black" points="1915.04,-288 1808.04,-288 1808.04,-245 1915.04,-245 1915.04,-288"/>
<text text-anchor="middle" x="1861.54" y="-270.3" font-family="Times New Roman,serif" font-size="14.00">S202</text>
<text text-anchor="middle" x="1861.54" y="-255.3" font-family="Times New Roman,serif" font-size="14.00">Vibrating screen</text>
</g>
<!-- U202
Conveying belt -->
<g id="node16" class="node">
<title>U202
Conveying belt</title>
<defs>
<linearGradient id="l_15" gradientUnits="userSpaceOnUse" x1="828" y1="-49.5" x2="929" y2="-49.5" >
<stop offset="0" style="stop-color:white;stop-opacity:1.;"/>
<stop offset="1" style="stop-color:#cdcdcd;stop-opacity:1.;"/>
</linearGradient>
</defs>
<polygon fill="url(#l_15)" stroke="black" points="929,-71 828,-71 828,-28 929,-28 929,-71"/>
<text text-anchor="middle" x="878.5" y="-53.3" font-family="Times New Roman,serif" font-size="14.00">U202</text>
<text text-anchor="middle" x="878.5" y="-38.3" font-family="Times New Roman,serif" font-size="14.00">Conveying belt</text>
</g>
<!-- s24 -->
<g id="node17" class="node">
<title>s24</title>
<polygon fill="#79dae8" stroke="black" points="1993.54,-309 1968.54,-309 1968.54,-278 1993.54,-278 1993.54,-272 2011.54,-293.5 1993.54,-315 1993.54,-309"/>
<text text-anchor="middle" x="1990.04" y="-289.8" font-family="Times New Roman,serif" font-size="14.00">s24</text>
</g>
<!-- sugarcane -->
<g id="node18" class="node">
<title>sugarcane</title>
<polygon fill="#79dae8" stroke="black" points="54,-37 0,-37 0,-6 54,-6 54,0 72,-21.5 54,-43 54,-37"/>
<text text-anchor="middle" x="36" y="-17.8" font-family="Times New Roman,serif" font-size="14.00">sugarcane</text>
</g>
<!-- Bagasse -->
<g id="node19" class="node">
<title>Bagasse</title>
<polygon fill="#79dae8" stroke="black" points="1058.02,-46 1014.02,-46 1014.02,-15 1058.02,-15 1058.02,-9 1076.02,-30.5 1058.02,-52 1058.02,-46"/>
<text text-anchor="middle" x="1045.02" y="-26.8" font-family="Times New Roman,serif" font-size="14.00">Bagasse</text>
</g>
<!-- lime -->
<g id="node20" class="node">
<title>lime</title>
<polygon fill="#79dae8" stroke="black" points="1197.04,-240 1172.04,-240 1172.04,-209 1197.04,-209 1197.04,-203 1215.04,-224.5 1197.04,-246 1197.04,-240"/>
<text text-anchor="middle" x="1193.54" y="-220.8" font-family="Times New Roman,serif" font-size="14.00">lime</text>
</g>
<!-- H3PO4 -->
<g id="node21" class="node">
<title>H3PO4</title>
<polygon fill="#79dae8" stroke="black" points="1056.52,-232 1015.52,-232 1015.52,-201 1056.52,-201 1056.52,-195 1074.52,-216.5 1056.52,-238 1056.52,-232"/>
<text text-anchor="middle" x="1045.02" y="-212.8" font-family="Times New Roman,serif" font-size="14.00">H3PO4</text>
</g>
<!-- imbibition_water -->
<g id="node22" class="node">
<title>imbibition_water</title>
<polygon fill="#79dae8" stroke="black" points="643,-118 551,-118 551,-87 643,-87 643,-81 661,-102.5 643,-124 643,-118"/>
<text text-anchor="middle" x="606" y="-98.8" font-family="Times New Roman,serif" font-size="14.00">imbibition_water</text>
</g>
<!-- enzyme -->
<g id="node23" class="node">
<title>enzyme</title>
<polygon fill="#79dae8" stroke="black" points="476.5,-91 435.5,-91 435.5,-60 476.5,-60 476.5,-54 494.5,-75.5 476.5,-97 476.5,-91"/>
<text text-anchor="middle" x="465" y="-71.8" font-family="Times New Roman,serif" font-size="14.00">enzyme</text>
</g>
<!-- filter_cake -->
<g id="node24" class="node">
<title>filter_cake</title>
<polygon fill="#79dae8" stroke="black" points="1880.54,-228 1824.54,-228 1824.54,-197 1880.54,-197 1880.54,-191 1898.54,-212.5 1880.54,-234 1880.54,-228"/>
<text text-anchor="middle" x="1861.54" y="-208.8" font-family="Times New Roman,serif" font-size="14.00">filter_cake</text>
</g>
<!-- fiber_fines -->
<g id="node25" class="node">
<title>fiber_fines</title>
<polygon fill="#79dae8" stroke="black" points="2010.04,-255 1952.04,-255 1952.04,-224 2010.04,-224 2010.04,-218 2028.04,-239.5 2010.04,-261 2010.04,-255"/>
<text text-anchor="middle" x="1990.04" y="-235.8" font-family="Times New Roman,serif" font-size="14.00">fiber_fines</text>
</g>
</g>
</svg>
